<svg width="78" height="78" viewBox="0 0 78 78" fill="none" xmlns="http://www.w3.org/2000/svg">
<path opacity="0.5" d="M38.9995 71.5002C23.679 71.5002 16.0188 71.5002 11.2575 66.739C6.49951 61.9842 6.49951 54.3207 6.49951 39.0002C6.49951 23.6797 6.49951 16.0195 11.2575 11.2582C16.022 6.50024 23.679 6.50024 38.9995 6.50024C54.32 6.50024 61.9803 6.50024 66.7383 11.2582C71.4995 16.0227 71.4995 23.6797 71.4995 39.0002C71.4995 54.3207 71.4995 61.981 66.7383 66.739C61.9835 71.5002 54.32 71.5002 38.9995 71.5002Z" fill="#541A79"/>
<path d="M39 26.8125C39.6465 26.8125 40.2665 27.0693 40.7236 27.5264C41.1807 27.9835 41.4375 28.6035 41.4375 29.25V36.5625H48.75C49.3965 36.5625 50.0165 36.8193 50.4736 37.2764C50.9307 37.7335 51.1875 38.3535 51.1875 39C51.1875 39.6465 50.9307 40.2665 50.4736 40.7236C50.0165 41.1807 49.3965 41.4375 48.75 41.4375H41.4375V48.75C41.4375 49.3965 41.1807 50.0165 40.7236 50.4736C40.2665 50.9307 39.6465 51.1875 39 51.1875C38.3535 51.1875 37.7335 50.9307 37.2764 50.4736C36.8193 50.0165 36.5625 49.3965 36.5625 48.75V41.4375H29.25C28.6035 41.4375 27.9835 41.1807 27.5264 40.7236C27.0693 40.2665 26.8125 39.6465 26.8125 39C26.8125 38.3535 27.0693 37.7335 27.5264 37.2764C27.9835 36.8193 28.6035 36.5625 29.25 36.5625H36.5625V29.25C36.5625 28.6035 36.8193 27.9835 37.2764 27.5264C37.7335 27.0693 38.3535 26.8125 39 26.8125Z" fill="#541A79"/>
</svg>
