<svg width="28" height="21" viewBox="0 0 28 21" fill="none" xmlns="http://www.w3.org/2000/svg">
<path fill-rule="evenodd" clip-rule="evenodd" d="M22.5963 0.178187C22.9123 0.336384 23.1526 0.613569 23.2644 0.948835C23.3761 1.2841 23.3502 1.65002 23.1923 1.96619L21.627 5.09952C23.3898 6.32717 24.8295 7.96303 25.8232 9.86754C26.8169 11.7721 27.3351 13.8887 27.3337 16.0369V17.3702C27.3337 18.0774 27.0527 18.7557 26.5526 19.2558C26.0525 19.7559 25.3742 20.0369 24.667 20.0369H3.33366C2.62642 20.0369 1.94814 19.7559 1.44804 19.2558C0.947948 18.7557 0.666996 18.0774 0.666996 17.3702V16.0369C0.665334 13.8885 1.18347 11.7716 2.17717 9.8668C3.17088 7.96204 4.61067 6.32596 6.37366 5.09819L4.80833 1.96619C4.72358 1.80902 4.67126 1.63643 4.65447 1.45865C4.63769 1.28088 4.65678 1.10155 4.71063 0.931294C4.76447 0.761041 4.85196 0.603337 4.96791 0.46754C5.08386 0.331743 5.22591 0.22062 5.38562 0.140764C5.54533 0.0609076 5.71946 0.0139454 5.89766 0.00266387C6.07587 -0.0086177 6.25453 0.0160108 6.42304 0.0750888C6.59154 0.134167 6.74647 0.226491 6.87862 0.346581C7.01077 0.466672 7.11745 0.612083 7.19233 0.774187L8.70433 3.79685C10.3761 3.07329 12.1787 2.70114 14.0003 2.70352C15.8817 2.70352 17.6737 3.09285 19.2963 3.79685L20.8083 0.774187C20.9665 0.458171 21.2437 0.217886 21.579 0.10613C21.9142 -0.00562511 22.2802 0.0202924 22.5963 0.178187ZM8.00033 10.7035C7.4699 10.7035 6.96119 10.9142 6.58612 11.2893C6.21104 11.6644 6.00033 12.1731 6.00033 12.7035C6.00033 13.234 6.21104 13.7427 6.58612 14.1177C6.96119 14.4928 7.4699 14.7035 8.00033 14.7035C8.53076 14.7035 9.03947 14.4928 9.41454 14.1177C9.78962 13.7427 10.0003 13.234 10.0003 12.7035C10.0003 12.1731 9.78962 11.6644 9.41454 11.2893C9.03947 10.9142 8.53076 10.7035 8.00033 10.7035ZM20.0003 10.7035C19.4699 10.7035 18.9612 10.9142 18.5861 11.2893C18.211 11.6644 18.0003 12.1731 18.0003 12.7035C18.0003 13.234 18.211 13.7427 18.5861 14.1177C18.9612 14.4928 19.4699 14.7035 20.0003 14.7035C20.5308 14.7035 21.0395 14.4928 21.4145 14.1177C21.7896 13.7427 22.0003 13.234 22.0003 12.7035C22.0003 12.1731 21.7896 11.6644 21.4145 11.2893C21.0395 10.9142 20.5308 10.7035 20.0003 10.7035Z" fill="#F8F8F8"/>
</svg>
