<svg width="104" height="79" viewBox="0 0 104 79" fill="none" xmlns="http://www.w3.org/2000/svg">
<path fill-rule="evenodd" clip-rule="evenodd" d="M85.3097 1.21397C86.5343 1.82699 87.4654 2.90108 87.8984 4.20023C88.3315 5.49939 88.231 6.91733 87.6192 8.14247L81.5535 20.2841C88.3844 25.0413 93.9631 31.3802 97.8137 38.7602C101.664 46.1402 103.672 54.3422 103.667 62.6663V67.833C103.667 70.5735 102.578 73.2019 100.64 75.1397C98.7024 77.0776 96.0741 78.1663 93.3335 78.1663H10.6668C7.92628 78.1663 5.29795 77.0776 3.36007 75.1397C1.4222 73.2019 0.333512 70.5735 0.333512 67.833V62.6663C0.327072 54.3413 2.33483 46.1383 6.18545 38.7574C10.0361 31.3764 15.6152 25.0366 22.4468 20.279L16.3812 8.14247C16.0528 7.53345 15.85 6.86466 15.785 6.17578C15.7199 5.48691 15.7939 4.79199 16.0026 4.13226C16.2112 3.47253 16.5503 2.86143 16.9996 2.33522C17.4489 1.809 17.9993 1.3784 18.6182 1.06896C19.2371 0.759515 19.9118 0.577537 20.6023 0.533821C21.2929 0.490105 21.9852 0.58554 22.6382 0.814467C23.2911 1.04339 23.8915 1.40115 24.4035 1.8665C24.9156 2.33185 25.329 2.89532 25.6192 3.52347L31.4782 15.2363C37.9562 12.4325 44.9414 10.9904 52.0002 10.9996C59.2903 10.9996 66.2344 12.5083 72.5222 15.2363L78.3812 3.52347C78.9942 2.29891 80.0683 1.36781 81.3674 0.934753C82.6666 0.501701 84.0845 0.602131 85.3097 1.21397ZM28.7502 41.9996C26.6948 41.9996 24.7235 42.8162 23.2701 44.2696C21.8167 45.723 21.0002 47.6942 21.0002 49.7496C21.0002 51.8051 21.8167 53.7763 23.2701 55.2297C24.7235 56.6831 26.6948 57.4996 28.7502 57.4996C30.8056 57.4996 32.7769 56.6831 34.2303 55.2297C35.6837 53.7763 36.5002 51.8051 36.5002 49.7496C36.5002 47.6942 35.6837 45.723 34.2303 44.2696C32.7769 42.8162 30.8056 41.9996 28.7502 41.9996ZM75.2502 41.9996C73.1948 41.9996 71.2235 42.8162 69.7701 44.2696C68.3167 45.723 67.5002 47.6942 67.5002 49.7496C67.5002 51.8051 68.3167 53.7763 69.7701 55.2297C71.2235 56.6831 73.1948 57.4996 75.2502 57.4996C77.3056 57.4996 79.2768 56.6831 80.7303 55.2297C82.1837 53.7763 83.0002 51.8051 83.0002 49.7496C83.0002 47.6942 82.1837 45.723 80.7303 44.2696C79.2768 42.8162 77.3056 41.9996 75.2502 41.9996Z" fill="white"/>
</svg>
