<svg width="19" height="21" viewBox="0 0 19 21" fill="none" xmlns="http://www.w3.org/2000/svg">
<path d="M16.5382 7.35029V8.08952C16.5382 8.97681 16.7902 9.84414 17.2649 10.5823L18.4283 12.3915C19.4899 14.0443 18.6793 16.2903 16.8322 16.8122C12.006 18.1793 6.8949 18.1793 2.06865 16.8122C0.221624 16.2903 -0.589008 14.0443 0.472584 12.3915L1.63603 10.5823C2.1123 9.83822 2.36487 8.973 2.36371 8.08952V7.35029C2.36371 3.29083 5.53694 0 9.45044 0C13.3639 0 16.5382 3.29083 16.5382 7.35029Z" fill="white"/>
<path d="M4.45532 17.373C4.79842 18.4274 5.46639 19.3461 6.36356 19.9976C7.26072 20.6492 8.34107 21.0001 9.44985 21.0001C10.5586 21.0001 11.639 20.6492 12.5361 19.9976C13.4333 19.3461 14.1013 18.4274 14.4444 17.373C11.142 17.9925 7.75875 17.9925 4.45532 17.373Z" fill="#9DB4D5"/>
</svg>
