<svg width="22" height="22" viewBox="0 0 22 22" fill="none" xmlns="http://www.w3.org/2000/svg">
<g id="Group">
<path id="Vector" opacity="0.2" d="M11.0004 21.5C16.7995 21.5 21.5004 16.7991 21.5004 11C21.5004 5.20085 16.7995 0.5 11.0004 0.5C5.20121 0.5 0.500366 5.20085 0.500366 11C0.500366 12.68 0.895166 14.2676 1.59552 15.6756C1.78242 16.0494 1.84437 16.4768 1.73622 16.881L1.11147 19.2183C1.04982 19.4496 1.05005 19.693 1.11214 19.9241C1.17422 20.1552 1.29598 20.3659 1.4652 20.5352C1.63442 20.7044 1.84516 20.8261 2.07628 20.8882C2.3074 20.9503 2.55078 20.9505 2.78201 20.8889L5.11931 20.2641C5.52504 20.162 5.95409 20.2117 6.32576 20.4038C7.77783 21.1269 9.37823 21.5021 11.0004 21.5Z" fill="white"/>
<path id="Vector_2" d="M11.7882 6.79995C11.7882 6.59109 11.7052 6.39079 11.5575 6.2431C11.4098 6.09542 11.2095 6.01245 11.0007 6.01245C10.7918 6.01245 10.5915 6.09542 10.4438 6.2431C10.2961 6.39079 10.2132 6.59109 10.2132 6.79995V6.81045C9.06971 7.0992 8.11316 8.0001 8.11316 9.2496C8.11316 10.7794 9.54641 11.7874 11.0007 11.7874C11.8659 11.7874 12.3132 12.3471 12.3132 12.7503C12.3132 13.1535 11.8659 13.7121 11.0007 13.7121C10.1355 13.7121 9.68816 13.1535 9.68816 12.7503C9.68816 12.5414 9.60519 12.3411 9.4575 12.1935C9.30982 12.0458 9.10952 11.9628 8.90066 11.9628C8.6918 11.9628 8.4915 12.0458 8.34381 12.1935C8.19613 12.3411 8.11316 12.5414 8.11316 12.7503C8.11316 13.9998 9.06971 14.9017 10.2132 15.1894V15.1999C10.2132 15.4088 10.2961 15.6091 10.4438 15.7568C10.5915 15.9045 10.7918 15.9874 11.0007 15.9874C11.2095 15.9874 11.4098 15.9045 11.5575 15.7568C11.7052 15.6091 11.7882 15.4088 11.7882 15.1999V15.1894C12.9316 14.9017 13.8882 13.9998 13.8882 12.7503C13.8882 11.2204 12.4549 10.2124 11.0007 10.2124C10.1355 10.2124 9.68816 9.6528 9.68816 9.2496C9.68816 8.8464 10.1355 8.2878 11.0007 8.2878C11.8659 8.2878 12.3132 8.8464 12.3132 9.2496C12.3132 9.45846 12.3961 9.65876 12.5438 9.80645C12.6915 9.95413 12.8918 10.0371 13.1007 10.0371C13.3095 10.0371 13.5098 9.95413 13.6575 9.80645C13.8052 9.65876 13.8882 9.45846 13.8882 9.2496C13.8882 8.0001 12.9316 7.0992 11.7882 6.81045V6.79995Z" fill="white"/>
</g>
</svg>
