<svg width="46" height="44" viewBox="0 0 46 44" fill="none" xmlns="http://www.w3.org/2000/svg">
<path d="M0.613199 19.6109C0.807377 19.4173 1.03797 19.2636 1.29179 19.1588C1.5456 19.054 1.81767 19 2.09243 19C2.36719 19 2.63926 19.054 2.89308 19.1588C3.14689 19.2636 3.37748 19.4173 3.57166 19.6109L23.0002 38.9704L42.4288 19.6109C42.8211 19.2201 43.3532 19.0005 43.9081 19.0005C44.4629 19.0005 44.995 19.2201 45.3873 19.6109C45.7796 20.0018 46 20.5319 46 21.0847C46 21.6375 45.7796 22.1676 45.3873 22.5585L24.4795 43.3891C24.2853 43.5827 24.0547 43.7364 23.8009 43.8412C23.5471 43.946 23.275 44 23.0002 44C22.7255 44 22.4534 43.946 22.1996 43.8412C21.9458 43.7364 21.7152 43.5827 21.521 43.3891L0.6132 22.5585C0.418806 22.365 0.264591 22.1353 0.159374 21.8824C0.0541572 21.6295 3.91437e-06 21.3584 3.89044e-06 21.0847C3.86651e-06 20.811 0.0541571 20.5399 0.159374 20.287C0.264591 20.0341 0.418806 19.8044 0.613199 19.6109Z" fill="#F8F8F8"/>
<path opacity="0.5" d="M0.613199 0.61093C0.807377 0.417255 1.03797 0.26361 1.29179 0.158781C1.5456 0.0539525 1.81767 -8.74513e-07 2.09243 -8.98534e-07C2.36719 -9.22554e-07 2.63926 0.0539524 2.89308 0.158781C3.14689 0.263609 3.37748 0.417255 3.57166 0.61093L23.0002 19.9704L42.4288 0.610927C42.8211 0.22006 43.3532 0.000472258 43.9081 0.000472221C44.4629 0.000472183 44.995 0.22006 45.3873 0.610927C45.7796 1.00179 46 1.53192 46 2.08469C46 2.63746 45.7796 3.16759 45.3873 3.55846L24.4795 24.3891C24.2853 24.5827 24.0547 24.7364 23.8009 24.8412C23.5471 24.946 23.275 25 23.0002 25C22.7255 25 22.4534 24.946 22.1996 24.8412C21.9458 24.7364 21.7152 24.5827 21.521 24.3891L0.6132 3.55846C0.418806 3.365 0.264591 3.13526 0.159374 2.88238C0.0541572 2.62951 3.91437e-06 2.35844 3.89044e-06 2.0847C3.86651e-06 1.81095 0.0541571 1.53989 0.159374 1.28701C0.264591 1.03413 0.418806 0.804391 0.613199 0.61093Z" fill="#F8F8F8"/>
</svg>
