<svg width="15" height="15" viewBox="0 0 15 15" fill="none" xmlns="http://www.w3.org/2000/svg">
<rect width="15" height="15" rx="7.5" fill="white"/>
<path d="M4.64592 4.6589C4.73948 4.56565 4.8663 4.51328 4.99853 4.51328C5.13075 4.51328 5.25757 4.56565 5.35113 4.6589L7.49335 6.79658L9.63557 4.6589C9.69655 4.59335 9.77413 4.54544 9.86012 4.52021C9.9461 4.49497 10.0373 4.49334 10.1242 4.5155C10.211 4.53765 10.2902 4.58277 10.3535 4.6461C10.4168 4.70942 10.4618 4.78861 10.4838 4.87532C10.506 4.96187 10.5045 5.05281 10.4793 5.13856C10.4541 5.2243 10.4063 5.3017 10.3408 5.36261L8.19855 7.5003L10.3408 9.63799C10.4064 9.69884 10.4545 9.77625 10.4798 9.86206C10.505 9.94787 10.5067 10.0389 10.4845 10.1255C10.4623 10.2122 10.4171 10.2913 10.3536 10.3544C10.2901 10.4176 10.2108 10.4625 10.1239 10.4844C10.0371 10.5066 9.94602 10.5051 9.86009 10.4799C9.77416 10.4548 9.6966 10.4071 9.63557 10.3417L7.49335 8.20401L5.35113 10.3417C5.25648 10.4296 5.13137 10.4775 5.0021 10.4752C4.87282 10.473 4.74944 10.4209 4.6579 10.3297C4.56659 10.2384 4.51433 10.1153 4.5121 9.98628C4.50986 9.85727 4.55783 9.73243 4.64592 9.63799L6.78814 7.5003L4.64592 5.36261C4.55248 5.26925 4.5 5.1427 4.5 5.01075C4.5 4.87881 4.55248 4.75225 4.64592 4.6589Z" fill="#541A79"/>
</svg>
