<svg width="23" height="23" viewBox="0 0 23 23" fill="none" xmlns="http://www.w3.org/2000/svg">
<path d="M0 7.66667C0 5.63334 0.807736 3.68329 2.24551 2.24551C3.68329 0.807736 5.63334 0 7.66667 0H17.0173C17.2826 0 17.5369 0.105357 17.7244 0.292893C17.912 0.480429 18.0173 0.734784 18.0173 1C18.0173 1.26522 17.912 1.51957 17.7244 1.70711C17.5369 1.89464 17.2826 2 17.0173 2H7.66667C6.16377 2 4.72243 2.59702 3.65973 3.65973C2.59702 4.72243 2 6.16377 2 7.66667V17.1427C2 17.4079 1.89464 17.6622 1.70711 17.8498C1.51957 18.0373 1.26522 18.1427 1 18.1427C0.734784 18.1427 0.480429 18.0373 0.292893 17.8498C0.105357 17.6622 0 17.4079 0 17.1427V7.66667Z" fill="#F8F8F8"/>
<path d="M20.204 4.72398C15.8592 4.24093 11.4742 4.24093 7.12935 4.72398C6.52819 4.791 5.96735 5.05931 5.53795 5.48533C5.10854 5.91134 4.83579 6.47004 4.76402 7.07065C4.25151 11.4526 4.25151 15.8794 4.76402 20.2613C4.83556 20.862 5.10824 21.4208 5.53769 21.8469C5.96714 22.273 6.52811 22.5412 7.12935 22.608C11.4507 23.092 15.8827 23.092 20.204 22.608C20.8053 22.5412 21.3662 22.273 21.7957 21.8469C22.2251 21.4208 22.4978 20.862 22.5694 20.2613C23.0819 15.8794 23.0819 11.4526 22.5694 7.07065C22.4976 6.47004 22.2248 5.91134 21.7954 5.48533C21.366 5.05931 20.8052 4.791 20.204 4.72398Z" fill="#F8F8F8"/>
</svg>
