<svg width="50" height="50" viewBox="0 0 50 50" fill="none" xmlns="http://www.w3.org/2000/svg">
<path opacity="0.5" d="M48.8596 23.1795L48.2982 29.1514C47.3715 38.9868 46.9082 43.9069 44.0081 46.8708C41.1129 49.8371 36.7688 49.8371 28.0758 49.8371H21.4077C12.7172 49.8371 8.37311 49.8371 5.47299 46.8708C2.57287 43.9045 2.11199 38.9868 1.18532 29.1514L0.621475 23.1795C0.180205 18.4922 -0.0404296 16.1462 0.763662 15.1778C0.965801 14.9253 1.21627 14.7157 1.5004 14.5613C1.78454 14.4068 2.09663 14.3105 2.41842 14.2781C3.58534 14.1751 5.04888 15.8422 7.97842 19.1762C9.49345 20.9021 10.251 21.7625 11.0943 21.8974C11.5653 21.9708 12.0475 21.8936 12.472 21.6767C13.254 21.2845 13.7713 20.2181 14.8132 18.0877L20.2972 6.85007C22.2633 2.82226 23.2463 0.807129 24.7418 0.807129C26.2372 0.807129 27.2202 2.82226 29.1863 6.85007L34.6703 18.0877C35.7098 20.2205 36.2295 21.2845 37.0115 21.6767C37.443 21.8949 37.9186 21.9709 38.3892 21.8974C39.2326 21.7625 39.9901 20.9021 41.5051 19.1762C44.4346 15.8422 45.8982 14.1751 47.0651 14.2781C47.3869 14.3105 47.699 14.4068 47.9831 14.5613C48.2673 14.7157 48.5177 14.9253 48.7199 15.1778C49.5215 16.1462 49.3009 18.4922 48.8596 23.1795Z" fill="white"/>
<path d="M27.0757 27.0364L26.8355 26.6049C25.9039 24.933 25.4381 24.097 24.7419 24.097C24.0457 24.097 23.5799 24.9306 22.6483 26.6049L22.4081 27.0364C22.1433 27.512 22.0109 27.7473 21.805 27.9042C21.5966 28.0611 21.3392 28.12 20.8244 28.2352L20.3586 28.343C18.5494 28.7524 17.6448 28.9559 17.4291 29.6472C17.2133 30.341 17.8311 31.0618 19.0642 32.5032L19.3829 32.8759C19.7335 33.2853 19.91 33.4887 19.9884 33.7437C20.0669 33.9986 20.0399 34.2708 19.9884 34.8174L19.9394 35.3151C19.7531 37.2395 19.6599 38.203 20.2213 38.6295C20.7852 39.0561 21.6334 38.6663 23.3274 37.8867L23.7638 37.6857C24.2467 37.4651 24.4869 37.3523 24.7419 37.3523C24.9969 37.3523 25.2371 37.4651 25.72 37.6857L26.1564 37.8867C27.8504 38.6688 28.6986 39.0561 29.2625 38.6295C29.8263 38.203 29.7307 37.2395 29.5444 35.3151L29.4954 34.8174C29.4439 34.2708 29.4169 33.9986 29.4954 33.7437C29.5738 33.4912 29.7503 33.2853 30.1009 32.8759L30.4196 32.5032C31.6527 31.0618 32.2704 30.341 32.0547 29.6472C31.839 28.9559 30.9344 28.7524 29.1252 28.343L28.6594 28.2352C28.1446 28.12 27.8872 28.0636 27.6788 27.9042C27.4729 27.7473 27.3405 27.512 27.0757 27.0364Z" fill="white"/>
</svg>
