<svg width="17" height="18" viewBox="0 0 17 18" fill="none" xmlns="http://www.w3.org/2000/svg">
<path fill-rule="evenodd" clip-rule="evenodd" d="M4.60868 1.66106C6.42782 0.584278 7.33694 0.0454407 8.33572 0.0454407C9.3345 0.0454407 10.2436 0.583382 12.0628 1.66106L12.6778 2.02506C14.4969 3.10274 15.4061 3.64158 15.9054 4.52828C16.4048 5.41589 16.4048 6.49177 16.4048 8.64712V9.37513C16.4048 11.5296 16.4048 12.6073 15.9054 13.494C15.4061 14.3816 14.4969 14.9195 12.6778 15.9963L12.0628 16.3612C10.2436 17.438 9.3345 17.9768 8.33572 17.9768C7.33694 17.9768 6.42782 17.4389 4.60868 16.3612L3.99364 15.9963C2.1745 14.9204 1.26538 14.3807 0.76599 13.494C0.266602 12.6064 0.266602 11.5305 0.266602 9.37513V8.64712C0.266602 6.49177 0.266602 5.41499 0.76599 4.52828C1.26538 3.64068 2.1745 3.10274 3.99364 2.02506L4.60868 1.66106ZM9.23229 12.5974C9.23229 12.8352 9.13783 13.0632 8.96969 13.2314C8.80155 13.3995 8.5735 13.494 8.33572 13.494C8.09793 13.494 7.86989 13.3995 7.70175 13.2314C7.53361 13.0632 7.43915 12.8352 7.43915 12.5974C7.43915 12.3596 7.53361 12.1316 7.70175 11.9634C7.86989 11.7953 8.09793 11.7008 8.33572 11.7008C8.5735 11.7008 8.80155 11.7953 8.96969 11.9634C9.13783 12.1316 9.23229 12.3596 9.23229 12.5974ZM8.33572 3.85586C8.51406 3.85586 8.68509 3.9267 8.8112 4.05281C8.9373 4.17891 9.00815 4.34995 9.00815 4.52828V9.90769C9.00815 10.086 8.9373 10.2571 8.8112 10.3832C8.68509 10.5093 8.51406 10.5801 8.33572 10.5801C8.15738 10.5801 7.98635 10.5093 7.86024 10.3832C7.73414 10.2571 7.66329 10.086 7.66329 9.90769V4.52828C7.66329 4.34995 7.73414 4.17891 7.86024 4.05281C7.98635 3.9267 8.15738 3.85586 8.33572 3.85586Z" fill="white"/>
</svg>
