<svg width="1920" height="1380" viewBox="0 0 1920 1380" fill="none" xmlns="http://www.w3.org/2000/svg">
<g clip-path="url(#clip0_6_5764)">
<rect width="1920" height="1380" fill="url(#paint0_linear_6_5764)"/>
<path d="M1897.73 0H22.2704C9.97082 0 0 10.4434 0 23.326V1056.67C0 1069.56 9.97082 1080 22.2704 1080H1897.73C1910.03 1080 1920 1069.56 1920 1056.67V23.326C1920 10.4434 1910.03 0 1897.73 0Z" fill="url(#paint0_linear_6_5764)"/>
<g opacity="0.4">
<mask id="mask0_6_5764" style="mask-type:luminance" maskUnits="userSpaceOnUse" x="31" y="-129" width="1901" height="1268">
<path d="M1931.58 -128.405H31.2158V1138.86H1931.58V-128.405Z" fill="white"/>
</mask>
<g mask="url(#mask0_6_5764)">
<g opacity="0.27">
<path d="M1839.07 1311.24C1834.49 1305.99 1553.99 921.198 1553.99 921.198L1500.12 1219.61L1839.07 1311.26V1311.24Z" stroke="#8E2DE2" stroke-width="0.756994" stroke-linecap="round" stroke-linejoin="round"/>
<path d="M1554.02 921.198L1364.94 1065.26L1500.15 1219.59L1554.02 921.198Z" stroke="#8E2DE2" stroke-width="0.756994" stroke-linecap="round" stroke-linejoin="round"/>
<path d="M1787.31 843.489L1554.02 921.198L1839.07 1311.24L1787.31 843.489Z" stroke="#8E2DE2" stroke-width="0.756994" stroke-linecap="round" stroke-linejoin="round"/>
<path d="M1616.3 698.108L1787.31 843.489L1554.02 921.198L1616.3 698.108Z" stroke="#8E2DE2" stroke-width="0.756994" stroke-linecap="round" stroke-linejoin="round"/>
<path d="M1465.74 695.573L1554.02 921.198L1364.94 1065.26L1465.74 695.573Z" stroke="#8E2DE2" stroke-width="0.756994" stroke-linecap="round" stroke-linejoin="round"/>
<path d="M937.082 1142.67C945.114 1142.59 1364.94 1065.26 1364.94 1065.26L1236.07 1273.65L937.057 1142.69L937.082 1142.67Z" stroke="#8E2DE2" stroke-width="0.756994" stroke-linecap="round" stroke-linejoin="round"/>
<path d="M1177.01 867.466L1364.94 1065.26L937.082 1142.67L1177.01 867.466Z" stroke="#8E2DE2" stroke-width="0.756994" stroke-linecap="round" stroke-linejoin="round"/>
<path d="M1787.31 843.489L2103.1 1056.49L1839.07 1311.24L1787.31 843.489Z" stroke="#8E2DE2" stroke-width="0.756994" stroke-linecap="round" stroke-linejoin="round"/>
<path d="M1465.74 695.573L1265.29 671.85L1364.94 1065.26L1465.74 695.573Z" stroke="#8E2DE2" stroke-width="0.756994" stroke-linecap="round" stroke-linejoin="round"/>
<path d="M2077.23 743.983L1864.54 690.403L1787.31 843.489L2077.23 743.983Z" stroke="#8E2DE2" stroke-width="0.756994" stroke-linecap="round" stroke-linejoin="round"/>
<path d="M1700.34 547.936L1864.54 690.403L1616.3 698.108L1700.34 547.936Z" stroke="#8E2DE2" stroke-width="0.756994" stroke-linecap="round" stroke-linejoin="round"/>
<path d="M1177.01 867.466L994.98 820.627L937.082 1142.67L1177.01 867.466Z" stroke="#8E2DE2" stroke-width="0.756994" stroke-linecap="round" stroke-linejoin="round"/>
<path d="M809.935 1084.83L937.082 1142.67L851.54 884.903L809.935 1084.83Z" stroke="#8E2DE2" stroke-width="0.756994" stroke-linecap="round" stroke-linejoin="round"/>
<path d="M2077.23 743.983L2103.1 1056.49L1787.31 843.489L2077.23 743.983Z" stroke="#8E2DE2" stroke-width="0.756994" stroke-linecap="round" stroke-linejoin="round"/>
<path d="M1177.01 867.466L1175.08 658.163L994.98 820.627L1177.01 867.466Z" stroke="#8E2DE2" stroke-width="0.756994" stroke-linecap="round" stroke-linejoin="round"/>
<path d="M2077.23 743.983L2044.69 563.042L1864.54 690.403L2077.23 743.983Z" stroke="#8E2DE2" stroke-width="0.756994" stroke-linecap="round" stroke-linejoin="round"/>
<path d="M1699.36 549.153C1699.94 549.812 1700.93 549.888 1701.59 549.305C1702.25 548.722 1702.32 547.734 1701.74 547.075C1701.16 546.416 1700.17 546.34 1699.51 546.923C1698.85 547.505 1698.77 548.494 1699.36 549.153Z" fill="#F9F5FF"/>
<path d="M1613.74 700.338C1614.98 701.758 1617.13 701.884 1618.55 700.668C1619.97 699.426 1620.1 697.271 1618.88 695.852C1617.64 694.433 1615.49 694.306 1614.07 695.523C1612.65 696.765 1612.52 698.919 1613.74 700.338Z" fill="#F9F5FF"/>
<path d="M1862.41 692.253C1863.45 693.419 1865.22 693.546 1866.41 692.507C1867.58 691.467 1867.7 689.693 1866.66 688.502C1865.63 687.336 1863.85 687.209 1862.66 688.249C1861.5 689.288 1861.37 691.062 1862.41 692.253Z" fill="#F9F5FF"/>
<path d="M1786.22 844.452C1786.8 845.111 1787.79 845.187 1788.45 844.604C1789.1 844.021 1789.18 843.033 1788.6 842.374C1788.02 841.715 1787.03 841.639 1786.37 842.222C1785.71 842.805 1785.63 843.793 1786.22 844.452Z" fill="#F9F5FF"/>
<path d="M1551.28 923.58C1552.6 925.101 1554.9 925.253 1556.4 923.91C1557.92 922.592 1558.07 920.286 1556.73 918.79C1555.41 917.269 1553.1 917.117 1551.61 918.461C1550.09 919.779 1549.94 922.085 1551.28 923.58Z" fill="#F9F5FF"/>
<path d="M1358.2 1070.58C1361.32 1074.16 1366.74 1074.51 1370.29 1071.39C1373.86 1068.28 1374.22 1062.85 1371.1 1059.3C1367.98 1055.73 1362.56 1055.38 1359.01 1058.49C1355.44 1061.61 1355.09 1067.04 1358.2 1070.58Z" fill="#F9F5FF"/>
<path d="M1461.91 698.919C1463.76 701.023 1466.98 701.251 1469.08 699.401C1471.19 697.55 1471.41 694.331 1469.56 692.228C1467.71 690.124 1464.5 689.896 1462.39 691.746C1460.29 693.596 1460.06 696.815 1461.91 698.919Z" fill="#F9F5FF"/>
<path d="M1174.93 869.291C1175.95 870.431 1177.67 870.558 1178.83 869.544C1180 868.53 1180.1 866.807 1179.09 865.641C1178.07 864.475 1176.35 864.374 1175.19 865.387C1174.04 866.401 1173.92 868.125 1174.93 869.291Z" fill="#F9F5FF"/>
<path d="M1264.25 673.193C1264.83 673.852 1265.82 673.928 1266.48 673.345C1267.14 672.762 1267.21 671.774 1266.63 671.115C1266.05 670.456 1265.06 670.38 1264.4 670.963C1263.74 671.546 1263.67 672.534 1264.25 673.193Z" fill="#F9F5FF"/>
<path d="M1173.84 659.456C1174.42 660.115 1175.41 660.191 1176.07 659.608C1176.73 659.025 1176.81 658.037 1176.22 657.378C1175.64 656.719 1174.65 656.643 1173.99 657.226C1173.34 657.809 1173.26 658.797 1173.84 659.456Z" fill="#F9F5FF"/>
<path d="M993.003 822.351C993.966 823.441 995.613 823.542 996.703 822.604C997.792 821.641 997.894 819.994 996.956 818.904C995.993 817.814 994.346 817.713 993.257 818.651C992.167 819.614 992.066 821.261 993.003 822.351Z" fill="#F9F5FF"/>
<path d="M850.603 886.247C851.186 886.906 852.174 886.982 852.832 886.399C853.491 885.816 853.567 884.828 852.985 884.169C852.402 883.51 851.414 883.434 850.755 884.016C850.096 884.599 850.02 885.588 850.603 886.247Z" fill="#E2C7FF"/>
</g>
<g opacity="0.27">
<path d="M-49.3594 -311.323C-44.2411 -306.583 274.818 46.8835 274.818 46.8835L297.293 -255.512L-49.3594 -311.298V-311.323Z" stroke="#8E2DE2" stroke-width="0.756994" stroke-linecap="round" stroke-linejoin="round"/>
<path d="M274.817 46.858L447.827 -116.113L297.292 -255.538L274.817 46.858Z" stroke="#8E2DE2" stroke-width="0.756994" stroke-linecap="round" stroke-linejoin="round"/>
<path d="M50.9039 148.468L274.818 46.8581L-49.3594 -311.323L50.9039 148.468Z" stroke="#8E2DE2" stroke-width="0.756994" stroke-linecap="round" stroke-linejoin="round"/>
<path d="M236.126 275.22L50.9038 148.468L274.818 46.8582L236.126 275.22Z" stroke="#8E2DE2" stroke-width="0.756994" stroke-linecap="round" stroke-linejoin="round"/>
<path d="M386.128 262.04L274.817 46.858L447.827 -116.113L386.128 262.04Z" stroke="#8E2DE2" stroke-width="0.756994" stroke-linecap="round" stroke-linejoin="round"/>
<path d="M655.347 61.0007L447.827 -116.113L865.299 -237.745L655.347 61.0007Z" stroke="#8E2DE2" stroke-width="0.756994" stroke-linecap="round" stroke-linejoin="round"/>
<path d="M50.9039 148.468L-285.385 -30.4453L-49.3594 -311.323L50.9039 148.468Z" stroke="#8E2DE2" stroke-width="0.756994" stroke-linecap="round" stroke-linejoin="round"/>
<path d="M386.128 262.04L587.947 264.752L447.827 -116.113L386.128 262.04Z" stroke="#8E2DE2" stroke-width="0.756994" stroke-linecap="round" stroke-linejoin="round"/>
<path d="M-227.082 277.653L-9.95845 308.777L50.9039 148.468L-227.082 277.653Z" stroke="#8E2DE2" stroke-width="0.756994" stroke-linecap="round" stroke-linejoin="round"/>
<path d="M168.169 433.35L-9.9585 308.777L236.126 275.22L168.169 433.35Z" stroke="#8E2DE2" stroke-width="0.756994" stroke-linecap="round" stroke-linejoin="round"/>
<path d="M655.347 61.0007L841.279 88.5765L865.299 -237.745L655.347 61.0007Z" stroke="#8E2DE2" stroke-width="0.756994" stroke-linecap="round" stroke-linejoin="round"/>
<path d="M997.792 -193.492L865.299 -237.745L977.243 9.70168L997.792 -193.492Z" stroke="#8E2DE2" stroke-width="0.756994" stroke-linecap="round" stroke-linejoin="round"/>
<path d="M-227.082 277.653L-285.385 -30.4453L50.9039 148.468L-227.082 277.653Z" stroke="#8E2DE2" stroke-width="0.756994" stroke-linecap="round" stroke-linejoin="round"/>
<path d="M655.347 61.0007L679.114 268.96L841.279 88.5765L655.347 61.0007Z" stroke="#8E2DE2" stroke-width="0.756994" stroke-linecap="round" stroke-linejoin="round"/>
<path d="M169.03 432.032C168.397 431.424 167.383 431.474 166.775 432.108C166.167 432.742 166.218 433.756 166.851 434.364C167.485 434.972 168.498 434.921 169.106 434.288C169.714 433.654 169.664 432.64 169.03 432.032Z" fill="#F9F5FF"/>
<path d="M238.432 272.736C237.064 271.469 234.91 271.545 233.618 272.914C232.351 274.282 232.427 276.437 233.795 277.729C235.163 278.997 237.317 278.921 238.609 277.552C239.876 276.183 239.8 274.029 238.432 272.736Z" fill="#F9F5FF"/>
<path d="M51.8919 147.403C51.2584 146.795 50.2449 146.846 49.6368 147.479C49.0287 148.113 49.0794 149.127 49.7128 149.735C50.3463 150.343 51.3598 150.293 51.9679 149.659C52.576 149.025 52.5254 148.012 51.8919 147.403Z" fill="#F9F5FF"/>
<path d="M277.275 44.1969C275.805 42.8283 273.5 42.9296 272.131 44.3996C270.763 45.8697 270.865 48.1761 272.334 49.5447C273.804 50.9134 276.11 50.8121 277.478 49.342C278.846 47.872 278.745 45.5656 277.275 44.1969Z" fill="#F9F5FF"/>
<path d="M389.574 258.315C387.522 256.414 384.304 256.541 382.378 258.594C380.478 260.647 380.604 263.865 382.657 265.792C384.709 267.718 387.927 267.566 389.853 265.513C391.753 263.46 391.626 260.241 389.574 258.315Z" fill="#F9F5FF"/>
<path d="M657.222 58.9731C656.107 57.934 654.358 58.01 653.32 59.1252C652.281 60.2404 652.357 61.9892 653.472 63.0284C654.587 64.0676 656.335 63.9915 657.374 62.8763C658.413 61.7611 658.337 60.0123 657.222 58.9731Z" fill="#F9F5FF"/>
<path d="M588.834 263.308C588.2 262.7 587.187 262.75 586.579 263.384C585.971 264.017 586.021 265.031 586.655 265.64C587.288 266.248 588.302 266.197 588.91 265.564C589.518 264.93 589.467 263.916 588.834 263.308Z" fill="#F9F5FF"/>
<path d="M680.178 267.54C679.544 266.932 678.531 266.983 677.923 267.616C677.315 268.25 677.365 269.264 677.999 269.872C678.632 270.48 679.646 270.43 680.254 269.796C680.862 269.162 680.811 268.149 680.178 267.54Z" fill="#F9F5FF"/>
<path d="M843.052 86.6757C841.988 85.6872 840.341 85.7633 839.352 86.8278C838.364 87.8923 838.44 89.5398 839.505 90.5282C840.569 91.5167 842.216 91.4407 843.204 90.3762C844.192 89.3117 844.116 87.6642 843.052 86.6757Z" fill="#F9F5FF"/>
<path d="M978.029 8.25692C977.395 7.64863 976.382 7.69932 975.774 8.33295C975.166 8.96659 975.216 9.9804 975.85 10.5887C976.483 11.197 977.497 11.1463 978.105 10.5127C978.713 9.87902 978.662 8.86521 978.029 8.25692Z" fill="#E2C7FF"/>
</g>
</g>
<g opacity="0.49">
<mask id="mask1_6_5764" style="mask-type:luminance" maskUnits="userSpaceOnUse" x="31" y="-129" width="1901" height="1268">
<path d="M1931.58 -128.405H31.2158V1138.86H1931.58V-128.405Z" fill="white"/>
</mask>
<g mask="url(#mask1_6_5764)">
<g style="mix-blend-mode:overlay" opacity="0.22">
<path d="M61.5962 97.7007C63.0936 97.7007 64.3074 96.4865 64.3074 94.9888C64.3074 93.491 63.0936 92.2769 61.5962 92.2769C60.0989 92.2769 58.885 93.491 58.885 94.9888C58.885 96.4865 60.0989 97.7007 61.5962 97.7007Z" fill="#F9F5FF"/>
<path d="M184.081 97.7007C185.578 97.7007 186.792 96.4865 186.792 94.9888C186.792 93.491 185.578 92.2769 184.081 92.2769C182.584 92.2769 181.37 93.491 181.37 94.9888C181.37 96.4865 182.584 97.7007 184.081 97.7007Z" fill="#F9F5FF"/>
<path d="M309.277 94.9888C309.277 96.4841 308.061 97.7007 306.566 97.7007C305.071 97.7007 303.855 96.4841 303.855 94.9888C303.855 93.4934 305.071 92.2769 306.566 92.2769C308.061 92.2769 309.277 93.4934 309.277 94.9888Z" fill="#F9F5FF"/>
<path d="M431.762 94.9888C431.762 96.4841 430.546 97.7007 429.051 97.7007C427.556 97.7007 426.34 96.4841 426.34 94.9888C426.34 93.4934 427.556 92.2769 429.051 92.2769C430.546 92.2769 431.762 93.4934 431.762 94.9888Z" fill="#F9F5FF"/>
<path d="M551.536 97.7007C553.033 97.7007 554.247 96.4865 554.247 94.9888C554.247 93.491 553.033 92.2769 551.536 92.2769C550.038 92.2769 548.824 93.491 548.824 94.9888C548.824 96.4865 550.038 97.7007 551.536 97.7007Z" fill="#F9F5FF"/>
<path d="M674.021 97.7007C675.518 97.7007 676.732 96.4865 676.732 94.9888C676.732 93.491 675.518 92.2769 674.021 92.2769C672.523 92.2769 671.31 93.491 671.31 94.9888C671.31 96.4865 672.523 97.7007 674.021 97.7007Z" fill="#F9F5FF"/>
<path d="M796.506 97.7007C798.003 97.7007 799.217 96.4865 799.217 94.9888C799.217 93.491 798.003 92.2769 796.506 92.2769C795.008 92.2769 793.794 93.491 793.794 94.9888C793.794 96.4865 795.008 97.7007 796.506 97.7007Z" fill="#F9F5FF"/>
<path d="M918.991 97.7007C920.488 97.7007 921.702 96.4865 921.702 94.9888C921.702 93.491 920.488 92.2769 918.991 92.2769C917.493 92.2769 916.279 93.491 916.279 94.9888C916.279 96.4865 917.493 97.7007 918.991 97.7007Z" fill="#F9F5FF"/>
<path d="M1044.19 94.9888C1044.19 96.4841 1042.97 97.7007 1041.48 97.7007C1039.98 97.7007 1038.76 96.4841 1038.76 94.9888C1038.76 93.4934 1039.98 92.2769 1041.48 92.2769C1042.97 92.2769 1044.19 93.4934 1044.19 94.9888Z" fill="#F9F5FF"/>
<path d="M1163.96 97.7007C1165.46 97.7007 1166.67 96.4865 1166.67 94.9888C1166.67 93.491 1165.46 92.2769 1163.96 92.2769C1162.46 92.2769 1161.25 93.491 1161.25 94.9888C1161.25 96.4865 1162.46 97.7007 1163.96 97.7007Z" fill="#F9F5FF"/>
<path d="M1286.45 97.7007C1287.94 97.7007 1289.16 96.4865 1289.16 94.9888C1289.16 93.491 1287.94 92.2769 1286.45 92.2769C1284.95 92.2769 1283.73 93.491 1283.73 94.9888C1283.73 96.4865 1284.95 97.7007 1286.45 97.7007Z" fill="#F9F5FF"/>
<path d="M1408.93 97.7007C1410.43 97.7007 1411.64 96.4865 1411.64 94.9888C1411.64 93.491 1410.43 92.2769 1408.93 92.2769C1407.43 92.2769 1406.22 93.491 1406.22 94.9888C1406.22 96.4865 1407.43 97.7007 1408.93 97.7007Z" fill="#F9F5FF"/>
<path d="M1531.41 97.7007C1532.91 97.7007 1534.13 96.4865 1534.13 94.9888C1534.13 93.491 1532.91 92.2769 1531.41 92.2769C1529.92 92.2769 1528.7 93.491 1528.7 94.9888C1528.7 96.4865 1529.92 97.7007 1531.41 97.7007Z" fill="#F9F5FF"/>
<path d="M1653.9 97.7007C1655.4 97.7007 1656.61 96.4865 1656.61 94.9888C1656.61 93.491 1655.4 92.2769 1653.9 92.2769C1652.4 92.2769 1651.19 93.491 1651.19 94.9888C1651.19 96.4865 1652.4 97.7007 1653.9 97.7007Z" fill="#F9F5FF"/>
<path d="M1779.1 94.9888C1779.1 96.4841 1777.88 97.7007 1776.38 97.7007C1774.89 97.7007 1773.67 96.4841 1773.67 94.9888C1773.67 93.4934 1774.89 92.2769 1776.38 92.2769C1777.88 92.2769 1779.1 93.4934 1779.1 94.9888Z" fill="#F9F5FF"/>
<path d="M1898.87 97.7007C1900.37 97.7007 1901.58 96.4865 1901.58 94.9888C1901.58 93.491 1900.37 92.2769 1898.87 92.2769C1897.37 92.2769 1896.16 93.491 1896.16 94.9888C1896.16 96.4865 1897.37 97.7007 1898.87 97.7007Z" fill="#F9F5FF"/>
<path d="M61.5962 214.644C63.0936 214.644 64.3074 213.43 64.3074 211.932C64.3074 210.435 63.0936 209.22 61.5962 209.22C60.0989 209.22 58.885 210.435 58.885 211.932C58.885 213.43 60.0989 214.644 61.5962 214.644Z" fill="#F9F5FF"/>
<path d="M184.081 214.644C185.578 214.644 186.792 213.43 186.792 211.932C186.792 210.435 185.578 209.22 184.081 209.22C182.584 209.22 181.37 210.435 181.37 211.932C181.37 213.43 182.584 214.644 184.081 214.644Z" fill="#F9F5FF"/>
<path d="M309.277 211.932C309.277 213.428 308.061 214.644 306.566 214.644C305.071 214.644 303.855 213.428 303.855 211.932C303.855 210.437 305.071 209.22 306.566 209.22C308.061 209.22 309.277 210.437 309.277 211.932Z" fill="#F9F5FF"/>
<path d="M431.762 211.932C431.762 213.428 430.546 214.644 429.051 214.644C427.556 214.644 426.34 213.428 426.34 211.932C426.34 210.437 427.556 209.22 429.051 209.22C430.546 209.22 431.762 210.437 431.762 211.932Z" fill="#F9F5FF"/>
<path d="M551.536 214.644C553.033 214.644 554.247 213.43 554.247 211.932C554.247 210.435 553.033 209.22 551.536 209.22C550.038 209.22 548.824 210.435 548.824 211.932C548.824 213.43 550.038 214.644 551.536 214.644Z" fill="#F9F5FF"/>
<path d="M674.021 214.644C675.518 214.644 676.732 213.43 676.732 211.932C676.732 210.435 675.518 209.22 674.021 209.22C672.523 209.22 671.31 210.435 671.31 211.932C671.31 213.43 672.523 214.644 674.021 214.644Z" fill="#F9F5FF"/>
<path d="M796.506 214.644C798.003 214.644 799.217 213.43 799.217 211.932C799.217 210.435 798.003 209.22 796.506 209.22C795.008 209.22 793.794 210.435 793.794 211.932C793.794 213.43 795.008 214.644 796.506 214.644Z" fill="#F9F5FF"/>
<path d="M918.991 214.644C920.488 214.644 921.702 213.43 921.702 211.932C921.702 210.435 920.488 209.22 918.991 209.22C917.493 209.22 916.279 210.435 916.279 211.932C916.279 213.43 917.493 214.644 918.991 214.644Z" fill="#F9F5FF"/>
<path d="M1044.19 211.932C1044.19 213.428 1042.97 214.644 1041.48 214.644C1039.98 214.644 1038.76 213.428 1038.76 211.932C1038.76 210.437 1039.98 209.22 1041.48 209.22C1042.97 209.22 1044.19 210.437 1044.19 211.932Z" fill="#F9F5FF"/>
<path d="M1163.96 214.644C1165.46 214.644 1166.67 213.43 1166.67 211.932C1166.67 210.435 1165.46 209.22 1163.96 209.22C1162.46 209.22 1161.25 210.435 1161.25 211.932C1161.25 213.43 1162.46 214.644 1163.96 214.644Z" fill="#F9F5FF"/>
<path d="M1286.45 214.644C1287.94 214.644 1289.16 213.43 1289.16 211.932C1289.16 210.435 1287.94 209.22 1286.45 209.22C1284.95 209.22 1283.73 210.435 1283.73 211.932C1283.73 213.43 1284.95 214.644 1286.45 214.644Z" fill="#F9F5FF"/>
<path d="M1408.93 214.644C1410.43 214.644 1411.64 213.43 1411.64 211.932C1411.64 210.435 1410.43 209.22 1408.93 209.22C1407.43 209.22 1406.22 210.435 1406.22 211.932C1406.22 213.43 1407.43 214.644 1408.93 214.644Z" fill="#F9F5FF"/>
<path d="M1531.41 214.644C1532.91 214.644 1534.13 213.43 1534.13 211.932C1534.13 210.435 1532.91 209.22 1531.41 209.22C1529.92 209.22 1528.7 210.435 1528.7 211.932C1528.7 213.43 1529.92 214.644 1531.41 214.644Z" fill="#F9F5FF"/>
<path d="M1653.9 214.644C1655.4 214.644 1656.61 213.43 1656.61 211.932C1656.61 210.435 1655.4 209.22 1653.9 209.22C1652.4 209.22 1651.19 210.435 1651.19 211.932C1651.19 213.43 1652.4 214.644 1653.9 214.644Z" fill="#F9F5FF"/>
<path d="M1779.1 211.932C1779.1 213.428 1777.88 214.644 1776.38 214.644C1774.89 214.644 1773.67 213.428 1773.67 211.932C1773.67 210.437 1774.89 209.22 1776.38 209.22C1777.88 209.22 1779.1 210.437 1779.1 211.932Z" fill="#F9F5FF"/>
<path d="M1898.87 214.644C1900.37 214.644 1901.58 213.43 1901.58 211.932C1901.58 210.435 1900.37 209.22 1898.87 209.22C1897.37 209.22 1896.16 210.435 1896.16 211.932C1896.16 213.43 1897.37 214.644 1898.87 214.644Z" fill="#F9F5FF"/>
<path d="M61.5962 331.588C63.0936 331.588 64.3074 330.374 64.3074 328.876C64.3074 327.378 63.0936 326.164 61.5962 326.164C60.0989 326.164 58.885 327.378 58.885 328.876C58.885 330.374 60.0989 331.588 61.5962 331.588Z" fill="#F9F5FF"/>
<path d="M184.081 331.588C185.578 331.588 186.792 330.374 186.792 328.876C186.792 327.378 185.578 326.164 184.081 326.164C182.584 326.164 181.37 327.378 181.37 328.876C181.37 330.374 182.584 331.588 184.081 331.588Z" fill="#F9F5FF"/>
<path d="M309.277 328.876C309.277 330.371 308.061 331.588 306.566 331.588C305.071 331.588 303.855 330.371 303.855 328.876C303.855 327.381 305.071 326.164 306.566 326.164C308.061 326.164 309.277 327.381 309.277 328.876Z" fill="#F9F5FF"/>
<path d="M431.762 328.876C431.762 330.371 430.546 331.588 429.051 331.588C427.556 331.588 426.34 330.371 426.34 328.876C426.34 327.381 427.556 326.164 429.051 326.164C430.546 326.164 431.762 327.381 431.762 328.876Z" fill="#F9F5FF"/>
<path d="M551.536 331.588C553.033 331.588 554.247 330.374 554.247 328.876C554.247 327.378 553.033 326.164 551.536 326.164C550.038 326.164 548.824 327.378 548.824 328.876C548.824 330.374 550.038 331.588 551.536 331.588Z" fill="#F9F5FF"/>
<path d="M674.021 331.588C675.518 331.588 676.732 330.374 676.732 328.876C676.732 327.378 675.518 326.164 674.021 326.164C672.523 326.164 671.31 327.378 671.31 328.876C671.31 330.374 672.523 331.588 674.021 331.588Z" fill="#F9F5FF"/>
<path d="M796.506 331.588C798.003 331.588 799.217 330.374 799.217 328.876C799.217 327.378 798.003 326.164 796.506 326.164C795.008 326.164 793.794 327.378 793.794 328.876C793.794 330.374 795.008 331.588 796.506 331.588Z" fill="#F9F5FF"/>
<path d="M918.991 331.588C920.488 331.588 921.702 330.374 921.702 328.876C921.702 327.378 920.488 326.164 918.991 326.164C917.493 326.164 916.279 327.378 916.279 328.876C916.279 330.374 917.493 331.588 918.991 331.588Z" fill="#F9F5FF"/>
<path d="M1044.19 328.876C1044.19 330.371 1042.97 331.588 1041.48 331.588C1039.98 331.588 1038.76 330.371 1038.76 328.876C1038.76 327.381 1039.98 326.164 1041.48 326.164C1042.97 326.164 1044.19 327.381 1044.19 328.876Z" fill="#F9F5FF"/>
<path d="M1163.96 331.588C1165.46 331.588 1166.67 330.374 1166.67 328.876C1166.67 327.378 1165.46 326.164 1163.96 326.164C1162.46 326.164 1161.25 327.378 1161.25 328.876C1161.25 330.374 1162.46 331.588 1163.96 331.588Z" fill="#F9F5FF"/>
<path d="M1286.45 331.588C1287.94 331.588 1289.16 330.374 1289.16 328.876C1289.16 327.378 1287.94 326.164 1286.45 326.164C1284.95 326.164 1283.73 327.378 1283.73 328.876C1283.73 330.374 1284.95 331.588 1286.45 331.588Z" fill="#F9F5FF"/>
<path d="M1408.93 331.588C1410.43 331.588 1411.64 330.374 1411.64 328.876C1411.64 327.378 1410.43 326.164 1408.93 326.164C1407.43 326.164 1406.22 327.378 1406.22 328.876C1406.22 330.374 1407.43 331.588 1408.93 331.588Z" fill="#F9F5FF"/>
<path d="M1531.41 331.588C1532.91 331.588 1534.13 330.374 1534.13 328.876C1534.13 327.378 1532.91 326.164 1531.41 326.164C1529.92 326.164 1528.7 327.378 1528.7 328.876C1528.7 330.374 1529.92 331.588 1531.41 331.588Z" fill="#F9F5FF"/>
<path d="M1653.9 331.588C1655.4 331.588 1656.61 330.374 1656.61 328.876C1656.61 327.378 1655.4 326.164 1653.9 326.164C1652.4 326.164 1651.19 327.378 1651.19 328.876C1651.19 330.374 1652.4 331.588 1653.9 331.588Z" fill="#F9F5FF"/>
<path d="M1779.1 328.876C1779.1 330.371 1777.88 331.588 1776.38 331.588C1774.89 331.588 1773.67 330.371 1773.67 328.876C1773.67 327.381 1774.89 326.164 1776.38 326.164C1777.88 326.164 1779.1 327.381 1779.1 328.876Z" fill="#F9F5FF"/>
<path d="M1898.87 331.588C1900.37 331.588 1901.58 330.374 1901.58 328.876C1901.58 327.378 1900.37 326.164 1898.87 326.164C1897.37 326.164 1896.16 327.378 1896.16 328.876C1896.16 330.374 1897.37 331.588 1898.87 331.588Z" fill="#F9F5FF"/>
<path d="M61.5962 448.557C63.0936 448.557 64.3074 447.343 64.3074 445.845C64.3074 444.347 63.0936 443.133 61.5962 443.133C60.0989 443.133 58.885 444.347 58.885 445.845C58.885 447.343 60.0989 448.557 61.5962 448.557Z" fill="#F9F5FF"/>
<path d="M184.081 448.557C185.578 448.557 186.792 447.343 186.792 445.845C186.792 444.347 185.578 443.133 184.081 443.133C182.584 443.133 181.37 444.347 181.37 445.845C181.37 447.343 182.584 448.557 184.081 448.557Z" fill="#F9F5FF"/>
<path d="M309.277 445.845C309.277 447.341 308.061 448.557 306.566 448.557C305.071 448.557 303.855 447.341 303.855 445.845C303.855 444.35 305.071 443.133 306.566 443.133C308.061 443.133 309.277 444.35 309.277 445.845Z" fill="#F9F5FF"/>
<path d="M431.762 445.845C431.762 447.341 430.546 448.557 429.051 448.557C427.556 448.557 426.34 447.341 426.34 445.845C426.34 444.35 427.556 443.133 429.051 443.133C430.546 443.133 431.762 444.35 431.762 445.845Z" fill="#F9F5FF"/>
<path d="M551.536 448.557C553.033 448.557 554.247 447.343 554.247 445.845C554.247 444.347 553.033 443.133 551.536 443.133C550.038 443.133 548.824 444.347 548.824 445.845C548.824 447.343 550.038 448.557 551.536 448.557Z" fill="#F9F5FF"/>
<path d="M674.021 448.557C675.518 448.557 676.732 447.343 676.732 445.845C676.732 444.347 675.518 443.133 674.021 443.133C672.523 443.133 671.31 444.347 671.31 445.845C671.31 447.343 672.523 448.557 674.021 448.557Z" fill="#F9F5FF"/>
<path d="M796.506 448.557C798.003 448.557 799.217 447.343 799.217 445.845C799.217 444.347 798.003 443.133 796.506 443.133C795.008 443.133 793.794 444.347 793.794 445.845C793.794 447.343 795.008 448.557 796.506 448.557Z" fill="#F9F5FF"/>
<path d="M918.991 448.557C920.488 448.557 921.702 447.343 921.702 445.845C921.702 444.347 920.488 443.133 918.991 443.133C917.493 443.133 916.279 444.347 916.279 445.845C916.279 447.343 917.493 448.557 918.991 448.557Z" fill="#F9F5FF"/>
<path d="M1044.19 445.845C1044.19 447.341 1042.97 448.557 1041.48 448.557C1039.98 448.557 1038.76 447.341 1038.76 445.845C1038.76 444.35 1039.98 443.133 1041.48 443.133C1042.97 443.133 1044.19 444.35 1044.19 445.845Z" fill="#F9F5FF"/>
<path d="M1163.96 448.557C1165.46 448.557 1166.67 447.343 1166.67 445.845C1166.67 444.347 1165.46 443.133 1163.96 443.133C1162.46 443.133 1161.25 444.347 1161.25 445.845C1161.25 447.343 1162.46 448.557 1163.96 448.557Z" fill="#F9F5FF"/>
<path d="M1286.45 448.557C1287.94 448.557 1289.16 447.343 1289.16 445.845C1289.16 444.347 1287.94 443.133 1286.45 443.133C1284.95 443.133 1283.73 444.347 1283.73 445.845C1283.73 447.343 1284.95 448.557 1286.45 448.557Z" fill="#F9F5FF"/>
<path d="M1408.93 448.557C1410.43 448.557 1411.64 447.343 1411.64 445.845C1411.64 444.347 1410.43 443.133 1408.93 443.133C1407.43 443.133 1406.22 444.347 1406.22 445.845C1406.22 447.343 1407.43 448.557 1408.93 448.557Z" fill="#F9F5FF"/>
<path d="M1531.41 448.557C1532.91 448.557 1534.13 447.343 1534.13 445.845C1534.13 444.347 1532.91 443.133 1531.41 443.133C1529.92 443.133 1528.7 444.347 1528.7 445.845C1528.7 447.343 1529.92 448.557 1531.41 448.557Z" fill="#F9F5FF"/>
<path d="M1653.9 448.557C1655.4 448.557 1656.61 447.343 1656.61 445.845C1656.61 444.347 1655.4 443.133 1653.9 443.133C1652.4 443.133 1651.19 444.347 1651.19 445.845C1651.19 447.343 1652.4 448.557 1653.9 448.557Z" fill="#F9F5FF"/>
<path d="M1779.1 445.845C1779.1 447.341 1777.88 448.557 1776.38 448.557C1774.89 448.557 1773.67 447.341 1773.67 445.845C1773.67 444.35 1774.89 443.133 1776.38 443.133C1777.88 443.133 1779.1 444.35 1779.1 445.845Z" fill="#F9F5FF"/>
<path d="M1898.87 448.557C1900.37 448.557 1901.58 447.343 1901.58 445.845C1901.58 444.347 1900.37 443.133 1898.87 443.133C1897.37 443.133 1896.16 444.347 1896.16 445.845C1896.16 447.343 1897.37 448.557 1898.87 448.557Z" fill="#F9F5FF"/>
<path d="M61.5962 565.501C63.0936 565.501 64.3074 564.287 64.3074 562.789C64.3074 561.291 63.0936 560.077 61.5962 560.077C60.0989 560.077 58.885 561.291 58.885 562.789C58.885 564.287 60.0989 565.501 61.5962 565.501Z" fill="#F9F5FF"/>
<path d="M184.081 565.501C185.578 565.501 186.792 564.287 186.792 562.789C186.792 561.291 185.578 560.077 184.081 560.077C182.584 560.077 181.37 561.291 181.37 562.789C181.37 564.287 182.584 565.501 184.081 565.501Z" fill="#F9F5FF"/>
<path d="M309.277 562.789C309.277 564.284 308.061 565.501 306.566 565.501C305.071 565.501 303.855 564.284 303.855 562.789C303.855 561.293 305.071 560.077 306.566 560.077C308.061 560.077 309.277 561.293 309.277 562.789Z" fill="#F9F5FF"/>
<path d="M431.762 562.789C431.762 564.284 430.546 565.501 429.051 565.501C427.556 565.501 426.34 564.284 426.34 562.789C426.34 561.293 427.556 560.077 429.051 560.077C430.546 560.077 431.762 561.293 431.762 562.789Z" fill="#F9F5FF"/>
<path d="M551.536 565.501C553.033 565.501 554.247 564.287 554.247 562.789C554.247 561.291 553.033 560.077 551.536 560.077C550.038 560.077 548.824 561.291 548.824 562.789C548.824 564.287 550.038 565.501 551.536 565.501Z" fill="#F9F5FF"/>
<path d="M674.021 565.501C675.518 565.501 676.732 564.287 676.732 562.789C676.732 561.291 675.518 560.077 674.021 560.077C672.523 560.077 671.31 561.291 671.31 562.789C671.31 564.287 672.523 565.501 674.021 565.501Z" fill="#F9F5FF"/>
<path d="M796.506 565.501C798.003 565.501 799.217 564.287 799.217 562.789C799.217 561.291 798.003 560.077 796.506 560.077C795.008 560.077 793.794 561.291 793.794 562.789C793.794 564.287 795.008 565.501 796.506 565.501Z" fill="#F9F5FF"/>
<path d="M918.991 565.501C920.488 565.501 921.702 564.287 921.702 562.789C921.702 561.291 920.488 560.077 918.991 560.077C917.493 560.077 916.279 561.291 916.279 562.789C916.279 564.287 917.493 565.501 918.991 565.501Z" fill="#F9F5FF"/>
<path d="M1044.19 562.789C1044.19 564.284 1042.97 565.501 1041.48 565.501C1039.98 565.501 1038.76 564.284 1038.76 562.789C1038.76 561.293 1039.98 560.077 1041.48 560.077C1042.97 560.077 1044.19 561.293 1044.19 562.789Z" fill="#F9F5FF"/>
<path d="M1163.96 565.501C1165.46 565.501 1166.67 564.287 1166.67 562.789C1166.67 561.291 1165.46 560.077 1163.96 560.077C1162.46 560.077 1161.25 561.291 1161.25 562.789C1161.25 564.287 1162.46 565.501 1163.96 565.501Z" fill="#F9F5FF"/>
<path d="M1286.45 565.501C1287.94 565.501 1289.16 564.287 1289.16 562.789C1289.16 561.291 1287.94 560.077 1286.45 560.077C1284.95 560.077 1283.73 561.291 1283.73 562.789C1283.73 564.287 1284.95 565.501 1286.45 565.501Z" fill="#F9F5FF"/>
<path d="M1408.93 565.501C1410.43 565.501 1411.64 564.287 1411.64 562.789C1411.64 561.291 1410.43 560.077 1408.93 560.077C1407.43 560.077 1406.22 561.291 1406.22 562.789C1406.22 564.287 1407.43 565.501 1408.93 565.501Z" fill="#F9F5FF"/>
<path d="M1531.41 565.501C1532.91 565.501 1534.13 564.287 1534.13 562.789C1534.13 561.291 1532.91 560.077 1531.41 560.077C1529.92 560.077 1528.7 561.291 1528.7 562.789C1528.7 564.287 1529.92 565.501 1531.41 565.501Z" fill="#F9F5FF"/>
<path d="M1653.9 565.501C1655.4 565.501 1656.61 564.287 1656.61 562.789C1656.61 561.291 1655.4 560.077 1653.9 560.077C1652.4 560.077 1651.19 561.291 1651.19 562.789C1651.19 564.287 1652.4 565.501 1653.9 565.501Z" fill="#F9F5FF"/>
<path d="M1779.1 562.789C1779.1 564.284 1777.88 565.501 1776.38 565.501C1774.89 565.501 1773.67 564.284 1773.67 562.789C1773.67 561.293 1774.89 560.077 1776.38 560.077C1777.88 560.077 1779.1 561.293 1779.1 562.789Z" fill="#F9F5FF"/>
<path d="M1898.87 565.501C1900.37 565.501 1901.58 564.287 1901.58 562.789C1901.58 561.291 1900.37 560.077 1898.87 560.077C1897.37 560.077 1896.16 561.291 1896.16 562.789C1896.16 564.287 1897.37 565.501 1898.87 565.501Z" fill="#F9F5FF"/>
<path d="M61.5962 682.444C63.0936 682.444 64.3074 681.23 64.3074 679.732C64.3074 678.235 63.0936 677.021 61.5962 677.021C60.0989 677.021 58.885 678.235 58.885 679.732C58.885 681.23 60.0989 682.444 61.5962 682.444Z" fill="#F9F5FF"/>
<path d="M184.081 682.444C185.578 682.444 186.792 681.23 186.792 679.732C186.792 678.235 185.578 677.021 184.081 677.021C182.584 677.021 181.37 678.235 181.37 679.732C181.37 681.23 182.584 682.444 184.081 682.444Z" fill="#F9F5FF"/>
<path d="M309.277 679.732C309.277 681.228 308.061 682.444 306.566 682.444C305.071 682.444 303.855 681.228 303.855 679.732C303.855 678.237 305.071 677.021 306.566 677.021C308.061 677.021 309.277 678.237 309.277 679.732Z" fill="#F9F5FF"/>
<path d="M431.762 679.732C431.762 681.228 430.546 682.444 429.051 682.444C427.556 682.444 426.34 681.228 426.34 679.732C426.34 678.237 427.556 677.021 429.051 677.021C430.546 677.021 431.762 678.237 431.762 679.732Z" fill="#F9F5FF"/>
<path d="M551.536 682.444C553.033 682.444 554.247 681.23 554.247 679.732C554.247 678.235 553.033 677.021 551.536 677.021C550.038 677.021 548.824 678.235 548.824 679.732C548.824 681.23 550.038 682.444 551.536 682.444Z" fill="#F9F5FF"/>
<path d="M674.021 682.444C675.518 682.444 676.732 681.23 676.732 679.732C676.732 678.235 675.518 677.021 674.021 677.021C672.523 677.021 671.31 678.235 671.31 679.732C671.31 681.23 672.523 682.444 674.021 682.444Z" fill="#F9F5FF"/>
<path d="M796.506 682.444C798.003 682.444 799.217 681.23 799.217 679.732C799.217 678.235 798.003 677.021 796.506 677.021C795.008 677.021 793.794 678.235 793.794 679.732C793.794 681.23 795.008 682.444 796.506 682.444Z" fill="#F9F5FF"/>
<path d="M918.991 682.444C920.488 682.444 921.702 681.23 921.702 679.732C921.702 678.235 920.488 677.021 918.991 677.021C917.493 677.021 916.279 678.235 916.279 679.732C916.279 681.23 917.493 682.444 918.991 682.444Z" fill="#F9F5FF"/>
<path d="M1044.19 679.732C1044.19 681.228 1042.97 682.444 1041.48 682.444C1039.98 682.444 1038.76 681.228 1038.76 679.732C1038.76 678.237 1039.98 677.021 1041.48 677.021C1042.97 677.021 1044.19 678.237 1044.19 679.732Z" fill="#F9F5FF"/>
<path d="M1163.96 682.444C1165.46 682.444 1166.67 681.23 1166.67 679.732C1166.67 678.235 1165.46 677.021 1163.96 677.021C1162.46 677.021 1161.25 678.235 1161.25 679.732C1161.25 681.23 1162.46 682.444 1163.96 682.444Z" fill="#F9F5FF"/>
<path d="M1286.45 682.444C1287.94 682.444 1289.16 681.23 1289.16 679.732C1289.16 678.235 1287.94 677.021 1286.45 677.021C1284.95 677.021 1283.73 678.235 1283.73 679.732C1283.73 681.23 1284.95 682.444 1286.45 682.444Z" fill="#F9F5FF"/>
<path d="M1408.93 682.444C1410.43 682.444 1411.64 681.23 1411.64 679.732C1411.64 678.235 1410.43 677.021 1408.93 677.021C1407.43 677.021 1406.22 678.235 1406.22 679.732C1406.22 681.23 1407.43 682.444 1408.93 682.444Z" fill="#F9F5FF"/>
<path d="M1531.41 682.444C1532.91 682.444 1534.13 681.23 1534.13 679.732C1534.13 678.235 1532.91 677.021 1531.41 677.021C1529.92 677.021 1528.7 678.235 1528.7 679.732C1528.7 681.23 1529.92 682.444 1531.41 682.444Z" fill="#F9F5FF"/>
<path d="M1653.9 682.444C1655.4 682.444 1656.61 681.23 1656.61 679.732C1656.61 678.235 1655.4 677.021 1653.9 677.021C1652.4 677.021 1651.19 678.235 1651.19 679.732C1651.19 681.23 1652.4 682.444 1653.9 682.444Z" fill="#F9F5FF"/>
<path d="M1779.1 679.732C1779.1 681.228 1777.88 682.444 1776.38 682.444C1774.89 682.444 1773.67 681.228 1773.67 679.732C1773.67 678.237 1774.89 677.021 1776.38 677.021C1777.88 677.021 1779.1 678.237 1779.1 679.732Z" fill="#F9F5FF"/>
<path d="M1898.87 682.444C1900.37 682.444 1901.58 681.23 1901.58 679.732C1901.58 678.235 1900.37 677.021 1898.87 677.021C1897.37 677.021 1896.16 678.235 1896.16 679.732C1896.16 681.23 1897.37 682.444 1898.87 682.444Z" fill="#F9F5FF"/>
<path d="M61.5962 799.413C63.0936 799.413 64.3074 798.199 64.3074 796.701C64.3074 795.204 63.0936 793.989 61.5962 793.989C60.0989 793.989 58.885 795.204 58.885 796.701C58.885 798.199 60.0989 799.413 61.5962 799.413Z" fill="#F9F5FF"/>
<path d="M184.081 799.413C185.578 799.413 186.792 798.199 186.792 796.701C186.792 795.204 185.578 793.989 184.081 793.989C182.584 793.989 181.37 795.204 181.37 796.701C181.37 798.199 182.584 799.413 184.081 799.413Z" fill="#F9F5FF"/>
<path d="M309.277 796.701C309.277 798.197 308.061 799.413 306.566 799.413C305.071 799.413 303.855 798.197 303.855 796.701C303.855 795.206 305.071 793.989 306.566 793.989C308.061 793.989 309.277 795.206 309.277 796.701Z" fill="#F9F5FF"/>
<path d="M431.762 796.701C431.762 798.197 430.546 799.413 429.051 799.413C427.556 799.413 426.34 798.197 426.34 796.701C426.34 795.206 427.556 793.989 429.051 793.989C430.546 793.989 431.762 795.206 431.762 796.701Z" fill="#F9F5FF"/>
<path d="M551.536 799.413C553.033 799.413 554.247 798.199 554.247 796.701C554.247 795.204 553.033 793.989 551.536 793.989C550.038 793.989 548.824 795.204 548.824 796.701C548.824 798.199 550.038 799.413 551.536 799.413Z" fill="#F9F5FF"/>
<path d="M674.021 799.413C675.518 799.413 676.732 798.199 676.732 796.701C676.732 795.204 675.518 793.989 674.021 793.989C672.523 793.989 671.31 795.204 671.31 796.701C671.31 798.199 672.523 799.413 674.021 799.413Z" fill="#F9F5FF"/>
<path d="M796.506 799.413C798.003 799.413 799.217 798.199 799.217 796.701C799.217 795.204 798.003 793.989 796.506 793.989C795.008 793.989 793.794 795.204 793.794 796.701C793.794 798.199 795.008 799.413 796.506 799.413Z" fill="#F9F5FF"/>
<path d="M918.991 799.413C920.488 799.413 921.702 798.199 921.702 796.701C921.702 795.204 920.488 793.989 918.991 793.989C917.493 793.989 916.279 795.204 916.279 796.701C916.279 798.199 917.493 799.413 918.991 799.413Z" fill="#F9F5FF"/>
<path d="M1044.19 796.701C1044.19 798.197 1042.97 799.413 1041.48 799.413C1039.98 799.413 1038.76 798.197 1038.76 796.701C1038.76 795.206 1039.98 793.989 1041.48 793.989C1042.97 793.989 1044.19 795.206 1044.19 796.701Z" fill="#F9F5FF"/>
<path d="M1163.96 799.413C1165.46 799.413 1166.67 798.199 1166.67 796.701C1166.67 795.204 1165.46 793.989 1163.96 793.989C1162.46 793.989 1161.25 795.204 1161.25 796.701C1161.25 798.199 1162.46 799.413 1163.96 799.413Z" fill="#F9F5FF"/>
<path d="M1286.45 799.413C1287.94 799.413 1289.16 798.199 1289.16 796.701C1289.16 795.204 1287.94 793.989 1286.45 793.989C1284.95 793.989 1283.73 795.204 1283.73 796.701C1283.73 798.199 1284.95 799.413 1286.45 799.413Z" fill="#F9F5FF"/>
<path d="M1408.93 799.413C1410.43 799.413 1411.64 798.199 1411.64 796.701C1411.64 795.204 1410.43 793.989 1408.93 793.989C1407.43 793.989 1406.22 795.204 1406.22 796.701C1406.22 798.199 1407.43 799.413 1408.93 799.413Z" fill="#F9F5FF"/>
<path d="M1531.41 799.413C1532.91 799.413 1534.13 798.199 1534.13 796.701C1534.13 795.204 1532.91 793.989 1531.41 793.989C1529.92 793.989 1528.7 795.204 1528.7 796.701C1528.7 798.199 1529.92 799.413 1531.41 799.413Z" fill="#F9F5FF"/>
<path d="M1653.9 799.413C1655.4 799.413 1656.61 798.199 1656.61 796.701C1656.61 795.204 1655.4 793.989 1653.9 793.989C1652.4 793.989 1651.19 795.204 1651.19 796.701C1651.19 798.199 1652.4 799.413 1653.9 799.413Z" fill="#F9F5FF"/>
<path d="M1779.1 796.701C1779.1 798.197 1777.88 799.413 1776.38 799.413C1774.89 799.413 1773.67 798.197 1773.67 796.701C1773.67 795.206 1774.89 793.989 1776.38 793.989C1777.88 793.989 1779.1 795.206 1779.1 796.701Z" fill="#F9F5FF"/>
<path d="M1898.87 799.413C1900.37 799.413 1901.58 798.199 1901.58 796.701C1901.58 795.204 1900.37 793.989 1898.87 793.989C1897.37 793.989 1896.16 795.204 1896.16 796.701C1896.16 798.199 1897.37 799.413 1898.87 799.413Z" fill="#F9F5FF"/>
<path d="M61.5962 916.357C63.0936 916.357 64.3074 915.143 64.3074 913.645C64.3074 912.147 63.0936 910.933 61.5962 910.933C60.0989 910.933 58.885 912.147 58.885 913.645C58.885 915.143 60.0989 916.357 61.5962 916.357Z" fill="#F9F5FF"/>
<path d="M184.081 916.357C185.578 916.357 186.792 915.143 186.792 913.645C186.792 912.147 185.578 910.933 184.081 910.933C182.584 910.933 181.37 912.147 181.37 913.645C181.37 915.143 182.584 916.357 184.081 916.357Z" fill="#F9F5FF"/>
<path d="M309.277 913.645C309.277 915.14 308.061 916.357 306.566 916.357C305.071 916.357 303.855 915.14 303.855 913.645C303.855 912.15 305.071 910.933 306.566 910.933C308.061 910.933 309.277 912.15 309.277 913.645Z" fill="#F9F5FF"/>
<path d="M431.762 913.645C431.762 915.14 430.546 916.357 429.051 916.357C427.556 916.357 426.34 915.14 426.34 913.645C426.34 912.15 427.556 910.933 429.051 910.933C430.546 910.933 431.762 912.15 431.762 913.645Z" fill="#F9F5FF"/>
<path d="M551.536 916.357C553.033 916.357 554.247 915.143 554.247 913.645C554.247 912.147 553.033 910.933 551.536 910.933C550.038 910.933 548.824 912.147 548.824 913.645C548.824 915.143 550.038 916.357 551.536 916.357Z" fill="#F9F5FF"/>
<path d="M674.021 916.357C675.518 916.357 676.732 915.143 676.732 913.645C676.732 912.147 675.518 910.933 674.021 910.933C672.523 910.933 671.31 912.147 671.31 913.645C671.31 915.143 672.523 916.357 674.021 916.357Z" fill="#F9F5FF"/>
<path d="M796.506 916.357C798.003 916.357 799.217 915.143 799.217 913.645C799.217 912.147 798.003 910.933 796.506 910.933C795.008 910.933 793.794 912.147 793.794 913.645C793.794 915.143 795.008 916.357 796.506 916.357Z" fill="#F9F5FF"/>
<path d="M918.991 916.357C920.488 916.357 921.702 915.143 921.702 913.645C921.702 912.147 920.488 910.933 918.991 910.933C917.493 910.933 916.279 912.147 916.279 913.645C916.279 915.143 917.493 916.357 918.991 916.357Z" fill="#F9F5FF"/>
<path d="M1044.19 913.645C1044.19 915.14 1042.97 916.357 1041.48 916.357C1039.98 916.357 1038.76 915.14 1038.76 913.645C1038.76 912.15 1039.98 910.933 1041.48 910.933C1042.97 910.933 1044.19 912.15 1044.19 913.645Z" fill="#F9F5FF"/>
<path d="M1163.96 916.357C1165.46 916.357 1166.67 915.143 1166.67 913.645C1166.67 912.147 1165.46 910.933 1163.96 910.933C1162.46 910.933 1161.25 912.147 1161.25 913.645C1161.25 915.143 1162.46 916.357 1163.96 916.357Z" fill="#F9F5FF"/>
<path d="M1286.45 916.357C1287.94 916.357 1289.16 915.143 1289.16 913.645C1289.16 912.147 1287.94 910.933 1286.45 910.933C1284.95 910.933 1283.73 912.147 1283.73 913.645C1283.73 915.143 1284.95 916.357 1286.45 916.357Z" fill="#F9F5FF"/>
<path d="M1408.93 916.357C1410.43 916.357 1411.64 915.143 1411.64 913.645C1411.64 912.147 1410.43 910.933 1408.93 910.933C1407.43 910.933 1406.22 912.147 1406.22 913.645C1406.22 915.143 1407.43 916.357 1408.93 916.357Z" fill="#F9F5FF"/>
<path d="M1531.41 916.357C1532.91 916.357 1534.13 915.143 1534.13 913.645C1534.13 912.147 1532.91 910.933 1531.41 910.933C1529.92 910.933 1528.7 912.147 1528.7 913.645C1528.7 915.143 1529.92 916.357 1531.41 916.357Z" fill="#F9F5FF"/>
<path d="M1653.9 916.357C1655.4 916.357 1656.61 915.143 1656.61 913.645C1656.61 912.147 1655.4 910.933 1653.9 910.933C1652.4 910.933 1651.19 912.147 1651.19 913.645C1651.19 915.143 1652.4 916.357 1653.9 916.357Z" fill="#F9F5FF"/>
<path d="M1779.1 913.645C1779.1 915.14 1777.88 916.357 1776.38 916.357C1774.89 916.357 1773.67 915.14 1773.67 913.645C1773.67 912.15 1774.89 910.933 1776.38 910.933C1777.88 910.933 1779.1 912.15 1779.1 913.645Z" fill="#F9F5FF"/>
<path d="M1898.87 916.357C1900.37 916.357 1901.58 915.143 1901.58 913.645C1901.58 912.147 1900.37 910.933 1898.87 910.933C1897.37 910.933 1896.16 912.147 1896.16 913.645C1896.16 915.143 1897.37 916.357 1898.87 916.357Z" fill="#F9F5FF"/>
<path d="M61.5962 1033.3C63.0936 1033.3 64.3074 1032.09 64.3074 1030.59C64.3074 1029.09 63.0936 1027.88 61.5962 1027.88C60.0989 1027.88 58.885 1029.09 58.885 1030.59C58.885 1032.09 60.0989 1033.3 61.5962 1033.3Z" fill="#F9F5FF"/>
<path d="M184.081 1033.3C185.578 1033.3 186.792 1032.09 186.792 1030.59C186.792 1029.09 185.578 1027.88 184.081 1027.88C182.584 1027.88 181.37 1029.09 181.37 1030.59C181.37 1032.09 182.584 1033.3 184.081 1033.3Z" fill="#F9F5FF"/>
<path d="M309.277 1030.59C309.277 1032.08 308.061 1033.3 306.566 1033.3C305.071 1033.3 303.855 1032.08 303.855 1030.59C303.855 1029.09 305.071 1027.88 306.566 1027.88C308.061 1027.88 309.277 1029.09 309.277 1030.59Z" fill="#F9F5FF"/>
<path d="M431.762 1030.59C431.762 1032.08 430.546 1033.3 429.051 1033.3C427.556 1033.3 426.34 1032.08 426.34 1030.59C426.34 1029.09 427.556 1027.88 429.051 1027.88C430.546 1027.88 431.762 1029.09 431.762 1030.59Z" fill="#F9F5FF"/>
<path d="M551.536 1033.3C553.033 1033.3 554.247 1032.09 554.247 1030.59C554.247 1029.09 553.033 1027.88 551.536 1027.88C550.038 1027.88 548.824 1029.09 548.824 1030.59C548.824 1032.09 550.038 1033.3 551.536 1033.3Z" fill="#F9F5FF"/>
<path d="M674.021 1033.3C675.518 1033.3 676.732 1032.09 676.732 1030.59C676.732 1029.09 675.518 1027.88 674.021 1027.88C672.523 1027.88 671.31 1029.09 671.31 1030.59C671.31 1032.09 672.523 1033.3 674.021 1033.3Z" fill="#F9F5FF"/>
<path d="M796.506 1033.3C798.003 1033.3 799.217 1032.09 799.217 1030.59C799.217 1029.09 798.003 1027.88 796.506 1027.88C795.008 1027.88 793.794 1029.09 793.794 1030.59C793.794 1032.09 795.008 1033.3 796.506 1033.3Z" fill="#F9F5FF"/>
<path d="M918.991 1033.3C920.488 1033.3 921.702 1032.09 921.702 1030.59C921.702 1029.09 920.488 1027.88 918.991 1027.88C917.493 1027.88 916.279 1029.09 916.279 1030.59C916.279 1032.09 917.493 1033.3 918.991 1033.3Z" fill="#F9F5FF"/>
<path d="M1044.19 1030.59C1044.19 1032.08 1042.97 1033.3 1041.48 1033.3C1039.98 1033.3 1038.76 1032.08 1038.76 1030.59C1038.76 1029.09 1039.98 1027.88 1041.48 1027.88C1042.97 1027.88 1044.19 1029.09 1044.19 1030.59Z" fill="#F9F5FF"/>
<path d="M1163.96 1033.3C1165.46 1033.3 1166.67 1032.09 1166.67 1030.59C1166.67 1029.09 1165.46 1027.88 1163.96 1027.88C1162.46 1027.88 1161.25 1029.09 1161.25 1030.59C1161.25 1032.09 1162.46 1033.3 1163.96 1033.3Z" fill="#F9F5FF"/>
<path d="M1286.45 1033.3C1287.94 1033.3 1289.16 1032.09 1289.16 1030.59C1289.16 1029.09 1287.94 1027.88 1286.45 1027.88C1284.95 1027.88 1283.73 1029.09 1283.73 1030.59C1283.73 1032.09 1284.95 1033.3 1286.45 1033.3Z" fill="#F9F5FF"/>
<path d="M1408.93 1033.3C1410.43 1033.3 1411.64 1032.09 1411.64 1030.59C1411.64 1029.09 1410.43 1027.88 1408.93 1027.88C1407.43 1027.88 1406.22 1029.09 1406.22 1030.59C1406.22 1032.09 1407.43 1033.3 1408.93 1033.3Z" fill="#F9F5FF"/>
<path d="M1531.41 1033.3C1532.91 1033.3 1534.13 1032.09 1534.13 1030.59C1534.13 1029.09 1532.91 1027.88 1531.41 1027.88C1529.92 1027.88 1528.7 1029.09 1528.7 1030.59C1528.7 1032.09 1529.92 1033.3 1531.41 1033.3Z" fill="#F9F5FF"/>
<path d="M1653.9 1033.3C1655.4 1033.3 1656.61 1032.09 1656.61 1030.59C1656.61 1029.09 1655.4 1027.88 1653.9 1027.88C1652.4 1027.88 1651.19 1029.09 1651.19 1030.59C1651.19 1032.09 1652.4 1033.3 1653.9 1033.3Z" fill="#F9F5FF"/>
<path d="M1779.1 1030.59C1779.1 1032.08 1777.88 1033.3 1776.38 1033.3C1774.89 1033.3 1773.67 1032.08 1773.67 1030.59C1773.67 1029.09 1774.89 1027.88 1776.38 1027.88C1777.88 1027.88 1779.1 1029.09 1779.1 1030.59Z" fill="#F9F5FF"/>
<path d="M1898.87 1033.3C1900.37 1033.3 1901.58 1032.09 1901.58 1030.59C1901.58 1029.09 1900.37 1027.88 1898.87 1027.88C1897.37 1027.88 1896.16 1029.09 1896.16 1030.59C1896.16 1032.09 1897.37 1033.3 1898.87 1033.3Z" fill="#F9F5FF"/>
</g>
</g>
</g>
<mask id="mask2_6_5764" style="mask-type:luminance" maskUnits="userSpaceOnUse" x="31" y="-129" width="1901" height="1268">
<path d="M1931.58 -128.405H31.2158V1138.86H1931.58V-128.405Z" fill="white"/>
</mask>
<g mask="url(#mask2_6_5764)">
<path d="M1029.54 1207.3C1029.54 1197.16 1071.78 864.298 1071.78 864.298L1416.38 1138.86L1029.54 1207.3Z" stroke="#8E2DE2" stroke-width="1.11323" stroke-linecap="round" stroke-linejoin="round"/>
<path d="M1071.17 864.095C1071.86 864.678 1417.01 838.724 1417.01 840.574V840.625C1417.32 877.832 1417.67 952.55 1417.67 989.732C1417.67 1024.1 1417.93 1086.4 1417.98 1120.21C1417.98 1122.74 1418 1131.59 1418 1134.2C1418 1135.95 1418.33 1137.8 1416.58 1139.32C1416.43 1139.5 1416.15 1139.52 1415.97 1139.37L1071.17 864.12V864.095ZM1072.39 864.475L1416.78 1138.36L1415.75 1138.86C1414.3 1137.32 1414.86 1135.75 1414.76 1134.2C1414.76 1131.46 1414.76 1123.12 1414.78 1120.21C1414.86 1086.65 1415.01 1023.9 1415.09 989.732C1415.09 952.601 1415.44 877.731 1415.75 840.625L1416.43 841.259L1072.39 864.475Z" fill="#8E2DE2"/>
<path d="M742.383 1002.84L1071.78 864.272L1029.54 1207.3L742.383 1002.84Z" stroke="#8E2DE2" stroke-width="1.11323" stroke-linecap="round" stroke-linejoin="round"/>
<path d="M790.095 680.113L742.383 1002.84L1071.78 864.272L790.095 680.113Z" stroke="#8E2DE2" stroke-width="1.11323" stroke-linecap="round" stroke-linejoin="round"/>
<path d="M952.64 533.591C987.378 629.447 1038.54 766.439 1074.06 863.436L1071.6 861.814L1416.33 839.966C1418.08 844.782 952.487 532.349 952.64 533.565V533.591ZM951.854 532.602C951.55 533.768 1419.9 839.611 1416.4 841.259L1071.93 866.731C1070.82 866.807 1069.83 866.122 1069.47 865.109C1035.22 767.478 985.934 628.585 951.879 532.602H951.854Z" fill="#8E2DE2"/>
<path d="M1958.19 515.368C1949.32 522.971 1416.38 840.625 1416.38 840.625L1756.75 944.972L1958.19 515.368Z" stroke="#8E2DE2" stroke-width="1.11323" stroke-linecap="round" stroke-linejoin="round"/>
<path d="M1432.42 444.4L1416.38 840.625L1958.19 515.367L1432.42 444.4Z" stroke="#8E2DE2" stroke-width="1.11323" stroke-linecap="round" stroke-linejoin="round"/>
<path d="M742.383 1002.84L590.354 1252.92L1029.54 1207.3L742.383 1002.84Z" stroke="#8E2DE2" stroke-width="1.11323" stroke-linecap="round" stroke-linejoin="round"/>
<path d="M1416.38 1138.86L1579.38 1370.77L1756.75 944.972L1416.38 1138.86Z" stroke="#8E2DE2" stroke-width="1.11323" stroke-linecap="round" stroke-linejoin="round"/>
<path d="M952.259 533.109L1148.63 315.139L1416.38 840.625L952.259 533.109Z" stroke="#8E2DE2" stroke-width="1.11323" stroke-linecap="round" stroke-linejoin="round"/>
<path d="M330.207 1171.81L511.375 909.488L742.383 1002.84L330.207 1171.81Z" stroke="#8E2DE2" stroke-width="1.11323" stroke-linecap="round" stroke-linejoin="round"/>
<path d="M554.779 597.005C554.12 597.056 513.351 912.581 510.969 908.982L788.955 678.719L789.487 681.76L554.754 596.98L554.779 597.005ZM554.12 595.915L790.678 678.414C791.59 678.744 792.097 679.758 791.767 680.67C792.325 681.405 511.831 909.412 511.78 909.945C508.385 911.263 555.134 596.473 554.12 595.89V595.915Z" fill="#8E2DE2"/>
<path d="M1432.42 444.4L1586.55 218.826L1958.19 515.368L1432.42 444.4Z" stroke="#8E2DE2" stroke-width="1.11323" stroke-linecap="round" stroke-linejoin="round"/>
<path d="M2041.8 330.346L1958.19 515.368L1804.89 151.661L2041.8 330.346Z" stroke="#8E2DE2" stroke-width="1.11323" stroke-linecap="round" stroke-linejoin="round"/>
<path d="M1756.75 944.972L1958.19 1252.92L1579.38 1370.77L1756.75 944.972Z" stroke="#8E2DE2" stroke-width="1.11323" stroke-linecap="round" stroke-linejoin="round"/>
<path d="M2105.15 801.771L1958.19 515.368L1756.75 944.972L2105.15 801.771Z" stroke="#8E2DE2" stroke-width="1.11323" stroke-linecap="round" stroke-linejoin="round"/>
<path d="M1958.19 1252.92L2190.03 1071.7L1756.75 944.972L1958.19 1252.92Z" stroke="#8E2DE2" stroke-width="1.11323" stroke-linecap="round" stroke-linejoin="round"/>
<path d="M330.207 1171.81L590.354 1252.92L742.383 1002.84L330.207 1171.81Z" stroke="#8E2DE2" stroke-width="1.11323" stroke-linecap="round" stroke-linejoin="round"/>
<path d="M1432.49 445.87C1367.1 368.44 1296.23 290.503 1234.15 213.124L1586.55 218.193C1538.81 293.646 1483.25 370.164 1432.49 445.87ZM1432.34 442.905C1483.42 369.631 1535.11 289.033 1586.55 219.435L1234.15 214.366C1299.9 285.611 1366.67 367.883 1432.34 442.905Z" fill="#8E2DE2"/>
<path d="M330.181 1172.45C330.637 1171.48 189.782 942.843 192.468 942.235L511.197 907.714C512.642 907.511 513.757 909.311 512.844 910.502L330.207 1172.45H330.181ZM330.232 1171.18L509.931 908.474L511.577 911.263L192.62 943.502C192.468 938.788 330.08 1172.22 330.257 1171.18H330.232Z" fill="#8E2DE2"/>
<path d="M-20.2969 1191.23L192.544 942.843L330.207 1171.81L-20.2969 1191.23Z" stroke="#8E2DE2" stroke-width="1.11323" stroke-linecap="round" stroke-linejoin="round"/>
<path d="M2105.43 801.188C2104.64 801.999 2192.94 1072.59 2189.85 1072.31L1756.24 946.695C1754.7 946.29 1754.47 943.857 1756.06 943.299L2105.43 801.188ZM2104.89 802.328L1757.46 946.619L1757.28 943.223L2190.23 1071.07C2189.14 1075.78 2105.33 801.34 2104.89 802.328Z" fill="#8E2DE2"/>
<path d="M192.544 942.843L-13.5569 743.476L-20.2969 1191.23L192.544 942.843Z" stroke="#8E2DE2" stroke-width="1.11323" stroke-linecap="round" stroke-linejoin="round"/>
</g>
<mask id="mask3_6_5764" style="mask-type:luminance" maskUnits="userSpaceOnUse" x="31" y="-129" width="1901" height="1268">
<path d="M1931.58 -128.405H31.2158V1138.86H1931.58V-128.405Z" fill="white"/>
</mask>
<g mask="url(#mask3_6_5764)">
<path d="M556.705 596.853C556.705 598.12 555.666 599.159 554.399 599.159C553.132 599.159 552.094 598.12 552.094 596.853C552.094 595.586 553.132 594.547 554.399 594.547C555.666 594.547 556.705 595.586 556.705 596.853Z" fill="#F9F5FF"/>
<path d="M790.095 685.055C792.824 685.055 795.036 682.842 795.036 680.113C795.036 677.383 792.824 675.17 790.095 675.17C787.366 675.17 785.154 677.383 785.154 680.113C785.154 682.842 787.366 685.055 790.095 685.055Z" fill="#F9F5FF"/>
<path d="M511.375 913.594C513.642 913.594 515.48 911.756 515.48 909.488C515.48 907.221 513.642 905.383 511.375 905.383C509.108 905.383 507.27 907.221 507.27 909.488C507.27 911.756 509.108 913.594 511.375 913.594Z" fill="#F9F5FF"/>
<path d="M744.486 1002.84C744.486 1004.1 743.447 1005.14 742.181 1005.14C740.914 1005.14 739.875 1004.1 739.875 1002.84C739.875 1001.57 740.914 1000.53 742.181 1000.53C743.447 1000.53 744.486 1001.57 744.486 1002.84Z" fill="#F9F5FF"/>
<path d="M192.291 947.405C194.81 947.405 196.852 945.363 196.852 942.843C196.852 940.323 194.81 938.281 192.291 938.281C189.772 938.281 187.73 940.323 187.73 942.843C187.73 945.363 189.772 947.405 192.291 947.405Z" fill="#F9F5FF"/>
<path d="M1077.05 864.272C1077.05 867.187 1074.69 869.544 1071.78 869.544C1068.87 869.544 1066.51 867.187 1066.51 864.272C1066.51 861.357 1068.87 859 1071.78 859C1074.69 859 1077.05 861.357 1077.05 864.272Z" fill="#F9F5FF"/>
<path d="M1428.82 840.017C1428.82 846.911 1423.25 852.487 1416.35 852.487C1409.46 852.487 1403.89 846.911 1403.89 840.017C1403.89 833.123 1409.46 827.547 1416.35 827.547C1423.25 827.547 1428.82 833.123 1428.82 840.017Z" fill="#F9F5FF"/>
<path d="M952.26 540.51C956.346 540.51 959.659 537.197 959.659 533.109C959.659 529.022 956.346 525.708 952.26 525.708C948.173 525.708 944.861 529.022 944.861 533.109C944.861 537.197 948.173 540.51 952.26 540.51Z" fill="#F9F5FF"/>
<path d="M1432.42 448.405C1434.63 448.405 1436.42 446.612 1436.42 444.4C1436.42 442.189 1434.63 440.396 1432.42 440.396C1430.21 440.396 1428.42 442.189 1428.42 444.4C1428.42 446.612 1430.21 448.405 1432.42 448.405Z" fill="#F9F5FF"/>
<path d="M1151.06 315.595C1151.06 316.863 1150.02 317.902 1148.76 317.902C1147.49 317.902 1146.45 316.863 1146.45 315.595C1146.45 314.328 1147.49 313.289 1148.76 313.289C1150.02 313.289 1151.06 314.328 1151.06 315.595Z" fill="#F9F5FF"/>
<path d="M1236.73 213.986C1236.73 215.253 1235.69 216.292 1234.43 216.292C1233.16 216.292 1232.12 215.253 1232.12 213.986C1232.12 212.718 1233.16 211.679 1234.43 211.679C1235.69 211.679 1236.73 212.718 1236.73 213.986Z" fill="#F9F5FF"/>
<path d="M1586.55 222.628C1588.65 222.628 1590.35 220.926 1590.35 218.826C1590.35 216.727 1588.65 215.025 1586.55 215.025C1584.45 215.025 1582.75 216.727 1582.75 218.826C1582.75 220.926 1584.45 222.628 1586.55 222.628Z" fill="#F9F5FF"/>
<path d="M1807.2 152.244C1807.2 153.511 1806.16 154.551 1804.89 154.551C1803.62 154.551 1802.58 153.511 1802.58 152.244C1802.58 150.977 1803.62 149.938 1804.89 149.938C1806.16 149.938 1807.2 150.977 1807.2 152.244Z" fill="#E2C7FF"/>
<path d="M1761.13 945.529C1761.13 947.963 1759.18 949.914 1756.75 949.914C1754.32 949.914 1752.36 947.963 1752.36 945.529C1752.36 943.096 1754.32 941.145 1756.75 941.145C1759.18 941.145 1761.13 943.096 1761.13 945.529Z" fill="#F9F5FF"/>
</g>
<mask id="mask4_6_5764" style="mask-type:luminance" maskUnits="userSpaceOnUse" x="31" y="-129" width="1901" height="1268">
<path d="M1931.58 -128.405H31.2158V1138.86H1931.58V-128.405Z" fill="white"/>
</mask>
<g mask="url(#mask4_6_5764)">
<g style="mix-blend-mode:overlay" opacity="0.3">
<path d="M554.399 611.832C546.139 611.832 539.424 605.116 539.424 596.853C539.424 588.59 546.139 581.874 554.399 581.874C562.659 581.874 569.374 588.59 569.374 596.853C569.374 605.116 562.659 611.832 554.399 611.832Z" stroke="#F9F5FF" stroke-width="2.22645" stroke-miterlimit="10"/>
</g>
<g style="mix-blend-mode:overlay" opacity="0.3">
<path d="M790.095 697.728C799.821 697.728 807.705 689.841 807.705 680.113C807.705 670.384 799.821 662.498 790.095 662.498C780.369 662.498 772.485 670.384 772.485 680.113C772.485 689.841 780.369 697.728 790.095 697.728Z" stroke="#F9F5FF" stroke-width="2.22645" stroke-miterlimit="10"/>
</g>
<g style="mix-blend-mode:overlay" opacity="0.3">
<path d="M511.375 926.267C520.639 926.267 528.149 918.755 528.149 909.488C528.149 900.222 520.639 892.71 511.375 892.71C502.111 892.71 494.601 900.222 494.601 909.488C494.601 918.755 502.111 926.267 511.375 926.267Z" stroke="#F9F5FF" stroke-width="2.22645" stroke-miterlimit="10"/>
</g>
<g style="mix-blend-mode:overlay" opacity="0.3">
<path d="M742.18 1017.81C733.92 1017.81 727.206 1011.1 727.206 1002.84C727.206 994.573 733.92 987.856 742.18 987.856C750.441 987.856 757.155 994.573 757.155 1002.84C757.155 1011.1 750.441 1017.81 742.18 1017.81Z" stroke="#F9F5FF" stroke-width="2.22645" stroke-miterlimit="10"/>
</g>
<g style="mix-blend-mode:overlay" opacity="0.3">
<path d="M192.291 960.103C182.789 960.103 175.061 952.373 175.061 942.868C175.061 933.364 182.789 925.633 192.291 925.633C201.793 925.633 209.521 933.364 209.521 942.868C209.521 952.373 201.793 960.103 192.291 960.103Z" stroke="#F9F5FF" stroke-width="2.22645" stroke-miterlimit="10"/>
</g>
<g style="mix-blend-mode:overlay" opacity="0.3">
<path d="M1071.78 882.242C1061.87 882.242 1053.84 874.182 1053.84 864.298C1053.84 854.413 1061.9 846.353 1071.78 846.353C1081.66 846.353 1089.72 854.413 1089.72 864.298C1089.72 874.182 1081.66 882.242 1071.78 882.242Z" stroke="#F9F5FF" stroke-width="2.22645" stroke-miterlimit="10"/>
</g>
<g style="mix-blend-mode:overlay" opacity="0.4">
<path d="M1416.38 865.134C1402.52 865.134 1391.24 853.855 1391.24 839.991C1391.24 826.128 1402.52 814.849 1416.38 814.849C1430.24 814.849 1441.51 826.128 1441.51 839.991C1441.51 853.855 1430.24 865.134 1416.38 865.134Z" stroke="#F9F5FF" stroke-width="2.22645" stroke-miterlimit="10"/>
</g>
<g style="mix-blend-mode:overlay" opacity="0.3">
<path d="M952.26 553.183C963.343 553.183 972.328 544.196 972.328 533.109C972.328 522.023 963.343 513.036 952.26 513.036C941.176 513.036 932.192 522.023 932.192 533.109C932.192 544.196 941.176 553.183 952.26 553.183Z" stroke="#F9F5FF" stroke-width="2.22645" stroke-miterlimit="10"/>
</g>
<g style="mix-blend-mode:overlay" opacity="0.25">
<path d="M1234.43 228.965C1226.17 228.965 1219.45 222.248 1219.45 213.985C1219.45 205.723 1226.17 199.006 1234.43 199.006C1242.69 199.006 1249.4 205.723 1249.4 213.985C1249.4 222.248 1242.69 228.965 1234.43 228.965Z" stroke="#F9F5FF" stroke-width="2.22645" stroke-miterlimit="10"/>
</g>
<g style="mix-blend-mode:overlay" opacity="0.3">
<path d="M850.222 433.629C856.17 433.629 860.991 428.806 860.991 422.857C860.991 416.908 856.17 412.085 850.222 412.085C844.275 412.085 839.454 416.908 839.454 422.857C839.454 428.806 844.275 433.629 850.222 433.629Z" stroke="#F9F5FF" stroke-width="1.60305" stroke-miterlimit="10"/>
</g>
<g style="mix-blend-mode:overlay" opacity="0.2">
<path d="M306.566 573.561C312.514 573.561 317.335 568.738 317.335 562.789C317.335 556.84 312.514 552.017 306.566 552.017C300.619 552.017 295.797 556.84 295.797 562.789C295.797 568.738 300.619 573.561 306.566 573.561Z" stroke="#F9F5FF" stroke-width="1.60305" stroke-miterlimit="10"/>
</g>
<g style="mix-blend-mode:overlay" opacity="0.2">
<path d="M548.825 1046.56C554.772 1046.56 559.594 1041.73 559.594 1035.78C559.594 1029.84 554.772 1025.01 548.825 1025.01C542.877 1025.01 538.056 1029.84 538.056 1035.78C538.056 1041.73 542.877 1046.56 548.825 1046.56Z" stroke="#F9F5FF" stroke-width="1.60305" stroke-miterlimit="10"/>
</g>
<g style="mix-blend-mode:overlay" opacity="0.3">
<path d="M655.347 68.7311C659.615 68.7311 663.075 65.2701 663.075 61.0007C663.075 56.7313 659.615 53.2704 655.347 53.2704C651.078 53.2704 647.618 56.7313 647.618 61.0007C647.618 65.2701 651.078 68.7311 655.347 68.7311Z" stroke="#F9F5FF" stroke-width="1.15776" stroke-miterlimit="10"/>
</g>
<g style="mix-blend-mode:overlay" opacity="0.3">
<path d="M627.728 745.124C633.675 745.124 638.496 740.301 638.496 734.352C638.496 728.403 633.675 723.58 627.728 723.58C621.78 723.58 616.959 728.403 616.959 734.352C616.959 740.301 621.78 745.124 627.728 745.124Z" stroke="#F9F5FF" stroke-width="1.60305" stroke-miterlimit="10"/>
</g>
<g style="mix-blend-mode:overlay" opacity="0.3">
<path d="M1695.3 32.5632C1701.25 32.5632 1706.07 27.7405 1706.07 21.7914C1706.07 15.8423 1701.25 11.0197 1695.3 11.0197C1689.35 11.0197 1684.53 15.8423 1684.53 21.7914C1684.53 27.7405 1689.35 32.5632 1695.3 32.5632Z" stroke="#F9F5FF" stroke-width="1.60305" stroke-miterlimit="10"/>
</g>
<g style="mix-blend-mode:overlay" opacity="0.3">
<path d="M1761.13 754.805C1767.08 754.805 1771.9 749.983 1771.9 744.034C1771.9 738.085 1767.08 733.262 1761.13 733.262C1755.18 733.262 1750.36 738.085 1750.36 744.034C1750.36 749.983 1755.18 754.805 1761.13 754.805Z" stroke="#F9F5FF" stroke-width="1.60305" stroke-miterlimit="10"/>
</g>
<g style="mix-blend-mode:overlay" opacity="0.2">
<path d="M1041.48 690.504C1047.42 690.504 1052.24 685.682 1052.24 679.732C1052.24 673.783 1047.42 668.961 1041.48 668.961C1035.53 668.961 1030.71 673.783 1030.71 679.732C1030.71 685.682 1035.53 690.504 1041.48 690.504Z" stroke="#F9F5FF" stroke-width="1.60305" stroke-miterlimit="10"/>
</g>
<g style="mix-blend-mode:overlay" opacity="0.3">
<path d="M1500.15 1015.91C1506.1 1015.91 1510.92 1011.09 1510.92 1005.14C1510.92 999.193 1506.1 994.37 1500.15 994.37C1494.2 994.37 1489.38 999.193 1489.38 1005.14C1489.38 1011.09 1494.2 1015.91 1500.15 1015.91Z" stroke="#F9F5FF" stroke-width="1.60305" stroke-miterlimit="10"/>
</g>
<g style="mix-blend-mode:overlay" opacity="0.3">
<path d="M1768.78 1102.82C1759.71 1102.82 1752.31 1095.45 1752.31 1086.35C1752.31 1077.25 1759.69 1069.87 1768.78 1069.87C1777.88 1069.87 1785.25 1077.25 1785.25 1086.35C1785.25 1095.45 1777.88 1102.82 1768.78 1102.82Z" stroke="#F9F5FF" stroke-width="2.4491" stroke-miterlimit="10"/>
</g>
<g style="mix-blend-mode:overlay" opacity="0.3">
<path d="M232.705 812.542C238.653 812.542 243.474 807.72 243.474 801.771C243.474 795.821 238.653 790.999 232.705 790.999C226.758 790.999 221.937 795.821 221.937 801.771C221.937 807.72 226.758 812.542 232.705 812.542Z" stroke="#F9F5FF" stroke-width="1.60305" stroke-miterlimit="10"/>
</g>
<g style="mix-blend-mode:overlay" opacity="0.18">
<path d="M236.126 285.992C242.073 285.992 246.895 281.169 246.895 275.22C246.895 269.271 242.073 264.448 236.126 264.448C230.179 264.448 225.357 269.271 225.357 275.22C225.357 281.169 230.179 285.992 236.126 285.992Z" stroke="#F9F5FF" stroke-width="1.60305" stroke-miterlimit="10"/>
</g>
<g style="mix-blend-mode:overlay" opacity="0.3">
<path d="M1345.33 481.582C1351.28 481.582 1356.1 476.759 1356.1 470.81C1356.1 464.861 1351.28 460.039 1345.33 460.039C1339.38 460.039 1334.56 464.861 1334.56 470.81C1334.56 476.759 1339.38 481.582 1345.33 481.582Z" stroke="#F9F5FF" stroke-width="1.60305" stroke-miterlimit="10"/>
</g>
<g style="mix-blend-mode:overlay" opacity="0.3">
<path d="M1720.01 438.875C1724.02 438.875 1727.28 435.618 1727.28 431.601C1727.28 427.584 1724.02 424.327 1720.01 424.327C1715.99 424.327 1712.74 427.584 1712.74 431.601C1712.74 435.618 1715.99 438.875 1720.01 438.875Z" stroke="#F9F5FF" stroke-width="1.09096" stroke-miterlimit="10"/>
</g>
<g style="mix-blend-mode:overlay" opacity="0.3">
<path d="M1739.7 236.239C1743.71 236.239 1746.97 232.982 1746.97 228.965C1746.97 224.947 1743.71 221.691 1739.7 221.691C1735.68 221.691 1732.42 224.947 1732.42 228.965C1732.42 232.982 1735.68 236.239 1739.7 236.239Z" stroke="#F9F5FF" stroke-width="1.09096" stroke-miterlimit="10"/>
</g>
<g style="mix-blend-mode:overlay" opacity="0.3">
<path d="M1586.55 235.301C1595.65 235.301 1603.02 227.925 1603.02 218.827C1603.02 209.728 1595.65 202.352 1586.55 202.352C1577.45 202.352 1570.08 209.728 1570.08 218.827C1570.08 227.925 1577.45 235.301 1586.55 235.301Z" stroke="#F9F5FF" stroke-width="2.22645" stroke-miterlimit="10"/>
</g>
<g style="mix-blend-mode:overlay" opacity="0.3">
<path d="M1804.89 167.223C1813.16 167.223 1819.87 160.517 1819.87 152.244C1819.87 143.971 1813.16 137.265 1804.89 137.265C1796.62 137.265 1789.92 143.971 1789.92 152.244C1789.92 160.517 1796.62 167.223 1804.89 167.223Z" stroke="#F9F5FF" stroke-width="2.22645" stroke-miterlimit="10"/>
</g>
<g style="mix-blend-mode:overlay" opacity="0.3">
<path d="M1756.75 962.587C1766.17 962.587 1773.8 954.95 1773.8 945.53C1773.8 936.109 1766.17 928.472 1756.75 928.472C1747.33 928.472 1739.69 936.109 1739.69 945.53C1739.69 954.95 1747.33 962.587 1756.75 962.587Z" stroke="#F9F5FF" stroke-width="2.22645" stroke-miterlimit="10"/>
</g>
</g>
<mask id="mask5_6_5764" style="mask-type:luminance" maskUnits="userSpaceOnUse" x="31" y="-129" width="1901" height="1268">
<path d="M1931.58 -128.405H31.2158V1138.86H1931.58V-128.405Z" fill="white"/>
</mask>
<g mask="url(#mask5_6_5764)">
<path style="mix-blend-mode:screen" d="M1234.15 262.826C1260.54 262.826 1281.94 241.425 1281.94 215.025C1281.94 188.625 1260.54 167.223 1234.15 167.223C1207.75 167.223 1186.36 188.625 1186.36 215.025C1186.36 241.425 1207.75 262.826 1234.15 262.826Z" fill="url(#paint1_radial_6_5764)"/>
<path style="mix-blend-mode:screen" d="M1015.34 596.206C1050.18 561.356 1050.18 504.851 1015.34 470C980.5 435.15 924.012 435.15 889.171 470C854.33 504.851 854.33 561.356 889.171 596.206C924.012 631.057 980.5 631.057 1015.34 596.206Z" fill="url(#paint2_radial_6_5764)"/>
<path style="mix-blend-mode:screen" d="M1508.44 862.231C1519.76 814.262 1490.06 766.198 1442.11 754.876C1394.15 743.555 1346.1 773.263 1334.78 821.232C1323.46 869.2 1353.16 917.264 1401.12 928.586C1449.07 939.908 1497.13 910.199 1508.44 862.231Z" fill="url(#paint3_radial_6_5764)"/>
<path style="mix-blend-mode:screen" d="M192.291 1008.13C228.339 1008.13 257.562 978.901 257.562 942.843C257.562 906.784 228.339 877.553 192.291 877.553C156.242 877.553 127.02 906.784 127.02 942.843C127.02 978.901 156.242 1008.13 192.291 1008.13Z" fill="url(#paint4_radial_6_5764)"/>
<path style="mix-blend-mode:screen" d="M1795.38 984.209C1816.3 963.275 1816.3 929.334 1795.38 908.4C1774.45 887.466 1740.52 887.466 1719.59 908.4C1698.66 929.334 1698.66 963.275 1719.59 984.209C1740.52 1005.14 1774.45 1005.14 1795.38 984.209Z" fill="url(#paint5_radial_6_5764)"/>
<path style="mix-blend-mode:screen" d="M1843.7 158.58C1847.18 137.192 1832.66 117.038 1811.27 113.566C1789.89 110.094 1769.74 124.619 1766.27 146.008C1762.8 167.396 1777.32 187.55 1798.7 191.022C1820.09 194.494 1840.23 179.969 1843.7 158.58Z" fill="url(#paint6_radial_6_5764)"/>
<path style="mix-blend-mode:screen" d="M788.828 727.914C815.221 727.914 836.616 706.513 836.616 680.113C836.616 653.713 815.221 632.311 788.828 632.311C762.436 632.311 741.04 653.713 741.04 680.113C741.04 706.513 762.436 727.914 788.828 727.914Z" fill="url(#paint7_radial_6_5764)"/>
</g>
</g>
</g>
<defs>
<linearGradient id="paint0_linear_6_5764" x1="1504.5" y1="-187.5" x2="623.566" y2="1044.66" gradientUnits="userSpaceOnUse">
<stop stop-color="#4E0062"/>
<stop offset="1" stop-color="#220076"/>
</linearGradient>
<clipPath id="clip0_6_5764">
<rect width="1920" height="1380" fill="white"/>
</clipPath>
</defs>
</svg>
