<svg width="16" height="18" viewBox="0 0 16 18" fill="none" xmlns="http://www.w3.org/2000/svg">
<path d="M6.18182 3H9.81818C9.81818 2.50272 9.62662 2.02581 9.28565 1.67417C8.94467 1.32254 8.48221 1.125 8 1.125C7.51779 1.125 7.05533 1.32254 6.71435 1.67417C6.37338 2.02581 6.18182 2.50272 6.18182 3ZM5.09091 3C5.09091 2.20435 5.3974 1.44129 5.94296 0.87868C6.48852 0.316071 7.22846 0 8 0C8.77154 0 9.51148 0.316071 10.057 0.87868C10.6026 1.44129 10.9091 2.20435 10.9091 3H15.4545C15.5992 3 15.7379 3.05926 15.8402 3.16475C15.9425 3.27024 16 3.41332 16 3.5625C16 3.71168 15.9425 3.85476 15.8402 3.96025C15.7379 4.06574 15.5992 4.125 15.4545 4.125H14.5018L13.6167 15.0773C13.5523 15.874 13.2 16.6167 12.6295 17.1581C12.059 17.6994 11.312 17.9999 10.5367 18H5.46327C4.68799 17.9999 3.94105 17.6994 3.37055 17.1581C2.80005 16.6167 2.44767 15.874 2.38327 15.0773L1.49818 4.125H0.545455C0.400791 4.125 0.262052 4.06574 0.15976 3.96025C0.0574673 3.85476 0 3.71168 0 3.5625C0 3.41332 0.0574673 3.27024 0.15976 3.16475C0.262052 3.05926 0.400791 3 0.545455 3H5.09091ZM6.90909 7.3125C6.90909 7.16332 6.85162 7.02024 6.74933 6.91475C6.64704 6.80926 6.5083 6.75 6.36364 6.75C6.21897 6.75 6.08024 6.80926 5.97794 6.91475C5.87565 7.02024 5.81818 7.16332 5.81818 7.3125V13.6875C5.81818 13.8367 5.87565 13.9798 5.97794 14.0852C6.08024 14.1907 6.21897 14.25 6.36364 14.25C6.5083 14.25 6.64704 14.1907 6.74933 14.0852C6.85162 13.9798 6.90909 13.8367 6.90909 13.6875V7.3125ZM9.63636 6.75C9.4917 6.75 9.35296 6.80926 9.25067 6.91475C9.14838 7.02024 9.09091 7.16332 9.09091 7.3125V13.6875C9.09091 13.8367 9.14838 13.9798 9.25067 14.0852C9.35296 14.1907 9.4917 14.25 9.63636 14.25C9.78103 14.25 9.91977 14.1907 10.0221 14.0852C10.1244 13.9798 10.1818 13.8367 10.1818 13.6875V7.3125C10.1818 7.16332 10.1244 7.02024 10.0221 6.91475C9.91977 6.80926 9.78103 6.75 9.63636 6.75Z" fill="#F8F8F8"/>
</svg>
