<svg width="18" height="18" viewBox="0 0 18 18" fill="none" xmlns="http://www.w3.org/2000/svg">
<path d="M16.6554 8.51038L8.93267 0.787607C8.62376 0.478696 8.19472 0.289917 7.72277 0.289917H1.71617C0.772277 0.289917 0 1.06219 0 2.00609V8.01269C0 8.48464 0.188779 8.91368 0.506271 9.23117L8.22904 16.9539C8.53795 17.2629 8.967 17.4516 9.43894 17.4516C9.91089 17.4516 10.3399 17.2629 10.6488 16.9454L16.6554 10.9388C16.9729 10.6299 17.1617 10.2008 17.1617 9.72886C17.1617 9.25691 16.9644 8.81929 16.6554 8.51038ZM3.0033 4.58035C2.29109 4.58035 1.71617 4.00543 1.71617 3.29322C1.71617 2.58101 2.29109 2.00609 3.0033 2.00609C3.71551 2.00609 4.29043 2.58101 4.29043 3.29322C4.29043 4.00543 3.71551 4.58035 3.0033 4.58035Z" fill="white"/>
</svg>
