<svg width="22" height="24" viewBox="0 0 22 24" fill="none" xmlns="http://www.w3.org/2000/svg">
<path opacity="0.5" d="M0.914342 3.5495C0.479004 4.16911 0.479004 6.01181 0.479004 9.69375V11.5065C0.479004 17.9997 5.36101 21.1519 8.42449 22.489C9.25486 22.8518 9.67062 23.0337 10.8442 23.0337C12.0189 23.0337 12.4335 22.8518 13.2639 22.489C16.3274 21.1507 21.2094 18.0009 21.2094 11.5065V9.69375C21.2094 6.01066 21.2094 4.16911 20.774 3.5495C20.3399 2.93104 18.6089 2.33793 15.1457 1.15284L14.4858 0.927108C12.6811 0.308652 11.7794 0 10.8442 0C9.91017 0 9.00725 0.308652 7.20255 0.927108L6.54264 1.15169C3.07951 2.33793 1.34853 2.93104 0.914342 3.5495Z" fill="#511A79"/>
<path fill-rule="evenodd" clip-rule="evenodd" d="M4.72654 8.98304C4.05455 10.6057 4.0547 12.4289 4.72695 14.0515C5.3992 15.674 6.68848 16.9631 8.31116 17.6351C9.93385 18.3071 11.757 18.3069 13.3796 17.6347C15.0022 16.9624 16.2912 15.6731 16.9632 14.0505C17.6352 12.4278 17.635 10.6046 16.9628 8.98204C16.2906 7.35946 15.0013 6.07039 13.3786 5.39841C11.7559 4.72643 9.93273 4.72658 8.31016 5.39883C6.68759 6.07107 5.39852 7.36035 4.72654 8.98304ZM10.7798 6.64281C10.7994 6.63099 10.8215 6.62389 10.8443 6.62208C10.8489 6.62208 10.8685 6.62208 10.9088 6.64281C10.9822 6.68298 11.0484 6.73514 11.1046 6.79713C11.2808 6.9791 11.4823 7.29351 11.6712 7.7657C11.8578 8.23099 12.0121 8.80337 12.1204 9.45408C12.1837 9.83874 12.2298 10.2407 12.2563 10.653H9.43233C9.45882 10.2407 9.50489 9.83874 9.56823 9.45523C9.65756 8.87771 9.80812 8.31134 10.0174 7.7657C10.2063 7.29351 10.409 6.9791 10.584 6.79713C10.6402 6.73514 10.7064 6.68298 10.7798 6.64281ZM7.86373 9.17191C7.78542 9.64986 7.73014 10.1474 7.7025 10.653H6.02564C6.14932 9.96235 6.42004 9.30638 6.81944 8.72953C7.21885 8.15268 7.7376 7.66844 8.34053 7.30964C8.12322 7.91405 7.96435 8.53755 7.86373 9.17191ZM6.02679 12.3805H7.70019C7.72898 12.8861 7.78427 13.3836 7.86258 13.8616C7.9632 14.4959 8.12322 15.1194 8.34053 15.7239C7.7376 15.3651 7.21885 14.8808 6.81944 14.304C6.42004 13.7271 6.15048 13.0711 6.02679 12.3805ZM15.6618 10.653C15.5383 9.96227 15.2677 9.30621 14.8683 8.72933C14.4689 8.15246 13.95 7.66827 13.3469 7.30964C13.5542 7.86936 13.7132 8.50048 13.8249 9.17191C13.9032 9.64986 13.9585 10.1474 13.9861 10.653H15.6618ZM13.9873 12.3805H15.6618C15.5383 13.0712 15.2677 13.7273 14.8683 14.3042C14.4689 14.881 13.95 15.3652 13.3469 15.7239C13.5542 15.1641 13.7132 14.533 13.8249 13.8616C13.9032 13.3836 13.9585 12.8861 13.9861 12.3805H13.9873ZM12.2563 12.3805C12.2308 12.7818 12.1854 13.1815 12.1204 13.5783C12.031 14.1558 11.8805 14.7222 11.6712 15.2678C11.4823 15.74 11.2796 16.0544 11.1046 16.2364C11.0484 16.2984 10.9822 16.3505 10.9088 16.3907C10.8892 16.4025 10.8671 16.4096 10.8443 16.4114C10.8397 16.4114 10.8201 16.4114 10.7798 16.3907C10.7064 16.3505 10.6402 16.2984 10.584 16.2364C10.4078 16.0544 10.2063 15.74 10.0174 15.2678C9.8082 14.7225 9.65764 14.1566 9.56823 13.5794C9.50312 13.1823 9.45777 12.7822 9.43233 12.3805H12.2563Z" fill="#511A79"/>
</svg>
