<svg width="22" height="21" viewBox="0 0 22 21" fill="none" xmlns="http://www.w3.org/2000/svg">
<path opacity="0.5" d="M5.14357 16.5843V16.491C5.14357 15.5944 5.14357 14.7714 5.23375 14.1028C5.33222 13.3659 5.56543 12.5864 6.206 11.9469C6.84657 11.3053 7.62603 11.0721 8.36195 10.9726C9.03154 10.8834 9.85454 10.8834 10.7522 10.8834H10.9367C11.8343 10.8834 12.6573 10.8834 13.3258 10.9736C14.0628 11.0721 14.8423 11.3053 15.4818 11.9458C16.1234 12.5864 16.3566 13.3659 16.4561 14.1018C16.5442 14.7621 16.5452 15.5695 16.5452 16.4516C19.2122 15.8815 21.2096 13.5369 21.2096 10.73C21.2096 8.16982 19.5439 5.99106 17.2242 5.19813C16.8946 2.27412 14.3841 0 11.3378 0C8.06655 0 5.41514 2.62031 5.41514 5.85321C5.41514 6.5684 5.5447 7.2525 5.78206 7.88685C5.49861 7.83176 5.21052 7.804 4.92176 7.80393C2.46832 7.80497 0.479248 9.7702 0.479248 12.1946C0.479248 14.619 2.46832 16.5843 4.92176 16.5843H5.14357Z" fill="#511A79"/>
<path fill-rule="evenodd" clip-rule="evenodd" d="M10.8446 20.7301C8.88968 20.7301 7.91328 20.7301 7.30589 20.1227C6.69849 19.5153 6.69849 18.5389 6.69849 16.5841C6.69849 14.6292 6.69849 13.6528 7.30589 13.0454C7.91328 12.438 8.88968 12.438 10.8446 12.438C12.7994 12.438 13.7758 12.438 14.3832 13.0454C14.9906 13.6528 14.9906 14.6292 14.9906 16.5841C14.9906 18.5389 14.9906 19.5153 14.3832 20.1227C13.7758 20.7301 12.7994 20.7301 10.8446 20.7301ZM12.7155 17.5335L11.3327 18.9152C11.2031 19.0444 11.0276 19.117 10.8446 19.117C10.6615 19.117 10.486 19.0444 10.3564 18.9152L8.97364 17.5335C8.90687 17.4699 8.85349 17.3936 8.81665 17.3091C8.77981 17.2245 8.76026 17.1335 8.75913 17.0413C8.75801 16.9491 8.77534 16.8576 8.81011 16.7722C8.84487 16.6868 8.89637 16.6092 8.96157 16.544C9.02678 16.4788 9.10436 16.4273 9.18977 16.3925C9.27517 16.3578 9.36666 16.3404 9.45887 16.3416C9.55107 16.3427 9.64211 16.3622 9.72664 16.3991C9.81117 16.4359 9.88748 16.4893 9.95107 16.5561L10.1532 16.7582V14.7411C10.1532 14.5578 10.226 14.3819 10.3557 14.2523C10.4853 14.1226 10.6612 14.0498 10.8446 14.0498C11.0279 14.0498 11.2038 14.1226 11.3334 14.2523C11.4631 14.3819 11.5359 14.5578 11.5359 14.7411V16.7582L11.738 16.5561C11.8687 16.4316 12.0428 16.3632 12.2233 16.3654C12.4037 16.3676 12.5761 16.4403 12.7037 16.5678C12.8313 16.6954 12.9039 16.8678 12.9061 17.0483C12.9083 17.2287 12.8399 17.4028 12.7155 17.5335Z" fill="#511A79"/>
</svg>
