<svg width="21" height="21" viewBox="0 0 21 21" fill="none" xmlns="http://www.w3.org/2000/svg">
<path opacity="0.5" d="M20.6245 9.44855L20.3875 11.9706C19.9961 16.1243 19.8004 18.2022 18.5756 19.4539C17.3529 20.7066 15.5184 20.7066 11.8471 20.7066H9.03106C5.36086 20.7066 3.52628 20.7066 2.3015 19.4539C1.07672 18.2011 0.882076 16.1243 0.490726 11.9706L0.252603 9.44855C0.066246 7.46902 -0.0269325 6.47822 0.312652 6.06927C0.398019 5.96265 0.503796 5.87413 0.623792 5.80889C0.743788 5.74365 0.875592 5.70299 1.01149 5.68931C1.5043 5.64583 2.12239 6.34984 3.35959 7.75788C3.99942 8.48674 4.31933 8.85014 4.67548 8.90708C4.8744 8.93809 5.07803 8.90548 5.25733 8.8139C5.58759 8.64825 5.80604 8.19789 6.24605 7.2982L8.56206 2.5523C9.39238 0.851275 9.80755 0.000244141 10.4391 0.000244141C11.0706 0.000244141 11.4858 0.851275 12.3161 2.5523L14.6321 7.2982C15.0711 8.19892 15.2906 8.64825 15.6209 8.8139C15.8031 8.90604 16.0039 8.93814 16.2027 8.90708C16.5588 8.85014 16.8788 8.48674 17.5186 7.75788C18.7558 6.34984 19.3739 5.64583 19.8667 5.68931C20.0026 5.70299 20.1344 5.74365 20.2544 5.80889C20.3744 5.87413 20.4802 5.96265 20.5655 6.06927C20.9041 6.47822 20.8109 7.46902 20.6245 9.44855Z" fill="white"/>
<path d="M11.4246 11.0773L11.3232 10.8951C10.9297 10.189 10.733 9.83594 10.439 9.83594C10.145 9.83594 9.94826 10.1879 9.55484 10.8951L9.45338 11.0773C9.34157 11.2781 9.28566 11.3775 9.1987 11.4438C9.11069 11.51 9.00199 11.5349 8.78457 11.5836L8.58786 11.6291C7.82379 11.802 7.44176 11.8879 7.35065 12.1799C7.25955 12.4729 7.52045 12.7773 8.04121 13.386L8.1758 13.5434C8.32385 13.7163 8.39839 13.8022 8.43153 13.9099C8.46466 14.0176 8.45327 14.1325 8.43153 14.3634L8.41082 14.5735C8.33214 15.3863 8.29279 15.7932 8.52988 15.9733C8.768 16.1534 9.12622 15.9888 9.84163 15.6596L10.0259 15.5747C10.2299 15.4815 10.3313 15.4339 10.439 15.4339C10.5467 15.4339 10.6481 15.4815 10.8521 15.5747L11.0364 15.6596C11.7518 15.9899 12.11 16.1534 12.3481 15.9733C12.5863 15.7932 12.5459 15.3863 12.4672 14.5735L12.4465 14.3634C12.4247 14.1325 12.4134 14.0176 12.4465 13.9099C12.4796 13.8033 12.5542 13.7163 12.7022 13.5434L12.8368 13.386C13.3576 12.7773 13.6185 12.4729 13.5274 12.1799C13.4362 11.8879 13.0542 11.802 12.2902 11.6291L12.0934 11.5836C11.876 11.5349 11.7673 11.5111 11.6793 11.4438C11.5923 11.3775 11.5364 11.2781 11.4246 11.0773Z" fill="#511A79"/>
</svg>
