<svg width="1920" height="4500" viewBox="0 0 1920 4500" fill="none" xmlns="http://www.w3.org/2000/svg">
<g clip-path="url(#clip0_43_9373)">
<rect width="1920" height="4500" fill="url(#paint0_linear_43_9373)"/>
<g opacity="0.7">
<g opacity="0.4">
<mask id="mask0_43_9373" style="mask-type:luminance" maskUnits="userSpaceOnUse" x="-3370" y="517" width="5937" height="3959">
<path d="M2566.04 517.016H-3369.81V4475.37H2566.04V517.016Z" fill="white"/>
</mask>
<g mask="url(#mask0_43_9373)">
<g opacity="0.27">
<path d="M2277.08 5013.79C2262.76 4997.4 1386.62 3795.48 1386.62 3795.48L1218.36 4727.6L2277.08 5013.87V5013.79Z" stroke="#8E2DE2" stroke-width="0.756994" stroke-linecap="round" stroke-linejoin="round"/>
<path d="M1386.7 3795.48L796.126 4245.47L1218.44 4727.52L1386.7 3795.48Z" stroke="#8E2DE2" stroke-width="0.756994" stroke-linecap="round" stroke-linejoin="round"/>
<path d="M2115.39 3552.76L1386.7 3795.48L2277.08 5013.79L2115.39 3552.76Z" stroke="#8E2DE2" stroke-width="0.756994" stroke-linecap="round" stroke-linejoin="round"/>
<path d="M1581.24 3098.65L2115.39 3552.76L1386.7 3795.48L1581.24 3098.65Z" stroke="#8E2DE2" stroke-width="0.756994" stroke-linecap="round" stroke-linejoin="round"/>
<path d="M1110.96 3090.74L1386.7 3795.48L796.126 4245.47L1110.96 3090.74Z" stroke="#8E2DE2" stroke-width="0.756994" stroke-linecap="round" stroke-linejoin="round"/>
<path d="M209.11 3627.65L796.126 4245.47L-540.31 4487.24L209.11 3627.65Z" stroke="#8E2DE2" stroke-width="0.756994" stroke-linecap="round" stroke-linejoin="round"/>
<path d="M1110.96 3090.74L484.851 3016.64L796.126 4245.47L1110.96 3090.74Z" stroke="#8E2DE2" stroke-width="0.756994" stroke-linecap="round" stroke-linejoin="round"/>
<path d="M1843.76 2629.59L2356.62 3074.59L1581.24 3098.65L1843.76 2629.59Z" stroke="#8E2DE2" stroke-width="0.756994" stroke-linecap="round" stroke-linejoin="round"/>
<path d="M209.11 3627.65L-359.464 3481.35L-540.31 4487.24L209.11 3627.65Z" stroke="#8E2DE2" stroke-width="0.756994" stroke-linecap="round" stroke-linejoin="round"/>
<path d="M209.111 3627.65L203.096 2973.89L-359.464 3481.35L209.111 3627.65Z" stroke="#8E2DE2" stroke-width="0.756994" stroke-linecap="round" stroke-linejoin="round"/>
<path d="M1840.68 2633.39C1842.5 2635.45 1845.58 2635.69 1847.64 2633.86C1849.7 2632.04 1849.94 2628.96 1848.12 2626.9C1846.3 2624.84 1843.21 2624.6 1841.15 2626.42C1839.09 2628.24 1838.86 2631.33 1840.68 2633.39Z" fill="#F9F5FF"/>
<path d="M1573.25 3105.62C1577.12 3110.05 1583.85 3110.45 1588.28 3106.65C1592.72 3102.77 1593.11 3096.04 1589.31 3091.61C1585.44 3087.18 1578.71 3086.78 1574.28 3090.58C1569.84 3094.46 1569.45 3101.19 1573.25 3105.62Z" fill="#F9F5FF"/>
<path d="M1378.16 3802.93C1382.27 3807.68 1389.47 3808.15 1394.14 3803.95C1398.89 3799.84 1399.37 3792.63 1395.17 3787.96C1391.06 3783.21 1383.85 3782.74 1379.18 3786.93C1374.44 3791.05 1373.96 3798.25 1378.16 3802.93Z" fill="#F9F5FF"/>
<path d="M1099.01 3101.19C1104.79 3107.76 1114.84 3108.47 1121.41 3102.69C1127.98 3096.91 1128.69 3086.86 1122.91 3080.29C1117.14 3073.72 1107.08 3073 1100.52 3078.78C1093.95 3084.56 1093.23 3094.62 1099.01 3101.19Z" fill="#F9F5FF"/>
<path d="M202.62 3633.35C205.786 3636.91 211.168 3637.31 214.809 3634.14C218.449 3630.97 218.766 3625.59 215.6 3621.95C212.434 3618.31 207.053 3617.99 203.412 3621.16C199.85 3624.32 199.454 3629.71 202.62 3633.35Z" fill="#F9F5FF"/>
<path d="M481.605 3020.83C483.425 3022.89 486.512 3023.13 488.57 3021.31C490.628 3019.49 490.865 3016.4 489.045 3014.34C487.224 3012.28 484.138 3012.05 482.08 3013.87C480.022 3015.69 479.785 3018.77 481.605 3020.83Z" fill="#F9F5FF"/>
<path d="M199.217 2977.92C201.037 2979.98 204.124 2980.22 206.182 2978.4C208.239 2976.58 208.477 2973.49 206.657 2971.43C204.836 2969.37 201.75 2969.14 199.692 2970.96C197.634 2972.78 197.397 2975.87 199.217 2977.92Z" fill="#F9F5FF"/>
</g>
</g>
<g opacity="0.49">
<mask id="mask1_43_9373" style="mask-type:luminance" maskUnits="userSpaceOnUse" x="-3370" y="517" width="5937" height="3959">
<path d="M2566.04 517.016H-3369.81V4475.37H2566.04V517.016Z" fill="white"/>
</mask>
<g mask="url(#mask1_43_9373)">
<g style="mix-blend-mode:overlay" opacity="0.22">
<path d="M168.351 857.909C173.028 857.909 176.819 854.117 176.819 849.438C176.819 844.76 173.028 840.968 168.351 840.968C163.674 840.968 159.883 844.76 159.883 849.438C159.883 854.117 163.674 857.909 168.351 857.909Z" fill="#F9F5FF"/>
<path d="M550.936 857.909C555.613 857.909 559.405 854.117 559.405 849.438C559.405 844.76 555.613 840.968 550.936 840.968C546.259 840.968 542.468 844.76 542.468 849.438C542.468 854.117 546.259 857.909 550.936 857.909Z" fill="#F9F5FF"/>
<path d="M933.521 857.909C938.198 857.909 941.989 854.117 941.989 849.438C941.989 844.76 938.198 840.968 933.521 840.968C928.844 840.968 925.053 844.76 925.053 849.438C925.053 854.117 928.844 857.909 933.521 857.909Z" fill="#F9F5FF"/>
<path d="M1316.11 857.909C1320.78 857.909 1324.57 854.117 1324.57 849.438C1324.57 844.76 1320.78 840.968 1316.11 840.968C1311.43 840.968 1307.64 844.76 1307.64 849.438C1307.64 854.117 1311.43 857.909 1316.11 857.909Z" fill="#F9F5FF"/>
<path d="M1698.69 857.909C1703.37 857.909 1707.16 854.117 1707.16 849.438C1707.16 844.76 1703.37 840.968 1698.69 840.968C1694.02 840.968 1690.22 844.76 1690.22 849.438C1690.22 854.117 1694.02 857.909 1698.69 857.909Z" fill="#F9F5FF"/>
<path d="M168.351 1223.27C173.028 1223.27 176.819 1219.47 176.819 1214.79C176.819 1210.12 173.028 1206.32 168.351 1206.32C163.674 1206.32 159.883 1210.12 159.883 1214.79C159.883 1219.47 163.674 1223.27 168.351 1223.27Z" fill="#F9F5FF"/>
<path d="M550.936 1223.27C555.613 1223.27 559.405 1219.47 559.405 1214.79C559.405 1210.12 555.613 1206.32 550.936 1206.32C546.259 1206.32 542.468 1210.12 542.468 1214.79C542.468 1219.47 546.259 1223.27 550.936 1223.27Z" fill="#F9F5FF"/>
<path d="M933.521 1223.27C938.198 1223.27 941.989 1219.47 941.989 1214.79C941.989 1210.12 938.198 1206.32 933.521 1206.32C928.844 1206.32 925.053 1210.12 925.053 1214.79C925.053 1219.47 928.844 1223.27 933.521 1223.27Z" fill="#F9F5FF"/>
<path d="M1316.11 1223.27C1320.78 1223.27 1324.57 1219.47 1324.57 1214.79C1324.57 1210.12 1320.78 1206.32 1316.11 1206.32C1311.43 1206.32 1307.64 1210.12 1307.64 1214.79C1307.64 1219.47 1311.43 1223.27 1316.11 1223.27Z" fill="#F9F5FF"/>
<path d="M1698.69 1223.27C1703.37 1223.27 1707.16 1219.47 1707.16 1214.79C1707.16 1210.12 1703.37 1206.32 1698.69 1206.32C1694.02 1206.32 1690.22 1210.12 1690.22 1214.79C1690.22 1219.47 1694.02 1223.27 1698.69 1223.27Z" fill="#F9F5FF"/>
<path d="M168.351 1588.54C173.028 1588.54 176.819 1584.75 176.819 1580.07C176.819 1575.39 173.028 1571.6 168.351 1571.6C163.674 1571.6 159.883 1575.39 159.883 1580.07C159.883 1584.75 163.674 1588.54 168.351 1588.54Z" fill="#F9F5FF"/>
<path d="M550.936 1588.54C555.613 1588.54 559.405 1584.75 559.405 1580.07C559.405 1575.39 555.613 1571.6 550.936 1571.6C546.259 1571.6 542.468 1575.39 542.468 1580.07C542.468 1584.75 546.259 1588.54 550.936 1588.54Z" fill="#F9F5FF"/>
<path d="M933.521 1588.54C938.198 1588.54 941.989 1584.75 941.989 1580.07C941.989 1575.39 938.198 1571.6 933.521 1571.6C928.844 1571.6 925.053 1575.39 925.053 1580.07C925.053 1584.75 928.844 1588.54 933.521 1588.54Z" fill="#F9F5FF"/>
<path d="M1316.11 1588.54C1320.78 1588.54 1324.57 1584.75 1324.57 1580.07C1324.57 1575.39 1320.78 1571.6 1316.11 1571.6C1311.43 1571.6 1307.64 1575.39 1307.64 1580.07C1307.64 1584.75 1311.43 1588.54 1316.11 1588.54Z" fill="#F9F5FF"/>
<path d="M1698.69 1588.54C1703.37 1588.54 1707.16 1584.75 1707.16 1580.07C1707.16 1575.39 1703.37 1571.6 1698.69 1571.6C1694.02 1571.6 1690.22 1575.39 1690.22 1580.07C1690.22 1584.75 1694.02 1588.54 1698.69 1588.54Z" fill="#F9F5FF"/>
<path d="M168.351 1953.82C173.028 1953.82 176.819 1950.03 176.819 1945.35C176.819 1940.67 173.028 1936.88 168.351 1936.88C163.674 1936.88 159.883 1940.67 159.883 1945.35C159.883 1950.03 163.674 1953.82 168.351 1953.82Z" fill="#F9F5FF"/>
<path d="M550.936 1953.82C555.613 1953.82 559.405 1950.03 559.405 1945.35C559.405 1940.67 555.613 1936.88 550.936 1936.88C546.259 1936.88 542.468 1940.67 542.468 1945.35C542.468 1950.03 546.259 1953.82 550.936 1953.82Z" fill="#F9F5FF"/>
<path d="M933.521 1953.82C938.198 1953.82 941.989 1950.03 941.989 1945.35C941.989 1940.67 938.198 1936.88 933.521 1936.88C928.844 1936.88 925.053 1940.67 925.053 1945.35C925.053 1950.03 928.844 1953.82 933.521 1953.82Z" fill="#F9F5FF"/>
<path d="M1316.11 1953.82C1320.78 1953.82 1324.57 1950.03 1324.57 1945.35C1324.57 1940.67 1320.78 1936.88 1316.11 1936.88C1311.43 1936.88 1307.64 1940.67 1307.64 1945.35C1307.64 1950.03 1311.43 1953.82 1316.11 1953.82Z" fill="#F9F5FF"/>
<path d="M1698.69 1953.82C1703.37 1953.82 1707.16 1950.03 1707.16 1945.35C1707.16 1940.67 1703.37 1936.88 1698.69 1936.88C1694.02 1936.88 1690.22 1940.67 1690.22 1945.35C1690.22 1950.03 1694.02 1953.82 1698.69 1953.82Z" fill="#F9F5FF"/>
<path d="M168.351 2319.18C173.028 2319.18 176.819 2315.38 176.819 2310.7C176.819 2306.03 173.028 2302.23 168.351 2302.23C163.674 2302.23 159.883 2306.03 159.883 2310.7C159.883 2315.38 163.674 2319.18 168.351 2319.18Z" fill="#F9F5FF"/>
<path d="M550.936 2319.18C555.613 2319.18 559.405 2315.38 559.405 2310.7C559.405 2306.03 555.613 2302.23 550.936 2302.23C546.259 2302.23 542.468 2306.03 542.468 2310.7C542.468 2315.38 546.259 2319.18 550.936 2319.18Z" fill="#F9F5FF"/>
<path d="M933.521 2319.18C938.198 2319.18 941.989 2315.38 941.989 2310.7C941.989 2306.03 938.198 2302.23 933.521 2302.23C928.844 2302.23 925.053 2306.03 925.053 2310.7C925.053 2315.38 928.844 2319.18 933.521 2319.18Z" fill="#F9F5FF"/>
<path d="M1316.11 2319.18C1320.78 2319.18 1324.57 2315.38 1324.57 2310.7C1324.57 2306.03 1320.78 2302.23 1316.11 2302.23C1311.43 2302.23 1307.64 2306.03 1307.64 2310.7C1307.64 2315.38 1311.43 2319.18 1316.11 2319.18Z" fill="#F9F5FF"/>
<path d="M1698.69 2319.18C1703.37 2319.18 1707.16 2315.38 1707.16 2310.7C1707.16 2306.03 1703.37 2302.23 1698.69 2302.23C1694.02 2302.23 1690.22 2306.03 1690.22 2310.7C1690.22 2315.38 1694.02 2319.18 1698.69 2319.18Z" fill="#F9F5FF"/>
<path d="M168.351 2684.45C173.028 2684.45 176.819 2680.66 176.819 2675.98C176.819 2671.3 173.028 2667.51 168.351 2667.51C163.674 2667.51 159.883 2671.3 159.883 2675.98C159.883 2680.66 163.674 2684.45 168.351 2684.45Z" fill="#F9F5FF"/>
<path d="M550.936 2684.45C555.613 2684.45 559.405 2680.66 559.405 2675.98C559.405 2671.3 555.613 2667.51 550.936 2667.51C546.259 2667.51 542.468 2671.3 542.468 2675.98C542.468 2680.66 546.259 2684.45 550.936 2684.45Z" fill="#F9F5FF"/>
<path d="M933.521 2684.45C938.198 2684.45 941.989 2680.66 941.989 2675.98C941.989 2671.3 938.198 2667.51 933.521 2667.51C928.844 2667.51 925.053 2671.3 925.053 2675.98C925.053 2680.66 928.844 2684.45 933.521 2684.45Z" fill="#F9F5FF"/>
<path d="M1316.11 2684.45C1320.78 2684.45 1324.57 2680.66 1324.57 2675.98C1324.57 2671.3 1320.78 2667.51 1316.11 2667.51C1311.43 2667.51 1307.64 2671.3 1307.64 2675.98C1307.64 2680.66 1311.43 2684.45 1316.11 2684.45Z" fill="#F9F5FF"/>
<path d="M1698.69 2684.45C1703.37 2684.45 1707.16 2680.66 1707.16 2675.98C1707.16 2671.3 1703.37 2667.51 1698.69 2667.51C1694.02 2667.51 1690.22 2671.3 1690.22 2675.98C1690.22 2680.66 1694.02 2684.45 1698.69 2684.45Z" fill="#F9F5FF"/>
<path d="M168.351 3049.73C173.028 3049.73 176.819 3045.94 176.819 3041.26C176.819 3036.58 173.028 3032.79 168.351 3032.79C163.674 3032.79 159.883 3036.58 159.883 3041.26C159.883 3045.94 163.674 3049.73 168.351 3049.73Z" fill="#F9F5FF"/>
<path d="M550.936 3049.73C555.613 3049.73 559.405 3045.94 559.405 3041.26C559.405 3036.58 555.613 3032.79 550.936 3032.79C546.259 3032.79 542.468 3036.58 542.468 3041.26C542.468 3045.94 546.259 3049.73 550.936 3049.73Z" fill="#F9F5FF"/>
<path d="M933.521 3049.73C938.198 3049.73 941.989 3045.94 941.989 3041.26C941.989 3036.58 938.198 3032.79 933.521 3032.79C928.844 3032.79 925.053 3036.58 925.053 3041.26C925.053 3045.94 928.844 3049.73 933.521 3049.73Z" fill="#F9F5FF"/>
<path d="M1316.11 3049.73C1320.78 3049.73 1324.57 3045.94 1324.57 3041.26C1324.57 3036.58 1320.78 3032.79 1316.11 3032.79C1311.43 3032.79 1307.64 3036.58 1307.64 3041.26C1307.64 3045.94 1311.43 3049.73 1316.11 3049.73Z" fill="#F9F5FF"/>
<path d="M1698.69 3049.73C1703.37 3049.73 1707.16 3045.94 1707.16 3041.26C1707.16 3036.58 1703.37 3032.79 1698.69 3032.79C1694.02 3032.79 1690.22 3036.58 1690.22 3041.26C1690.22 3045.94 1694.02 3049.73 1698.69 3049.73Z" fill="#F9F5FF"/>
<path d="M168.351 3415.09C173.028 3415.09 176.819 3411.29 176.819 3406.61C176.819 3401.94 173.028 3398.14 168.351 3398.14C163.674 3398.14 159.883 3401.94 159.883 3406.61C159.883 3411.29 163.674 3415.09 168.351 3415.09Z" fill="#F9F5FF"/>
<path d="M550.936 3415.09C555.613 3415.09 559.405 3411.29 559.405 3406.61C559.405 3401.94 555.613 3398.14 550.936 3398.14C546.259 3398.14 542.468 3401.94 542.468 3406.61C542.468 3411.29 546.259 3415.09 550.936 3415.09Z" fill="#F9F5FF"/>
<path d="M933.521 3415.09C938.198 3415.09 941.989 3411.29 941.989 3406.61C941.989 3401.94 938.198 3398.14 933.521 3398.14C928.844 3398.14 925.053 3401.94 925.053 3406.61C925.053 3411.29 928.844 3415.09 933.521 3415.09Z" fill="#F9F5FF"/>
<path d="M1316.11 3415.09C1320.78 3415.09 1324.57 3411.29 1324.57 3406.61C1324.57 3401.94 1320.78 3398.14 1316.11 3398.14C1311.43 3398.14 1307.64 3401.94 1307.64 3406.61C1307.64 3411.29 1311.43 3415.09 1316.11 3415.09Z" fill="#F9F5FF"/>
<path d="M1698.69 3415.09C1703.37 3415.09 1707.16 3411.29 1707.16 3406.61C1707.16 3401.94 1703.37 3398.14 1698.69 3398.14C1694.02 3398.14 1690.22 3401.94 1690.22 3406.61C1690.22 3411.29 1694.02 3415.09 1698.69 3415.09Z" fill="#F9F5FF"/>
<path d="M168.351 3780.36C173.028 3780.36 176.819 3776.57 176.819 3771.89C176.819 3767.21 173.028 3763.42 168.351 3763.42C163.674 3763.42 159.883 3767.21 159.883 3771.89C159.883 3776.57 163.674 3780.36 168.351 3780.36Z" fill="#F9F5FF"/>
<path d="M550.936 3780.36C555.613 3780.36 559.405 3776.57 559.405 3771.89C559.405 3767.21 555.613 3763.42 550.936 3763.42C546.259 3763.42 542.468 3767.21 542.468 3771.89C542.468 3776.57 546.259 3780.36 550.936 3780.36Z" fill="#F9F5FF"/>
<path d="M933.521 3780.36C938.198 3780.36 941.989 3776.57 941.989 3771.89C941.989 3767.21 938.198 3763.42 933.521 3763.42C928.844 3763.42 925.053 3767.21 925.053 3771.89C925.053 3776.57 928.844 3780.36 933.521 3780.36Z" fill="#F9F5FF"/>
<path d="M1316.11 3780.36C1320.78 3780.36 1324.57 3776.57 1324.57 3771.89C1324.57 3767.21 1320.78 3763.42 1316.11 3763.42C1311.43 3763.42 1307.64 3767.21 1307.64 3771.89C1307.64 3776.57 1311.43 3780.36 1316.11 3780.36Z" fill="#F9F5FF"/>
<path d="M1698.69 3780.36C1703.37 3780.36 1707.16 3776.57 1707.16 3771.89C1707.16 3767.21 1703.37 3763.42 1698.69 3763.42C1694.02 3763.42 1690.22 3767.21 1690.22 3771.89C1690.22 3776.57 1694.02 3780.36 1698.69 3780.36Z" fill="#F9F5FF"/>
</g>
</g>
</g>
<mask id="mask2_43_9373" style="mask-type:luminance" maskUnits="userSpaceOnUse" x="-3370" y="517" width="5937" height="3959">
<path d="M2566.04 517.016H-3369.81V4475.37H2566.04V517.016Z" fill="white"/>
</mask>
<g mask="url(#mask2_43_9373)">
<path d="M-251.512 4689.12C-251.512 4657.45 -119.577 3617.75 -119.577 3617.75L956.79 4475.37L-251.512 4689.12Z" stroke="#8E2DE2" stroke-width="1.11323" stroke-linecap="round" stroke-linejoin="round"/>
<path d="M-121.477 3617.12C-119.34 3618.94 958.769 3537.87 958.769 3543.65V3543.81C959.719 3660.03 960.826 3893.41 960.826 4009.55C960.826 4116.9 961.618 4311.49 961.776 4417.1C961.776 4425.02 961.855 4452.65 961.855 4460.8C961.855 4466.27 962.884 4472.04 957.423 4476.79C956.948 4477.35 956.078 4477.43 955.524 4476.95L-121.477 3617.2V3617.12ZM-117.677 3618.31L958.056 4473.79L954.812 4475.37C950.3 4470.54 952.042 4465.63 951.725 4460.8C951.725 4452.25 951.725 4426.21 951.804 4417.1C952.042 4312.29 952.516 4116.27 952.754 4009.55C952.754 3893.57 953.862 3659.71 954.812 3543.81L956.948 3545.79L-117.677 3618.31Z" fill="#8E2DE2"/>
<path d="M-491.716 2584.78C-383.208 2884.19 -223.415 3312.09 -112.455 3615.06L-120.131 3609.99L956.631 3541.75C962.092 3556.79 -492.19 2580.9 -491.716 2584.7V2584.78ZM-494.169 2581.69C-495.119 2585.34 967.79 3540.64 956.868 3545.79L-119.102 3625.35C-122.585 3625.59 -125.672 3623.45 -126.78 3620.29C-233.783 3315.33 -387.719 2881.5 -494.09 2581.69H-494.169Z" fill="#8E2DE2"/>
<path d="M2649.14 2527.86C2621.44 2551.61 956.79 3543.81 956.79 3543.81L2019.94 3869.74L2649.14 2527.86Z" stroke="#8E2DE2" stroke-width="1.11323" stroke-linecap="round" stroke-linejoin="round"/>
<path d="M1006.89 2306.19L956.79 3543.81L2649.14 2527.86L1006.89 2306.19Z" stroke="#8E2DE2" stroke-width="1.11323" stroke-linecap="round" stroke-linejoin="round"/>
<path d="M956.79 4475.37L1465.93 5199.75L2019.94 3869.74L956.79 4475.37Z" stroke="#8E2DE2" stroke-width="1.11323" stroke-linecap="round" stroke-linejoin="round"/>
<path d="M-492.903 2583.28L120.468 1902.44L956.79 3543.81L-492.903 2583.28Z" stroke="#8E2DE2" stroke-width="1.11323" stroke-linecap="round" stroke-linejoin="round"/>
<path d="M1006.89 2306.19L1488.33 1601.61L2649.14 2527.86L1006.89 2306.19Z" stroke="#8E2DE2" stroke-width="1.11323" stroke-linecap="round" stroke-linejoin="round"/>
<path d="M2019.94 3869.74L2649.14 4831.62L1465.93 5199.75L2019.94 3869.74Z" stroke="#8E2DE2" stroke-width="1.11323" stroke-linecap="round" stroke-linejoin="round"/>
<path d="M1007.13 2310.78C802.853 2068.93 581.485 1825.49 387.581 1583.79L1488.32 1599.63C1339.22 1835.31 1165.65 2074.31 1007.13 2310.78ZM1006.65 2301.52C1166.21 2072.65 1327.66 1820.9 1488.32 1603.51L387.581 1587.67C592.961 1810.21 801.508 2067.19 1006.65 2301.52Z" fill="#8E2DE2"/>
</g>
<mask id="mask3_43_9373" style="mask-type:luminance" maskUnits="userSpaceOnUse" x="-3370" y="517" width="5937" height="3959">
<path d="M2566.04 517.016H-3369.81V4475.37H2566.04V517.016Z" fill="white"/>
</mask>
<g mask="url(#mask3_43_9373)">
<path d="M995.65 3541.91C995.65 3563.44 978.238 3580.86 956.711 3580.86C935.184 3580.86 917.771 3563.44 917.771 3541.91C917.771 3520.38 935.184 3502.96 956.711 3502.96C978.238 3502.96 995.65 3520.38 995.65 3541.91Z" fill="#F9F5FF"/>
<path d="M1006.89 2318.7C1013.8 2318.7 1019.39 2313.1 1019.39 2306.19C1019.39 2299.28 1013.8 2293.68 1006.89 2293.68C999.983 2293.68 994.385 2299.28 994.385 2306.19C994.385 2313.1 999.983 2318.7 1006.89 2318.7Z" fill="#F9F5FF"/>
<path d="M128.068 1903.87C128.068 1907.82 124.823 1911.07 120.866 1911.07C116.908 1911.07 113.664 1907.82 113.664 1903.87C113.664 1899.91 116.908 1896.66 120.866 1896.66C124.823 1896.66 128.068 1899.91 128.068 1903.87Z" fill="#F9F5FF"/>
<path d="M395.655 1586.48C395.655 1590.44 392.411 1593.69 388.453 1593.69C384.496 1593.69 381.251 1590.44 381.251 1586.48C381.251 1582.53 384.496 1579.28 388.453 1579.28C392.411 1579.28 395.655 1582.53 395.655 1586.48Z" fill="#F9F5FF"/>
<path d="M1488.33 1613.48C1494.88 1613.48 1500.2 1608.16 1500.2 1601.61C1500.2 1595.05 1494.88 1589.73 1488.33 1589.73C1481.77 1589.73 1476.45 1595.05 1476.45 1601.61C1476.45 1608.16 1481.77 1613.48 1488.33 1613.48Z" fill="#F9F5FF"/>
</g>
<mask id="mask4_43_9373" style="mask-type:luminance" maskUnits="userSpaceOnUse" x="-3370" y="517" width="5937" height="3959">
<path d="M2566.04 517.016H-3369.81V4475.37H2566.04V517.016Z" fill="white"/>
</mask>
<g mask="url(#mask4_43_9373)">
<g style="mix-blend-mode:overlay" opacity="0.4">
<path d="M956.789 3620.37C913.497 3620.37 878.277 3585.14 878.277 3541.83C878.277 3498.53 913.497 3463.3 956.789 3463.3C1000.08 3463.3 1035.3 3498.53 1035.3 3541.83C1035.3 3585.14 1000.08 3620.37 956.789 3620.37Z" stroke="#F9F5FF" stroke-width="2.22645" stroke-miterlimit="10"/>
</g>
<g style="mix-blend-mode:overlay" opacity="0.25">
<path d="M388.452 1633.27C362.651 1633.27 341.678 1612.29 341.678 1586.48C341.678 1560.68 362.651 1539.7 388.452 1539.7C414.254 1539.7 435.227 1560.68 435.227 1586.48C435.227 1612.29 414.254 1633.27 388.452 1633.27Z" stroke="#F9F5FF" stroke-width="2.22645" stroke-miterlimit="10"/>
</g>
<g style="mix-blend-mode:overlay" opacity="0.2">
<path d="M932.413 883.085C950.99 883.085 966.049 868.021 966.049 849.439C966.049 830.857 950.99 815.793 932.413 815.793C913.836 815.793 898.776 830.857 898.776 849.439C898.776 868.021 913.836 883.085 932.413 883.085Z" stroke="#F9F5FF" stroke-width="1.60305" stroke-miterlimit="10"/>
</g>
<g style="mix-blend-mode:overlay" opacity="0.3">
<path d="M1828.01 1019.81C1846.59 1019.81 1861.65 1004.74 1861.65 986.161C1861.65 967.578 1846.59 952.514 1828.01 952.514C1809.44 952.514 1794.38 967.578 1794.38 986.161C1794.38 1004.74 1809.44 1019.81 1828.01 1019.81Z" stroke="#F9F5FF" stroke-width="1.60305" stroke-miterlimit="10"/>
</g>
<g style="mix-blend-mode:overlay" opacity="0.3">
<path d="M1218.44 4091.33C1237.02 4091.33 1252.08 4076.27 1252.08 4057.69C1252.08 4039.1 1237.02 4024.04 1218.44 4024.04C1199.87 4024.04 1184.81 4039.1 1184.81 4057.69C1184.81 4076.27 1199.87 4091.33 1218.44 4091.33Z" stroke="#F9F5FF" stroke-width="1.60305" stroke-miterlimit="10"/>
</g>
<g style="mix-blend-mode:overlay" opacity="0.3">
<path d="M734.868 2422.33C753.445 2422.33 768.505 2407.27 768.505 2388.68C768.505 2370.1 753.445 2355.04 734.868 2355.04C716.291 2355.04 701.232 2370.1 701.232 2388.68C701.232 2407.27 716.291 2422.33 734.868 2422.33Z" stroke="#F9F5FF" stroke-width="1.60305" stroke-miterlimit="10"/>
</g>
<g style="mix-blend-mode:overlay" opacity="0.3">
<path d="M1905.18 2288.93C1917.72 2288.93 1927.89 2278.76 1927.89 2266.21C1927.89 2253.66 1917.72 2243.49 1905.18 2243.49C1892.63 2243.49 1882.47 2253.66 1882.47 2266.21C1882.47 2278.76 1892.63 2288.93 1905.18 2288.93Z" stroke="#F9F5FF" stroke-width="1.09096" stroke-miterlimit="10"/>
</g>
<g style="mix-blend-mode:overlay" opacity="0.3">
<path d="M1488.33 1653.06C1516.74 1653.06 1539.77 1630.03 1539.77 1601.61C1539.77 1573.19 1516.74 1550.15 1488.33 1550.15C1459.91 1550.15 1436.88 1573.19 1436.88 1601.61C1436.88 1630.03 1459.91 1653.06 1488.33 1653.06Z" stroke="#F9F5FF" stroke-width="2.22645" stroke-miterlimit="10"/>
</g>
</g>
<mask id="mask5_43_9373" style="mask-type:luminance" maskUnits="userSpaceOnUse" x="-3370" y="517" width="5937" height="3959">
<path d="M2566.04 517.016H-3369.81V4475.37H2566.04V517.016Z" fill="white"/>
</mask>
<g mask="url(#mask5_43_9373)">
<path style="mix-blend-mode:screen" d="M387.583 1739.04C470.02 1739.04 536.85 1672.19 536.85 1589.73C536.85 1507.27 470.02 1440.42 387.583 1440.42C305.145 1440.42 238.316 1507.27 238.316 1589.73C238.316 1672.19 305.145 1739.04 387.583 1739.04Z" fill="url(#paint1_radial_43_9373)"/>
<path style="mix-blend-mode:screen" d="M1244.36 3611.3C1279.71 3461.47 1186.94 3311.34 1037.15 3275.97C887.363 3240.61 737.275 3333.4 701.922 3483.24C666.569 3633.07 759.337 3783.2 909.126 3818.56C1058.91 3853.92 1209 3761.13 1244.36 3611.3Z" fill="url(#paint2_radial_43_9373)"/>
<path style="mix-blend-mode:screen" d="M2140.6 3992.3C2205.97 3926.91 2205.97 3820.9 2140.6 3755.51C2075.23 3690.12 1969.24 3690.12 1903.87 3755.51C1838.5 3820.9 1838.5 3926.91 1903.87 3992.3C1969.24 4057.69 2075.23 4057.69 2140.6 3992.3Z" fill="url(#paint3_radial_43_9373)"/>
</g>
</g>
</g>
<g opacity="0.7">
<g opacity="0.4">
<mask id="mask6_43_9373" style="mask-type:luminance" maskUnits="userSpaceOnUse" x="-1856" y="-651" width="5937" height="3959">
<path d="M4080.24 3307.98H-1855.6V-650.37H4080.24V3307.98Z" fill="white"/>
</mask>
<g mask="url(#mask6_43_9373)">
<g opacity="0.27">
<path d="M1723.32 197.352L2310.33 -420.469L973.897 -662.245L1723.32 197.352Z" stroke="#8E2DE2" stroke-width="0.756994" stroke-linecap="round" stroke-linejoin="round"/>
<path d="M1723.32 197.352L1154.74 343.652L973.897 -662.245L1723.32 197.352Z" stroke="#8E2DE2" stroke-width="0.756994" stroke-linecap="round" stroke-linejoin="round"/>
<path d="M576.75 -481.585L973.897 -662.245L706.705 142.885L576.75 -481.585Z" stroke="#8E2DE2" stroke-width="0.756994" stroke-linecap="round" stroke-linejoin="round"/>
<path d="M1723.32 197.351L1717.3 851.113L1154.74 343.652L1723.32 197.351Z" stroke="#8E2DE2" stroke-width="0.756994" stroke-linecap="round" stroke-linejoin="round"/>
<path d="M1716.83 191.651C1719.99 188.088 1725.37 187.692 1729.02 190.859C1732.66 194.026 1732.97 199.409 1729.81 203.051C1726.64 206.692 1721.26 207.009 1717.62 203.843C1714.06 200.676 1713.66 195.292 1716.83 191.651Z" fill="#F9F5FF"/>
<path d="M1713.42 847.075C1715.24 845.017 1718.33 844.779 1720.39 846.6C1722.45 848.421 1722.68 851.509 1720.86 853.567C1719.04 855.625 1715.96 855.863 1713.9 854.042C1711.84 852.221 1711.6 849.134 1713.42 847.075Z" fill="#F9F5FF"/>
<path d="M1148.57 338.268C1151.58 334.864 1156.72 334.548 1160.12 337.477C1163.53 340.485 1163.84 345.631 1160.91 349.035C1157.91 352.439 1152.76 352.756 1149.36 349.827C1145.96 346.818 1145.64 341.672 1148.57 338.268Z" fill="#F9F5FF"/>
<path d="M703.776 138.688C705.597 136.629 708.683 136.392 710.741 138.213C712.799 140.033 713.036 143.121 711.216 145.179C709.396 147.238 706.309 147.475 704.251 145.654C702.193 143.833 701.956 140.746 703.776 138.688Z" fill="#E2C7FF"/>
</g>
<g opacity="0.27">
<path d="M749.68 3649.51C724.75 3646.66 -554.307 3269.67 -554.307 3269.67L-221.82 3958.97L749.68 3649.51Z" stroke="#8E2DE2" stroke-width="0.756994" stroke-linecap="round" stroke-linejoin="round"/>
<path d="M93.8879 2716.37L-554.307 3269.59L749.68 3649.51L93.8879 2716.37Z" stroke="#8E2DE2" stroke-width="0.756994" stroke-linecap="round" stroke-linejoin="round"/>
<path d="M93.8877 2716.37L674.651 2630.23L749.68 3649.51L93.8877 2716.37Z" stroke="#8E2DE2" stroke-width="0.756994" stroke-linecap="round" stroke-linejoin="round"/>
<path d="M1163.53 3511.29L749.68 3649.51L1099.34 2876.6L1163.53 3511.29Z" stroke="#8E2DE2" stroke-width="0.756994" stroke-linecap="round" stroke-linejoin="round"/>
<path d="M93.8877 2716.37L168.125 2066.8L674.651 2630.23L93.8877 2716.37Z" stroke="#8E2DE2" stroke-width="0.756994" stroke-linecap="round" stroke-linejoin="round"/>
<path d="M99.7449 2722.7C96.2625 2725.95 90.8015 2725.71 87.5565 2722.23C84.3116 2718.74 84.549 2713.28 88.0314 2710.03C91.5137 2706.79 96.9748 2707.03 100.22 2710.51C103.465 2713.99 103.227 2719.46 99.7449 2722.7Z" fill="#F9F5FF"/>
<path d="M171.449 2071.24C169.471 2073.14 166.305 2072.98 164.405 2071C162.506 2069.02 162.664 2065.85 164.643 2063.95C166.621 2062.05 169.787 2062.21 171.687 2064.19C173.586 2066.17 173.428 2069.34 171.449 2071.24Z" fill="#F9F5FF"/>
<path d="M680.191 2636.17C676.867 2639.26 671.722 2639.02 668.636 2635.7C665.549 2632.37 665.787 2627.23 669.111 2624.14C672.435 2621.05 677.579 2621.29 680.666 2624.61C683.752 2627.94 683.515 2633.08 680.191 2636.17Z" fill="#F9F5FF"/>
<path d="M1101.8 2881.12C1099.82 2883.02 1096.65 2882.86 1094.75 2880.88C1092.85 2878.9 1093.01 2875.73 1094.99 2873.83C1096.97 2871.93 1100.13 2872.09 1102.03 2874.07C1103.93 2876.05 1103.77 2879.22 1101.8 2881.12Z" fill="#E2C7FF"/>
</g>
</g>
<g opacity="0.49">
<mask id="mask7_43_9373" style="mask-type:luminance" maskUnits="userSpaceOnUse" x="-1856" y="-651" width="5937" height="3959">
<path d="M4080.24 3307.98H-1855.6V-650.37H4080.24V3307.98Z" fill="white"/>
</mask>
<g mask="url(#mask7_43_9373)">
<g style="mix-blend-mode:overlay" opacity="0.22">
<path d="M152.217 2967.09C156.894 2967.09 160.686 2970.88 160.686 2975.56C160.686 2980.24 156.894 2984.03 152.217 2984.03C147.54 2984.03 143.749 2980.24 143.749 2975.56C143.749 2970.88 147.54 2967.09 152.217 2967.09Z" fill="#F9F5FF"/>
<path d="M534.803 2967.09C539.48 2967.09 543.271 2970.88 543.271 2975.56C543.271 2980.24 539.48 2984.03 534.803 2984.03C530.126 2984.03 526.334 2980.24 526.334 2975.56C526.334 2970.88 530.126 2967.09 534.803 2967.09Z" fill="#F9F5FF"/>
<path d="M917.388 2967.09C922.065 2967.09 925.856 2970.88 925.856 2975.56C925.856 2980.24 922.065 2984.03 917.388 2984.03C912.711 2984.03 908.919 2980.24 908.919 2975.56C908.919 2970.88 912.711 2967.09 917.388 2967.09Z" fill="#F9F5FF"/>
<path d="M1308.44 2975.56C1308.44 2970.89 1304.64 2967.09 1299.97 2967.09C1295.3 2967.09 1291.5 2970.89 1291.5 2975.56C1291.5 2980.23 1295.3 2984.03 1299.97 2984.03C1304.64 2984.03 1308.44 2980.23 1308.44 2975.56Z" fill="#F9F5FF"/>
<path d="M1682.56 2967.09C1687.24 2967.09 1691.03 2970.88 1691.03 2975.56C1691.03 2980.24 1687.24 2984.03 1682.56 2984.03C1677.88 2984.03 1674.09 2980.24 1674.09 2975.56C1674.09 2970.88 1677.88 2967.09 1682.56 2967.09Z" fill="#F9F5FF"/>
<path d="M152.217 2601.73C156.894 2601.73 160.686 2605.53 160.686 2610.21C160.686 2614.88 156.894 2618.68 152.217 2618.68C147.54 2618.68 143.749 2614.88 143.749 2610.21C143.749 2605.53 147.54 2601.73 152.217 2601.73Z" fill="#F9F5FF"/>
<path d="M534.803 2601.73C539.48 2601.73 543.271 2605.53 543.271 2610.21C543.271 2614.88 539.48 2618.68 534.803 2618.68C530.126 2618.68 526.334 2614.88 526.334 2610.21C526.334 2605.53 530.126 2601.73 534.803 2601.73Z" fill="#F9F5FF"/>
<path d="M917.388 2601.73C922.065 2601.73 925.856 2605.53 925.856 2610.21C925.856 2614.88 922.065 2618.68 917.388 2618.68C912.711 2618.68 908.919 2614.88 908.919 2610.21C908.919 2605.53 912.711 2601.73 917.388 2601.73Z" fill="#F9F5FF"/>
<path d="M1308.44 2610.21C1308.44 2605.53 1304.64 2601.73 1299.97 2601.73C1295.3 2601.73 1291.5 2605.53 1291.5 2610.21C1291.5 2614.88 1295.3 2618.68 1299.97 2618.68C1304.64 2618.68 1308.44 2614.88 1308.44 2610.21Z" fill="#F9F5FF"/>
<path d="M1682.56 2601.73C1687.24 2601.73 1691.03 2605.53 1691.03 2610.21C1691.03 2614.88 1687.24 2618.68 1682.56 2618.68C1677.88 2618.68 1674.09 2614.88 1674.09 2610.21C1674.09 2605.53 1677.88 2601.73 1682.56 2601.73Z" fill="#F9F5FF"/>
<path d="M152.217 2236.46C156.894 2236.46 160.686 2240.25 160.686 2244.93C160.686 2249.61 156.894 2253.4 152.217 2253.4C147.54 2253.4 143.749 2249.61 143.749 2244.93C143.749 2240.25 147.54 2236.46 152.217 2236.46Z" fill="#F9F5FF"/>
<path d="M534.803 2236.46C539.48 2236.46 543.271 2240.25 543.271 2244.93C543.271 2249.61 539.48 2253.4 534.803 2253.4C530.126 2253.4 526.334 2249.61 526.334 2244.93C526.334 2240.25 530.126 2236.46 534.803 2236.46Z" fill="#F9F5FF"/>
<path d="M917.388 2236.46C922.065 2236.46 925.856 2240.25 925.856 2244.93C925.856 2249.61 922.065 2253.4 917.388 2253.4C912.711 2253.4 908.919 2249.61 908.919 2244.93C908.919 2240.25 912.711 2236.46 917.388 2236.46Z" fill="#F9F5FF"/>
<path d="M1308.44 2244.93C1308.44 2240.26 1304.64 2236.46 1299.97 2236.46C1295.3 2236.46 1291.5 2240.26 1291.5 2244.93C1291.5 2249.6 1295.3 2253.4 1299.97 2253.4C1304.64 2253.4 1308.44 2249.6 1308.44 2244.93Z" fill="#F9F5FF"/>
<path d="M1682.56 2236.46C1687.24 2236.46 1691.03 2240.25 1691.03 2244.93C1691.03 2249.61 1687.24 2253.4 1682.56 2253.4C1677.88 2253.4 1674.09 2249.61 1674.09 2244.93C1674.09 2240.25 1677.88 2236.46 1682.56 2236.46Z" fill="#F9F5FF"/>
<path d="M152.217 1871.18C156.894 1871.18 160.686 1874.97 160.686 1879.65C160.686 1884.33 156.894 1888.12 152.217 1888.12C147.54 1888.12 143.749 1884.33 143.749 1879.65C143.749 1874.97 147.54 1871.18 152.217 1871.18Z" fill="#F9F5FF"/>
<path d="M534.803 1871.18C539.48 1871.18 543.271 1874.97 543.271 1879.65C543.271 1884.33 539.48 1888.12 534.803 1888.12C530.126 1888.12 526.334 1884.33 526.334 1879.65C526.334 1874.97 530.126 1871.18 534.803 1871.18Z" fill="#F9F5FF"/>
<path d="M917.388 1871.18C922.065 1871.18 925.856 1874.97 925.856 1879.65C925.856 1884.33 922.065 1888.12 917.388 1888.12C912.711 1888.12 908.919 1884.33 908.919 1879.65C908.919 1874.97 912.711 1871.18 917.388 1871.18Z" fill="#F9F5FF"/>
<path d="M1308.44 1879.65C1308.44 1874.98 1304.64 1871.18 1299.97 1871.18C1295.3 1871.18 1291.5 1874.98 1291.5 1879.65C1291.5 1884.32 1295.3 1888.12 1299.97 1888.12C1304.64 1888.12 1308.44 1884.32 1308.44 1879.65Z" fill="#F9F5FF"/>
<path d="M1682.56 1871.18C1687.24 1871.18 1691.03 1874.97 1691.03 1879.65C1691.03 1884.33 1687.24 1888.12 1682.56 1888.12C1677.88 1888.12 1674.09 1884.33 1674.09 1879.65C1674.09 1874.97 1677.88 1871.18 1682.56 1871.18Z" fill="#F9F5FF"/>
<path d="M152.217 1505.82C156.894 1505.82 160.686 1509.62 160.686 1514.3C160.686 1518.97 156.894 1522.77 152.217 1522.77C147.54 1522.77 143.749 1518.97 143.749 1514.3C143.749 1509.62 147.54 1505.82 152.217 1505.82Z" fill="#F9F5FF"/>
<path d="M534.803 1505.82C539.48 1505.82 543.271 1509.62 543.271 1514.3C543.271 1518.97 539.48 1522.77 534.803 1522.77C530.126 1522.77 526.334 1518.97 526.334 1514.3C526.334 1509.62 530.126 1505.82 534.803 1505.82Z" fill="#F9F5FF"/>
<path d="M917.388 1505.82C922.065 1505.82 925.856 1509.62 925.856 1514.3C925.856 1518.97 922.065 1522.77 917.388 1522.77C912.711 1522.77 908.919 1518.97 908.919 1514.3C908.919 1509.62 912.711 1505.82 917.388 1505.82Z" fill="#F9F5FF"/>
<path d="M1308.44 1514.3C1308.44 1509.62 1304.64 1505.82 1299.97 1505.82C1295.3 1505.82 1291.5 1509.62 1291.5 1514.3C1291.5 1518.97 1295.3 1522.77 1299.97 1522.77C1304.64 1522.77 1308.44 1518.97 1308.44 1514.3Z" fill="#F9F5FF"/>
<path d="M1682.56 1505.82C1687.24 1505.82 1691.03 1509.62 1691.03 1514.3C1691.03 1518.97 1687.24 1522.77 1682.56 1522.77C1677.88 1522.77 1674.09 1518.97 1674.09 1514.3C1674.09 1509.62 1677.88 1505.82 1682.56 1505.82Z" fill="#F9F5FF"/>
<path d="M152.217 1140.55C156.894 1140.55 160.686 1144.34 160.686 1149.02C160.686 1153.7 156.894 1157.49 152.217 1157.49C147.54 1157.49 143.749 1153.7 143.749 1149.02C143.749 1144.34 147.54 1140.55 152.217 1140.55Z" fill="#F9F5FF"/>
<path d="M534.803 1140.55C539.48 1140.55 543.271 1144.34 543.271 1149.02C543.271 1153.7 539.48 1157.49 534.803 1157.49C530.126 1157.49 526.334 1153.7 526.334 1149.02C526.334 1144.34 530.126 1140.55 534.803 1140.55Z" fill="#F9F5FF"/>
<path d="M917.388 1140.55C922.065 1140.55 925.856 1144.34 925.856 1149.02C925.856 1153.7 922.065 1157.49 917.388 1157.49C912.711 1157.49 908.919 1153.7 908.919 1149.02C908.919 1144.34 912.711 1140.55 917.388 1140.55Z" fill="#F9F5FF"/>
<path d="M1308.44 1149.02C1308.44 1144.35 1304.64 1140.55 1299.97 1140.55C1295.3 1140.55 1291.5 1144.35 1291.5 1149.02C1291.5 1153.69 1295.3 1157.49 1299.97 1157.49C1304.64 1157.49 1308.44 1153.69 1308.44 1149.02Z" fill="#F9F5FF"/>
<path d="M1682.56 1140.55C1687.24 1140.55 1691.03 1144.34 1691.03 1149.02C1691.03 1153.7 1687.24 1157.49 1682.56 1157.49C1677.88 1157.49 1674.09 1153.7 1674.09 1149.02C1674.09 1144.34 1677.88 1140.55 1682.56 1140.55Z" fill="#F9F5FF"/>
<path d="M152.217 775.271C156.894 775.271 160.686 779.063 160.686 783.741C160.686 788.42 156.894 792.212 152.217 792.212C147.54 792.212 143.749 788.42 143.749 783.741C143.749 779.063 147.54 775.271 152.217 775.271Z" fill="#F9F5FF"/>
<path d="M534.803 775.271C539.48 775.271 543.271 779.063 543.271 783.741C543.271 788.42 539.48 792.212 534.803 792.212C530.126 792.212 526.334 788.42 526.334 783.741C526.334 779.063 530.126 775.271 534.803 775.271Z" fill="#F9F5FF"/>
<path d="M917.388 775.271C922.065 775.271 925.856 779.063 925.856 783.741C925.856 788.42 922.065 792.212 917.388 792.212C912.711 792.212 908.919 788.42 908.919 783.741C908.919 779.063 912.711 775.271 917.388 775.271Z" fill="#F9F5FF"/>
<path d="M1308.44 783.741C1308.44 779.07 1304.64 775.271 1299.97 775.271C1295.3 775.271 1291.5 779.07 1291.5 783.741C1291.5 788.412 1295.3 792.212 1299.97 792.212C1304.64 792.212 1308.44 788.412 1308.44 783.741Z" fill="#F9F5FF"/>
<path d="M1682.56 775.271C1687.24 775.271 1691.03 779.063 1691.03 783.741C1691.03 788.42 1687.24 792.212 1682.56 792.212C1677.88 792.212 1674.09 788.42 1674.09 783.741C1674.09 779.063 1677.88 775.271 1682.56 775.271Z" fill="#F9F5FF"/>
<path d="M152.217 409.915C156.894 409.915 160.686 413.707 160.686 418.385C160.686 423.064 156.894 426.856 152.217 426.856C147.54 426.856 143.749 423.064 143.749 418.385C143.749 413.707 147.54 409.915 152.217 409.915Z" fill="#F9F5FF"/>
<path d="M534.803 409.915C539.48 409.915 543.271 413.707 543.271 418.385C543.271 423.064 539.48 426.856 534.803 426.856C530.126 426.856 526.334 423.064 526.334 418.385C526.334 413.707 530.126 409.915 534.803 409.915Z" fill="#F9F5FF"/>
<path d="M917.388 409.915C922.065 409.915 925.856 413.707 925.856 418.385C925.856 423.064 922.065 426.856 917.388 426.856C912.711 426.856 908.919 423.064 908.919 418.385C908.919 413.707 912.711 409.915 917.388 409.915Z" fill="#F9F5FF"/>
<path d="M1308.44 418.385C1308.44 413.715 1304.64 409.915 1299.97 409.915C1295.3 409.915 1291.5 413.715 1291.5 418.385C1291.5 423.056 1295.3 426.856 1299.97 426.856C1304.64 426.856 1308.44 423.056 1308.44 418.385Z" fill="#F9F5FF"/>
<path d="M1682.56 409.915C1687.24 409.915 1691.03 413.707 1691.03 418.385C1691.03 423.064 1687.24 426.856 1682.56 426.856C1677.88 426.856 1674.09 423.064 1674.09 418.385C1674.09 413.707 1677.88 409.915 1682.56 409.915Z" fill="#F9F5FF"/>
<path d="M152.217 44.6375C156.894 44.6375 160.686 48.4301 160.686 53.1084C160.686 57.7867 156.894 61.5793 152.217 61.5793C147.54 61.5793 143.749 57.7867 143.749 53.1084C143.749 48.4301 147.54 44.6375 152.217 44.6375Z" fill="#F9F5FF"/>
<path d="M534.803 44.6375C539.48 44.6375 543.271 48.4301 543.271 53.1084C543.271 57.7867 539.48 61.5793 534.803 61.5793C530.126 61.5793 526.334 57.7867 526.334 53.1084C526.334 48.4301 530.126 44.6375 534.803 44.6375Z" fill="#F9F5FF"/>
<path d="M917.388 44.6375C922.065 44.6375 925.856 48.4301 925.856 53.1084C925.856 57.7867 922.065 61.5793 917.388 61.5793C912.711 61.5793 908.919 57.7867 908.919 53.1084C908.919 48.4301 912.711 44.6375 917.388 44.6375Z" fill="#F9F5FF"/>
<path d="M1308.44 53.1084C1308.44 48.4376 1304.64 44.6375 1299.97 44.6375C1295.3 44.6375 1291.5 48.4376 1291.5 53.1084C1291.5 57.7793 1295.3 61.5793 1299.97 61.5793C1304.64 61.5793 1308.44 57.7793 1308.44 53.1084Z" fill="#F9F5FF"/>
<path d="M1682.56 44.6375C1687.24 44.6375 1691.03 48.4301 1691.03 53.1084C1691.03 57.7867 1687.24 61.5793 1682.56 61.5793C1677.88 61.5793 1674.09 57.7867 1674.09 53.1084C1674.09 48.4301 1677.88 44.6375 1682.56 44.6375Z" fill="#F9F5FF"/>
</g>
</g>
</g>
<mask id="mask8_43_9373" style="mask-type:luminance" maskUnits="userSpaceOnUse" x="-1856" y="-651" width="5937" height="3959">
<path d="M4080.24 3307.98H-1855.6V-650.37H4080.24V3307.98Z" fill="white"/>
</mask>
<g mask="url(#mask8_43_9373)">
<path d="M1262.7 -864.121C1262.7 -832.455 1394.63 207.247 1394.63 207.247L2471 -650.37L1262.7 -864.121Z" stroke="#8E2DE2" stroke-width="1.11323" stroke-linecap="round" stroke-linejoin="round"/>
<path d="M1392.73 207.881C1394.87 206.06 2472.98 287.127 2472.98 281.347V281.189C2473.93 164.972 2475.03 -68.4125 2475.03 -184.551C2475.03 -291.901 2475.82 -486.494 2475.98 -592.103C2475.98 -600.02 2476.06 -627.649 2476.06 -635.803C2476.06 -641.266 2477.09 -647.045 2471.63 -651.795C2471.16 -652.349 2470.29 -652.428 2469.73 -651.953L1392.73 207.801V207.881ZM1396.53 206.693L2472.26 -648.786L2469.02 -650.37C2464.51 -645.541 2466.25 -640.632 2465.93 -635.803C2465.93 -627.253 2465.93 -601.207 2466.01 -592.103C2466.25 -487.286 2466.72 -291.268 2466.96 -184.551C2466.96 -68.5709 2468.07 165.288 2469.02 281.189L2471.16 279.21L1396.53 206.693Z" fill="#8E2DE2"/>
<path d="M365.75 -225.481L1394.63 207.326L1262.7 -864.121L365.75 -225.481Z" stroke="#8E2DE2" stroke-width="1.11323" stroke-linecap="round" stroke-linejoin="round"/>
<path d="M514.779 782.554L365.75 -225.481L1394.63 207.326L514.779 782.554Z" stroke="#8E2DE2" stroke-width="1.11323" stroke-linecap="round" stroke-linejoin="round"/>
<path d="M1022.49 1240.22C1131 940.809 1290.79 512.911 1401.75 209.938L1394.08 215.005L2470.84 283.247C2476.3 268.205 1022.02 1244.1 1022.49 1240.3V1240.22ZM1020.04 1243.31C1019.09 1239.66 2482 284.355 2471.08 279.209L1395.11 199.647C1391.62 199.409 1388.54 201.547 1387.43 204.714C1280.42 509.665 1126.49 943.501 1020.12 1243.31H1020.04Z" fill="#8E2DE2"/>
<path d="M1021.3 1241.72L1634.68 1922.56L2471 281.189L1021.3 1241.72Z" stroke="#8E2DE2" stroke-width="1.11323" stroke-linecap="round" stroke-linejoin="round"/>
<path d="M-921.695 -753.288L-355.811 66.0917L365.75 -225.481L-921.695 -753.288Z" stroke="#8E2DE2" stroke-width="1.11323" stroke-linecap="round" stroke-linejoin="round"/>
<path d="M-220.237 1042.14C-222.295 1041.98 -349.638 56.4334 -357.078 67.6751L511.218 786.908L512.88 777.408L-220.316 1042.22L-220.237 1042.14ZM-222.294 1045.55L516.6 787.858C519.449 786.829 521.032 783.662 520.003 780.812C521.744 778.516 -354.387 66.3292 -354.545 64.6667C-365.151 60.55 -219.129 1043.81 -222.294 1045.63V1045.55Z" fill="#8E2DE2"/>
<path d="M2521.33 1514.22C2317.06 1756.07 2095.69 1999.51 1901.79 2241.21L3002.53 2225.37C2853.42 1989.69 2679.86 1750.69 2521.33 1514.22ZM2520.86 1523.48C2680.41 1752.35 2841.87 2004.1 3002.53 2221.49L1901.79 2237.33C2107.17 2014.79 2315.72 1757.81 2520.86 1523.48Z" fill="#8E2DE2"/>
</g>
<mask id="mask9_43_9373" style="mask-type:luminance" maskUnits="userSpaceOnUse" x="-1856" y="-651" width="5937" height="3959">
<path d="M4080.24 3307.98H-1855.6V-650.37H4080.24V3307.98Z" fill="white"/>
</mask>
<g mask="url(#mask9_43_9373)">
<path d="M514.779 767.116C523.303 767.116 530.212 774.028 530.212 782.554C530.212 791.08 523.303 797.992 514.779 797.992C506.255 797.992 499.346 791.08 499.346 782.554C499.346 774.028 506.255 767.116 514.779 767.116Z" fill="#F9F5FF"/>
<path d="M1411.09 207.326C1411.09 198.222 1403.73 190.859 1394.63 190.859C1385.53 190.859 1378.17 198.222 1378.17 207.326C1378.17 216.431 1385.53 223.793 1394.63 223.793C1403.73 223.793 1411.09 216.431 1411.09 207.326Z" fill="#F9F5FF"/>
<path d="M1021.3 1218.61C1034.07 1218.61 1044.42 1228.96 1044.42 1241.72C1044.42 1254.49 1034.07 1264.84 1021.3 1264.84C1008.54 1264.84 998.195 1254.49 998.195 1241.72C998.195 1228.96 1008.54 1218.61 1021.3 1218.61Z" fill="#F9F5FF"/>
<path d="M1642.27 1921.13C1642.27 1917.18 1639.03 1913.93 1635.07 1913.93C1631.11 1913.93 1627.87 1917.18 1627.87 1921.13C1627.87 1925.09 1631.11 1928.34 1635.07 1928.34C1639.03 1928.34 1642.27 1925.09 1642.27 1921.13Z" fill="#F9F5FF"/>
<path d="M1909.86 2238.52C1909.86 2234.56 1906.62 2231.31 1902.66 2231.31C1898.7 2231.31 1895.46 2234.56 1895.46 2238.52C1895.46 2242.47 1898.7 2245.72 1902.66 2245.72C1906.62 2245.72 1909.86 2242.47 1909.86 2238.52Z" fill="#F9F5FF"/>
</g>
<mask id="mask10_43_9373" style="mask-type:luminance" maskUnits="userSpaceOnUse" x="-1856" y="-651" width="5937" height="3959">
<path d="M4080.24 3307.98H-1855.6V-650.37H4080.24V3307.98Z" fill="white"/>
</mask>
<g mask="url(#mask10_43_9373)">
<g style="mix-blend-mode:overlay" opacity="0.3">
<path d="M514.779 727.533C545.158 727.533 569.784 752.166 569.784 782.554C569.784 812.941 545.158 837.575 514.779 837.575C484.4 837.575 459.773 812.941 459.773 782.554C459.773 752.166 484.4 727.533 514.779 727.533Z" stroke="#F9F5FF" stroke-width="2.22645" stroke-miterlimit="10"/>
</g>
<g style="mix-blend-mode:overlay" opacity="0.3">
<path d="M1394.63 151.196C1363.69 151.196 1338.6 176.372 1338.6 207.247C1338.6 238.122 1363.76 263.297 1394.63 263.297C1425.5 263.297 1450.66 238.122 1450.66 207.247C1450.66 176.372 1425.5 151.196 1394.63 151.196Z" stroke="#F9F5FF" stroke-width="2.22645" stroke-miterlimit="10"/>
</g>
<g style="mix-blend-mode:overlay" opacity="0.3">
<path d="M1021.3 1179.02C1055.92 1179.02 1083.99 1207.09 1083.99 1241.72C1083.99 1276.35 1055.92 1304.42 1021.3 1304.42C986.686 1304.42 958.622 1276.35 958.622 1241.72C958.622 1207.09 986.686 1179.02 1021.3 1179.02Z" stroke="#F9F5FF" stroke-width="2.22645" stroke-miterlimit="10"/>
</g>
<g style="mix-blend-mode:overlay" opacity="0.25">
<path d="M1902.66 2191.73C1876.86 2191.73 1855.89 2212.71 1855.89 2238.52C1855.89 2264.32 1876.86 2285.3 1902.66 2285.3C1928.46 2285.3 1949.43 2264.32 1949.43 2238.52C1949.43 2212.71 1928.46 2191.73 1902.66 2191.73Z" stroke="#F9F5FF" stroke-width="2.22645" stroke-miterlimit="10"/>
</g>
<g style="mix-blend-mode:overlay" opacity="0.3">
<path d="M702.589 1552.45C721.166 1552.45 736.225 1567.52 736.225 1586.1C736.225 1604.68 721.166 1619.75 702.589 1619.75C684.012 1619.75 668.952 1604.68 668.952 1586.1C668.952 1567.52 684.012 1552.45 702.589 1552.45Z" stroke="#F9F5FF" stroke-width="1.60305" stroke-miterlimit="10"/>
</g>
<g style="mix-blend-mode:overlay" opacity="0.3">
<path d="M93.888 2692.22C107.22 2692.22 118.027 2703.03 118.027 2716.37C118.027 2729.7 107.22 2740.51 93.888 2740.51C80.5564 2740.51 69.749 2729.7 69.749 2716.37C69.749 2703.03 80.5564 2692.22 93.888 2692.22Z" stroke="#F9F5FF" stroke-width="1.15776" stroke-miterlimit="10"/>
</g>
<g style="mix-blend-mode:overlay" opacity="0.3">
<path d="M7.62036 579.49C26.1973 579.49 41.2568 594.554 41.2568 613.136C41.2568 631.718 26.1973 646.782 7.62036 646.782C-10.9566 646.782 -26.0161 631.718 -26.0161 613.136C-26.0161 594.554 -10.9566 579.49 7.62036 579.49Z" stroke="#F9F5FF" stroke-width="1.60305" stroke-miterlimit="10"/>
</g>
<g style="mix-blend-mode:overlay" opacity="0.2">
<path d="M1299.97 750.096C1318.55 750.096 1333.61 765.16 1333.61 783.742C1333.61 802.324 1318.55 817.388 1299.97 817.388C1281.4 817.388 1266.34 802.324 1266.34 783.742C1266.34 765.16 1281.4 750.096 1299.97 750.096Z" stroke="#F9F5FF" stroke-width="1.60305" stroke-miterlimit="10"/>
</g>
</g>
<mask id="mask11_43_9373" style="mask-type:luminance" maskUnits="userSpaceOnUse" x="-1856" y="-651" width="5937" height="3959">
<path d="M4080.24 3307.98H-1855.6V-650.37H4080.24V3307.98Z" fill="white"/>
</mask>
<g mask="url(#mask11_43_9373)">
<path style="mix-blend-mode:screen" d="M1901.79 2085.96C1984.23 2085.96 2051.06 2152.81 2051.06 2235.27C2051.06 2317.73 1984.23 2384.58 1901.79 2384.58C1819.35 2384.58 1752.52 2317.73 1752.52 2235.27C1752.52 2152.81 1819.35 2085.96 1901.79 2085.96Z" fill="url(#paint4_radial_43_9373)"/>
<path style="mix-blend-mode:screen" d="M1218.34 1044.64C1327.17 1153.49 1327.17 1329.99 1218.34 1438.85C1109.51 1547.7 933.072 1547.7 824.245 1438.85C715.418 1329.99 715.418 1153.49 824.245 1044.64C933.072 935.78 1109.51 935.78 1218.34 1044.64Z" fill="url(#paint5_radial_43_9373)"/>
<path style="mix-blend-mode:screen" d="M510.822 633.245C593.26 633.245 660.089 700.093 660.089 782.554C660.089 865.015 593.26 931.863 510.822 931.863C428.384 931.863 361.555 865.015 361.555 782.554C361.555 700.093 428.384 633.245 510.822 633.245Z" fill="url(#paint6_radial_43_9373)"/>
</g>
</g>
</g>
</g>
<defs>
<linearGradient id="paint0_linear_43_9373" x1="1504.5" y1="-703.125" x2="-781.782" y2="149.624" gradientUnits="userSpaceOnUse">
<stop stop-color="#4E0062"/>
<stop offset="1" stop-color="#220076"/>
</linearGradient>
<clipPath id="clip0_43_9373">
<rect width="1920" height="4500" fill="white"/>
</clipPath>
</defs>
</svg>
