<svg width="22" height="22" viewBox="0 0 22 22" fill="none" xmlns="http://www.w3.org/2000/svg">
<path opacity="0.5" d="M10.9999 20.1666C16.0627 20.1666 20.1666 16.0627 20.1666 11C20.1666 5.93723 16.0627 1.83331 10.9999 1.83331C5.93717 1.83331 1.83325 5.93723 1.83325 11C1.83325 12.4666 2.17792 13.8526 2.78934 15.0819C2.9525 15.4082 3.00659 15.7813 2.91217 16.1342L2.36675 18.1747C2.31273 18.3767 2.31278 18.5893 2.36689 18.7912C2.42101 18.9931 2.52728 19.1772 2.67504 19.3251C2.8228 19.4729 3.00686 19.5793 3.20873 19.6335C3.41061 19.6878 3.6232 19.688 3.82517 19.6341L5.86567 19.0877C6.21987 18.9986 6.59444 19.0419 6.91892 19.2096C8.1866 19.8409 9.58377 20.1685 10.9999 20.1666Z" fill="#F8F8F8"/>
<path d="M11.6876 7.33331C11.6876 7.15098 11.6151 6.97611 11.4862 6.84718C11.3573 6.71825 11.1824 6.64581 11.0001 6.64581C10.8177 6.64581 10.6429 6.71825 10.5139 6.84718C10.385 6.97611 10.3126 7.15098 10.3126 7.33331V7.34248C9.31433 7.59456 8.47925 8.38106 8.47925 9.4719C8.47925 10.8075 9.7305 11.6875 11.0001 11.6875C11.7554 11.6875 12.1459 12.1761 12.1459 12.5281C12.1459 12.8801 11.7554 13.3677 11.0001 13.3677C10.2447 13.3677 9.85425 12.8801 9.85425 12.5281C9.85425 12.3457 9.78181 12.1709 9.65288 12.0419C9.52395 11.913 9.34908 11.8406 9.16675 11.8406C8.98441 11.8406 8.80954 11.913 8.68061 12.0419C8.55168 12.1709 8.47925 12.3457 8.47925 12.5281C8.47925 13.6189 9.31433 14.4063 10.3126 14.6575V14.6666C10.3126 14.849 10.385 15.0239 10.5139 15.1528C10.6429 15.2817 10.8177 15.3541 11.0001 15.3541C11.1824 15.3541 11.3573 15.2817 11.4862 15.1528C11.6151 15.0239 11.6876 14.849 11.6876 14.6666V14.6575C12.6858 14.4063 13.5209 13.6189 13.5209 12.5281C13.5209 11.1925 12.2697 10.3125 11.0001 10.3125C10.2447 10.3125 9.85425 9.8239 9.85425 9.4719C9.85425 9.1199 10.2447 8.63223 11.0001 8.63223C11.7554 8.63223 12.1459 9.1199 12.1459 9.4719C12.1459 9.65423 12.2183 9.8291 12.3473 9.95803C12.4762 10.087 12.6511 10.1594 12.8334 10.1594C13.0158 10.1594 13.1906 10.087 13.3196 9.95803C13.4485 9.8291 13.5209 9.65423 13.5209 9.4719C13.5209 8.38106 12.6858 7.59456 11.6876 7.34248V7.33331Z" fill="#F8F8F8"/>
</svg>
