<svg width="22" height="21" viewBox="0 0 22 21" fill="none" xmlns="http://www.w3.org/2000/svg">
<path opacity="0.5" d="M11.9915 20.893H9.69872C6.12584 20.893 4.33992 20.893 3.12201 19.844C1.9041 18.7951 1.65119 17.0402 1.1464 13.5285L0.857213 11.5208C0.463336 8.78747 0.266398 7.4203 0.827154 6.25214C1.38687 5.08399 2.57991 4.37294 4.96494 2.95291L6.40051 2.09778C8.56477 0.807312 9.64896 0.162598 10.8451 0.162598C12.0412 0.162598 13.1244 0.807312 15.2897 2.09778L16.7253 2.95291C19.1093 4.37294 20.3023 5.08399 20.8631 6.25214C21.4228 7.4203 21.2258 8.78747 20.832 11.5208L20.5438 13.5285C20.039 17.0402 19.7861 18.7951 18.5682 19.844C17.3503 20.893 15.5644 20.893 11.9915 20.893Z" fill="#511A79"/>
<path d="M6.95825 16.7469C6.95825 16.5407 7.04016 16.343 7.18594 16.1972C7.33173 16.0514 7.52946 15.9695 7.73564 15.9695H13.9548C14.1609 15.9695 14.3587 16.0514 14.5044 16.1972C14.6502 16.343 14.7321 16.5407 14.7321 16.7469C14.7321 16.953 14.6502 17.1508 14.5044 17.2966C14.3587 17.4424 14.1609 17.5243 13.9548 17.5243H7.73564C7.52946 17.5243 7.33173 17.4424 7.18594 17.2966C7.04016 17.1508 6.95825 16.953 6.95825 16.7469Z" fill="#541A79"/>
</svg>
