<svg width="88" height="83" viewBox="0 0 88 83" fill="none" xmlns="http://www.w3.org/2000/svg">
<path d="M52.8001 65.5263V74.2632L61.6001 78.6316V83H26.4002L26.3826 78.6491L35.2001 74.2632V65.5263H4.36501C3.78686 65.5229 3.21507 65.4062 2.68247 65.1828C2.14988 64.9594 1.66695 64.6338 1.26141 64.2247C0.855869 63.8156 0.535697 63.331 0.319269 62.7987C0.102841 62.2664 -0.00558227 61.6969 0.000221247 61.123V4.40337C0.000221247 1.97016 2.00222 0 4.36501 0H83.6352C86.0464 0 88 1.96142 88 4.399V61.123C88 63.5562 85.998 65.5263 83.6352 65.5263H52.8001ZM8.8002 48.0526V56.7895H79.2V48.0526H8.8002Z" fill="white"/>
</svg>
