<svg width="5" height="9" viewBox="0 0 5 9" fill="none" xmlns="http://www.w3.org/2000/svg">
<path d="M4.00922 0.17804L0.126735 4.16749C0.0806521 4.21498 0.0479333 4.26643 0.0285785 4.32184C0.00922368 4.37725 -0.000300019 4.43661 7.20052e-06 4.49994C7.20052e-06 4.56326 0.0095309 4.62263 0.0285785 4.67804C0.0476261 4.73345 0.0803449 4.7849 0.126735 4.83239L4.00922 8.83371C4.11674 8.94453 4.25115 8.99994 4.41244 8.99994C4.57373 8.99994 4.71198 8.94057 4.82719 8.82184C4.9424 8.70311 5 8.56458 5 8.40627C5 8.24796 4.9424 8.10944 4.82719 7.9907L1.4401 4.49994L4.82719 1.00917C4.93472 0.898356 4.98848 0.761734 4.98848 0.599306C4.98848 0.436879 4.93088 0.296456 4.81567 0.17804C4.70046 0.059306 4.56605 -6.10352e-05 4.41244 -6.10352e-05C4.25883 -6.10352e-05 4.12443 0.059306 4.00922 0.17804Z" fill="white"/>
</svg>
