<svg width="92" height="112" viewBox="0 0 92 112" fill="none" xmlns="http://www.w3.org/2000/svg">
<path d="M83.0223 78.1311C84.0748 78.5552 84.9819 79.2779 85.6335 80.2111C86.2184 81.0865 86.6292 82.1441 86.8869 83.3837C87.0262 84.1121 87.1933 84.7844 87.3743 85.4147C87.7156 86.5958 88.2295 87.7193 88.8992 88.7484C89.2265 89.2596 89.6652 89.8199 90.2083 90.4432C90.6749 90.9545 91.0926 91.6128 91.4617 92.4112C91.8019 93.1295 91.9848 93.9129 91.9979 94.7084C92.0248 95.4731 91.7969 96.2249 91.3503 96.8444C90.896 97.446 90.3425 97.9647 89.7139 98.3782C88.8784 98.9595 88.008 99.4707 87.1027 99.912C86.1975 100.346 85.2923 100.801 84.3871 101.278C83.0336 101.926 81.7403 102.695 80.5225 103.575C79.4363 104.38 78.3431 105.396 77.2568 106.642C75.9905 108.069 74.5245 109.303 72.9048 110.305C72.0777 110.833 71.1796 111.239 70.2379 111.51C69.3327 111.762 68.4275 111.93 67.5223 112C65.4194 112 63.6786 111.636 62.2999 110.907C60.9212 110.179 59.7235 108.848 58.7069 106.915C58.4144 106.362 58.129 106.019 57.8365 105.872C57.3849 105.679 56.9094 105.55 56.423 105.487L50.9151 105.053C49.1047 104.912 47.2594 104.835 45.3724 104.835C43.8052 104.838 42.2406 104.964 40.6932 105.214C39.0986 105.473 37.518 105.781 35.9582 106.145C35.6379 106.215 35.3106 106.495 34.9834 106.964C34.5759 107.534 34.1192 108.066 33.6186 108.554C32.9402 109.204 32.1497 109.724 31.2859 110.088C30.055 110.572 28.7428 110.812 27.4213 110.795C26.2237 110.795 24.9355 110.669 23.5568 110.417C22.267 110.192 21.0197 109.766 19.8593 109.157C17.7662 108.08 15.5321 107.306 13.2234 106.859C11.0439 106.46 8.7461 106.089 6.31595 105.767C5.5105 105.661 4.71099 105.514 3.92062 105.326C3.1905 105.16 2.50279 104.842 1.9013 104.394C1.34933 103.984 0.889139 103.461 0.55044 102.86C0.179124 102.095 -0.00925067 101.254 0.000349352 100.402C0.000349352 99.2676 0.146576 98.1751 0.439029 97.1176C0.731483 96.067 0.891636 94.9465 0.926452 93.7839C0.926452 92.9785 0.870747 92.1941 0.766299 91.4307C0.651143 90.6132 0.576776 89.7905 0.543477 88.9655C0.543477 87.1096 0.982157 85.7439 1.85255 84.8614C2.72295 83.986 3.99025 83.2926 5.66141 82.7814C6.40384 82.5554 7.10301 82.2049 7.72948 81.7449C8.30416 81.3088 8.84855 80.8338 9.35886 80.3232C9.87696 79.7995 10.3498 79.2326 10.7724 78.6283C11.2111 78.005 11.6985 77.3817 12.2416 76.7654C12.35 76.6252 12.4088 76.4527 12.4087 76.2751C12.4087 75.8339 12.3878 75.4137 12.353 75.0145L12.2416 73.6978C12.2416 71.2186 12.6246 68.7254 13.3836 66.2041C14.1495 63.6828 15.1453 61.2316 16.3777 58.8154C17.6083 56.4136 18.9898 54.093 20.5139 51.8679C22.0318 49.6478 23.5429 47.5818 25.026 45.6838C27.0406 43.1471 28.6391 40.3029 29.761 37.2586C30.8055 34.3452 31.3555 31.1656 31.3904 27.7339C31.3904 26.2841 31.3207 24.8414 31.1745 23.4197C31.0284 21.9653 30.9564 20.5043 30.9586 19.0425C30.9586 16.1221 31.2859 13.4957 31.9335 11.1636C32.588 8.82441 33.6046 6.82141 34.9834 5.14057C36.3621 3.45973 38.1586 2.2061 40.3659 1.36568C42.5871 0.525263 45.2332 0.070035 48.3109 0C51.9805 0 54.898 0.728364 57.0775 2.1921C59.25 3.64882 60.9212 5.56078 62.0771 7.93497C63.2399 10.3022 63.985 12.9495 64.3053 15.8699C64.6395 18.7834 64.8206 21.7389 64.8554 24.7294V25.6608C64.8554 27.1596 64.8693 28.4902 64.9111 29.6528C64.9759 32.0165 65.511 34.3431 66.4848 36.4952C66.9931 37.6228 67.7521 38.8484 68.7687 40.1581C70.5095 42.4622 72.2921 44.7804 74.1025 47.1126C75.9129 49.4447 77.5632 51.8539 79.0463 54.3262C80.5365 56.8124 81.755 59.4037 82.6951 62.1C83.642 64.8034 84.1295 67.7169 84.1643 70.8544C84.1736 73.3281 83.7881 75.7803 83.0223 78.1311ZM37.3857 21.1226C37.887 21.1226 38.3048 21.2486 38.639 21.5008C38.9786 21.7756 39.2404 22.1355 39.398 22.5443C39.5728 22.9649 39.699 23.4043 39.774 23.8539C39.8437 24.2951 39.8854 24.7504 39.8854 25.2266C39.8968 25.5274 39.8396 25.8269 39.7183 26.1021C39.599 26.3346 39.4331 26.5397 39.2309 26.7044L38.5764 27.2506C38.343 27.4494 38.1264 27.6672 37.9288 27.902C37.6676 28.3108 37.3116 28.6497 36.8913 28.8894C36.46 29.1412 36.0417 29.4147 35.6379 29.7089C35.2522 29.9903 34.889 30.3018 34.5516 30.6403C34.383 30.8231 34.2529 31.0384 34.1692 31.2731C34.0854 31.5078 34.0497 31.7571 34.0642 32.006C34.0642 32.3352 34.2244 32.6083 34.5516 32.8254C35.3636 33.3398 36.0076 34.0825 36.4038 34.9615C36.7659 35.8019 37.1698 36.6213 37.6015 37.4267C38.0332 38.2251 38.5972 38.8974 39.2866 39.4507C39.976 39.997 41.0483 40.2701 42.4897 40.2701H42.8239C44.2722 40.2001 45.6509 39.8149 46.96 39.1216C48.2621 38.4282 49.5712 37.6998 50.8733 36.9295C51.1002 36.8012 51.3378 36.6934 51.5836 36.6073C51.8365 36.5166 52.0738 36.3866 52.2869 36.2221L56.2559 33.1056C56.3249 32.8708 56.3807 32.6323 56.423 32.3912C56.4653 32.1352 56.5024 31.8783 56.5344 31.6208C56.5466 31.2726 56.4491 30.9295 56.2559 30.6403C56.0778 30.3863 55.859 30.1638 55.6083 29.982C55.3299 29.7911 55.0141 29.6621 54.6822 29.6038C54.3503 29.5368 54.0243 29.4431 53.7073 29.3237C52.8394 29.1442 52.0097 28.8123 51.2563 28.3432C50.5084 27.876 49.7032 27.5087 48.861 27.2506C48.7217 27.2086 48.6103 27.1036 48.5337 26.9215C48.4508 26.7058 48.3788 26.4861 48.3178 26.2631C48.2462 26.0322 48.2271 25.7881 48.2621 25.5488C48.3018 25.3654 48.2823 25.174 48.2064 25.0025C48.2064 24.5683 48.2412 24.1131 48.3178 23.6368C48.393 23.1547 48.5584 22.6913 48.8053 22.2711C49.0175 21.882 49.3152 21.5467 49.6757 21.2906C50.105 21.0387 50.5921 20.9035 51.0892 20.8984C52.2172 20.8984 53.0319 21.3187 53.5402 22.1591C54.0485 22.9995 54.3201 23.91 54.3549 24.8904C54.3639 25.3263 54.2709 25.7581 54.0834 26.1511C53.8975 26.525 53.8021 26.9377 53.8048 27.3557C53.8048 27.6498 53.9023 27.8459 54.0834 27.958C54.3027 28.0789 54.5445 28.1528 54.7936 28.1751C55.6292 28.1751 56.1653 27.979 56.423 27.5798C56.716 27.0237 56.8645 26.4022 56.8547 25.7729C56.8547 24.9325 56.7851 24.001 56.6458 22.9785C56.508 21.9892 56.2117 21.029 55.7684 20.1351C55.3626 19.2956 54.789 18.5493 54.0834 17.943C53.3278 17.3392 52.3805 17.0307 51.4165 17.0745C49.5364 17.0745 48.1716 17.5438 47.336 18.4962C46.5005 19.4417 46.0687 20.8634 46.0339 22.7614C46.0339 23.3077 46.0687 23.8539 46.1384 24.4002C46.208 24.9535 46.2498 25.4998 46.2498 26.046C46.2498 26.2281 46.2289 26.3192 46.1941 26.3192C46.0811 26.2945 45.9713 26.2569 45.8668 26.2071C45.6499 26.1186 45.434 26.0276 45.2192 25.934C44.9531 25.8209 44.6783 25.7296 44.3976 25.6608C43.9348 25.5478 43.4542 25.5287 42.984 25.6048C42.6954 25.6416 42.4047 25.6603 42.1137 25.6608C41.6053 25.6608 41.3477 25.5698 41.3477 25.3877C41.3477 24.8414 41.3199 24.1481 41.2433 23.3077C41.1736 22.4672 40.9926 21.6268 40.7001 20.7864C40.457 20.0387 40.0897 19.3377 39.6139 18.7134C39.1752 18.1671 38.5276 17.8729 37.6572 17.8379C37.0725 17.8243 36.5056 18.0404 36.0766 18.4402C35.6296 18.8561 35.245 19.335 34.9346 19.8619C34.601 20.4309 34.3965 21.0671 34.3358 21.7249C34.2774 22.3101 34.2054 22.8939 34.1199 23.4757C34.1479 24.442 34.312 25.3993 34.6073 26.3192C34.7884 26.9005 34.9903 27.4117 35.2062 27.8529C35.422 28.2871 35.6797 28.5043 35.9721 28.5043C36.1462 28.5043 36.3899 28.3782 36.6754 28.1261C36.9679 27.8669 37.1141 27.6358 37.1141 27.4117C37.1141 27.2997 37.0584 27.2296 36.947 27.1946C36.8416 27.1581 36.7311 27.1392 36.6197 27.1386C36.369 27.1386 36.1462 27.0125 35.9652 26.7534C35.7786 26.4849 35.6331 26.1898 35.5334 25.8779C35.4192 25.5341 35.3101 25.1886 35.2062 24.8414C34.9893 23.8965 35.1256 22.9044 35.5892 22.054C35.9164 21.4657 36.5153 21.1576 37.3857 21.1226ZM25.5204 106.313C26.3908 106.313 27.2473 106.243 28.0828 106.089C28.91 105.946 29.7035 105.649 30.4225 105.214C31.112 104.812 31.6763 104.225 32.0519 103.519C32.448 102.698 32.6709 101.804 32.7064 100.892C32.7064 100.241 32.5958 99.5944 32.3791 98.9805C32.1579 98.3542 31.8458 97.7642 31.453 97.2296C31.0233 96.5445 30.5512 95.8872 30.0395 95.2616C29.5276 94.6338 29.0555 93.9741 28.626 93.2866C27.9488 92.2856 27.2756 91.2818 26.6067 90.2751C25.9591 89.2947 25.3045 88.2581 24.657 87.1586C24.0844 86.2268 23.5387 85.2786 23.0206 84.3152C22.4882 83.3316 21.8683 82.3987 21.1684 81.5278C20.7264 80.9727 20.2164 80.4762 19.6504 80.05C19.069 79.6105 18.3583 79.3789 17.6311 79.3917C16.8725 79.3804 16.1372 79.6553 15.57 80.1621C14.9218 80.7303 14.3209 81.351 13.7735 82.018C13.1314 82.7749 12.4406 83.4884 11.7055 84.1541C10.9395 84.8474 9.96466 85.3937 8.76699 85.7929C7.95651 86.0115 7.21097 86.4249 6.59448 86.9975C6.08617 87.5088 5.82853 88.2932 5.82853 89.3507C5.82853 90.079 5.88424 90.8074 5.99565 91.5358C6.10009 92.2641 6.17669 92.9995 6.2115 93.7279C6.2115 94.7084 6.07224 95.6398 5.77282 96.5153C5.49195 97.343 5.34616 98.211 5.34111 99.0855C5.34111 100.073 5.68927 100.766 6.37166 101.166C7.06798 101.572 7.84089 101.845 8.71128 101.985C9.8045 102.174 10.8351 102.314 11.8169 102.426C12.7917 102.538 13.7526 102.706 14.6996 102.916C15.6396 103.141 16.5797 103.372 17.5267 103.631C18.4667 103.883 19.4694 104.289 20.5208 104.835C20.7297 104.94 21.064 105.074 21.4957 105.214L22.9649 105.704C23.508 105.893 24.0163 106.04 24.4898 106.145C24.8268 106.236 25.1721 106.292 25.5204 106.313ZM45.4351 99.7439C46.4517 99.7439 47.538 99.6388 48.7008 99.4147C51.0683 98.9685 53.358 98.1757 55.4969 97.0615C56.4926 96.551 57.4391 95.9484 58.3239 95.2616C58.4119 95.162 58.4868 95.0513 58.5467 94.9325C58.6161 94.7918 58.6698 94.6438 58.7069 94.4912V94.4352C58.9228 93.6368 59.1038 92.7544 59.25 91.8089C59.4009 90.8457 59.5286 89.8789 59.633 88.9095C59.7383 87.9401 59.866 86.9734 60.016 86.01C60.1552 85.0645 60.2875 84.1331 60.392 83.2226C60.5382 82.2421 60.7193 81.2896 60.9351 80.3792C61.1579 79.4687 61.4434 78.6073 61.8055 77.8019C62.1635 77.0088 62.6612 76.2875 63.2747 75.6728C63.9888 74.9806 64.795 74.3914 65.6701 73.922V73.8099L65.6144 73.6488C65.6265 73.2774 65.7397 72.9165 65.9416 72.6053C66.1854 72.2033 66.4577 71.8194 66.7563 71.4567C67.0462 71.0884 67.3972 70.7733 67.7938 70.5253C68.1562 70.3068 68.5386 70.1238 68.9358 69.979C68.7163 69.0989 68.4795 68.2233 68.2256 67.3527C67.9734 66.4862 67.755 65.6101 67.571 64.7264C67.3928 63.6081 67.1769 62.4962 66.9235 61.3927C66.7217 60.5368 66.4659 59.6946 66.1575 58.8714C65.8458 58.0692 65.4239 57.3148 64.9041 56.6303C64.368 55.902 63.6925 55.0195 62.8987 54.004C62.5955 53.6631 62.3207 53.2977 62.0771 52.9115C61.888 52.4774 61.7794 52.0121 61.7568 51.5388C61.67 51.0599 61.5608 50.5855 61.4295 50.1171C60.9404 48.3434 60.3783 46.5911 59.7444 44.8644C59.4099 43.9425 59.0097 43.046 58.5467 42.1821C58.1769 41.4903 57.7773 40.815 57.3491 40.1581C56.987 39.6118 56.604 39.3387 56.2071 39.3387C55.3367 39.3387 54.2992 39.6888 53.1015 40.3822C51.9108 41.0755 50.6366 41.8389 49.2996 42.6793C47.9558 43.5198 46.6536 44.3042 45.3794 45.0325C44.1121 45.7609 42.9701 46.1041 41.9535 46.069C40.8686 46.0683 39.8149 45.7036 38.9593 45.0325C38.0372 44.3258 37.1964 43.5177 36.4526 42.6233C35.6936 41.7129 35.06 40.9285 34.5516 40.2701C34.0433 39.6118 33.6673 39.2476 33.4097 39.1776C33.1242 39.1776 32.9571 39.3947 32.9223 39.8289C32.8835 40.3205 32.8649 40.8135 32.8666 41.3067V42.2381C32.8666 42.4622 32.8317 42.6023 32.7551 42.6793C32.3582 43.5198 31.9196 44.3392 31.453 45.1376C30.9795 45.943 30.513 46.7624 30.0395 47.6028C29.1016 49.2179 28.5775 51.0421 28.5146 52.9115C28.5146 53.4577 28.5494 54.004 28.626 54.5503C28.6956 55.0965 28.8766 55.6288 29.1691 56.1401L29.0577 56.3502C28.7781 56.7405 28.4685 57.1082 28.1316 57.4497C27.7885 57.8013 27.4806 58.186 27.2124 58.5983C25.8805 60.5773 24.92 62.7847 24.3784 65.1116C23.8353 67.4437 23.5429 69.8179 23.508 72.2201C23.508 72.8434 23.5498 73.4667 23.6194 74.083C23.6891 74.7064 23.7309 75.3227 23.7309 75.946C23.7287 76.1479 23.7101 76.3494 23.6752 76.5483C23.6402 76.7472 23.6215 76.9486 23.6194 77.1506C24.3935 77.2384 25.1381 77.4992 25.7989 77.914C26.6345 78.3902 27.5397 78.9925 28.5146 79.7209C29.4894 80.4492 30.4225 81.2896 31.2929 82.2421C32.1633 83.1876 32.9919 84.1121 33.7927 85.0295C34.5934 85.94 35.1714 86.8504 35.5334 87.7609C35.8955 88.6713 36.1323 89.4207 36.2367 90.002C36.2554 90.4255 36.1879 90.8483 36.0382 91.2445C35.8885 91.6408 35.6599 92.002 35.3663 92.3062C34.7419 92.9188 34.0037 93.4019 33.1938 93.7279C33.8135 94.8204 34.5725 95.7519 35.4777 96.5153C36.383 97.2856 37.3648 97.902 38.4162 98.3782C39.4676 98.8544 40.6096 99.1976 41.8421 99.4147C43.0746 99.6388 44.2792 99.7439 45.4351 99.7439ZM67.2507 107.518C68.0097 107.518 68.7548 107.406 69.4789 107.189C70.5763 106.872 71.6206 106.393 72.5776 105.767C73.5245 105.144 74.388 104.38 75.1887 103.463C77.0803 101.268 79.3946 99.4808 81.9918 98.2101L83.7883 97.3907C84.4046 97.1204 85.0025 96.8092 85.5778 96.4592C85.9934 96.1944 86.3787 95.8844 86.7267 95.5348C86.902 95.3643 87.0406 95.1595 87.134 94.9331C87.2274 94.7066 87.2736 94.4633 87.2699 94.2181C87.2703 93.9364 87.2134 93.6575 87.1027 93.3987C86.9729 93.1072 86.8093 92.8322 86.6153 92.5793C86.119 91.8844 85.6476 91.1719 85.2018 90.4432C84.7986 89.7804 84.4515 89.0846 84.1643 88.3632L83.2939 86.1781C82.9799 85.376 82.7239 84.5521 82.5279 83.7129C82.4524 83.4535 82.3244 83.2127 82.1519 83.0055C81.8019 82.4792 81.3239 82.0516 80.7632 81.7635C80.2026 81.4755 79.578 81.3364 78.9489 81.3597C78.2994 81.3573 77.6608 81.5263 77.0967 81.8499L75.2444 82.8935C74.5997 83.2531 73.9474 83.5987 73.2878 83.93C72.6463 84.2546 71.9378 84.4226 71.2197 84.4202C70.5777 84.4484 69.9449 84.2585 69.4232 83.8809C68.9227 83.4811 68.5141 82.9769 68.2256 82.4032C67.916 81.819 67.6439 81.2154 67.4109 80.5963L66.7563 78.7894C66.4728 79.2578 66.1464 79.6986 65.7815 80.1061C65.4087 80.5234 65.1139 81.0051 64.9111 81.5278C64.4376 82.6203 64.1451 83.8389 64.0407 85.1906C63.8597 87.3057 63.6229 89.3647 63.3305 91.3747C63.0325 93.4242 62.5429 95.4408 61.8682 97.3977C61.6757 98.0234 61.5291 98.6624 61.4295 99.3097C61.3214 99.9801 61.247 100.656 61.2067 101.334C61.2067 103.12 61.7568 104.597 62.843 105.767C63.9293 106.929 65.3985 107.518 67.2507 107.518Z" fill="white"/>
</svg>
