<svg width="44" height="54" viewBox="0 0 44 54" fill="none" xmlns="http://www.w3.org/2000/svg">
<path d="M44 0C43.9568 0.572484 43.9607 1.15274 43.8612 1.71486C43.5848 3.2743 43.226 4.80783 42.3183 6.16132C41.89 6.79986 41.3491 7.11849 40.5568 7.11719C33.8772 7.10424 27.1976 7.10942 20.5168 7.10942C19.6536 7.10942 19.2332 7.43581 18.9267 8.22201C18.0244 10.5378 17.0355 12.8239 16.2065 15.1643C15.7729 16.3883 15.9602 16.8196 17.2136 16.8157C25.5906 16.7911 33.9676 16.8028 42.3445 16.8028C42.6038 16.8028 42.8632 16.8028 43.2548 16.8028C43.15 17.4621 43.0753 18.0773 42.9509 18.6821C42.6497 20.1509 42.3105 21.6016 41.2994 22.8009C40.8121 23.3786 40.2254 23.6558 39.4776 23.6545C35.496 23.6519 31.5145 23.6622 27.5316 23.6428C26.9409 23.6402 26.6109 23.8332 26.4524 24.3992C25.7792 26.7876 25.0693 29.1656 24.4158 31.5604C24.1892 32.3907 24.5952 32.8285 25.474 32.8285C30.4562 32.831 35.4397 32.8298 40.4219 32.8298C40.6602 32.8298 40.8999 32.8298 41.1383 32.8298C41.1736 32.8764 41.2077 32.9217 41.2431 32.9683C32.9682 39.9793 24.6921 46.989 16.4173 54C16.3702 53.9754 16.323 53.9508 16.2759 53.9262C17.7179 49.0678 19.1586 44.2082 20.6176 39.2916C20.3517 39.2916 20.1173 39.2916 19.8828 39.2916C16.4239 39.2916 12.9623 39.2346 9.50463 39.3149C7.7077 39.3576 7.54267 38.4315 7.95261 37.0832C8.61926 34.893 9.51249 32.7689 10.3193 30.6214C11.223 28.2162 12.1372 25.8149 13.0422 23.411C13.0631 23.3566 13.0383 23.284 13.0317 23.1364C12.8025 23.1364 12.5746 23.1364 12.3454 23.1364C8.77643 23.1364 5.20875 23.1338 1.63977 23.1377C0.961336 23.139 0.390296 22.9434 0 22.3605C0 21.9292 0 21.4992 0 21.0679C0.123114 20.7428 0.259323 20.4229 0.36672 20.0926C1.54678 16.4725 2.72422 12.8511 3.89904 9.22839C4.64558 6.92809 5.39866 4.62909 6.12294 2.32232C6.4556 1.26413 7.12094 0.572483 8.18967 0.257746C8.504 0.165786 8.82227 0.085484 9.13791 0C20.7604 0 32.3802 0 44 0Z" fill="white"/>
</svg>
