<svg width="14" height="21" viewBox="0 0 14 21" fill="none" xmlns="http://www.w3.org/2000/svg">
<path fill-rule="evenodd" clip-rule="evenodd" d="M1.42412 0.855585C0.697143 1.5003 0.697144 2.6797 0.697144 5.03748V16.3976C0.697144 18.7554 0.697143 19.9348 1.42412 20.5795C2.15109 21.2242 3.26263 21.0309 5.4857 20.6432L7.88153 20.2258C10.3432 19.796 11.574 19.5811 12.3051 18.6782C13.0361 17.7744 13.0361 16.4685 13.0361 13.8558V7.57931C13.0361 4.96756 13.0361 3.66168 12.3061 2.75785C11.574 1.85504 10.3421 1.64014 7.8805 1.21136L5.48673 0.792862C3.26366 0.405211 2.15212 0.2119 1.42514 0.856613L1.42412 0.855585ZM4.55308 9.64198C4.55308 9.19572 4.20759 8.83481 3.78189 8.83481C3.3562 8.83481 3.01071 9.19572 3.01071 9.64095V11.7941C3.01071 12.2393 3.3562 12.6003 3.78189 12.6003C4.20759 12.6003 4.55308 12.2393 4.55308 11.7941V9.64095V9.64198Z" fill="#541A79"/>
</svg>
