<svg width="19" height="16" viewBox="0 0 19 16" fill="none" xmlns="http://www.w3.org/2000/svg">
<path fill-rule="evenodd" clip-rule="evenodd" d="M3.16462 0.273424C2.98092 0.0959951 2.73487 -0.00218245 2.47948 3.68212e-05C2.22409 0.00225609 1.97979 0.104695 1.7992 0.285289C1.6186 0.465884 1.51617 0.710185 1.51395 0.965575C1.51173 1.22096 1.6099 1.46701 1.78733 1.65071L15.4239 15.2873C15.6076 15.4647 15.8536 15.5629 16.109 15.5606C16.3644 15.5584 16.6087 15.456 16.7893 15.2754C16.9699 15.0948 17.0723 14.8505 17.0746 14.5951C17.0768 14.3397 16.9786 14.0937 16.8012 13.91L15.3664 12.4752C16.8835 11.2656 18.0054 9.63094 18.5885 7.78034C17.3476 3.82867 13.656 0.962069 9.29425 0.962069C7.76738 0.959999 6.26158 1.31843 4.89939 2.00819L3.16462 0.273424ZM7.315 4.42283L8.7897 5.8985C9.11998 5.81079 9.46751 5.81137 9.79751 5.90018C10.1275 5.989 10.4284 6.16293 10.67 6.40457C10.9117 6.64622 11.0856 6.94709 11.1744 7.27708C11.2632 7.60707 11.2638 7.9546 11.1761 8.28489L12.6508 9.75959C13.0901 9.01544 13.2695 8.14638 13.1608 7.28911C13.0522 6.43184 12.6616 5.63501 12.0506 5.02398C11.4396 4.41295 10.6427 4.02239 9.78548 3.91375C8.92821 3.8051 8.05915 3.98355 7.315 4.42283Z" fill="#F8F8F8"/>
<path d="M11.6846 14.3035L9.05077 11.6687C8.1037 11.6094 7.21083 11.2064 6.53975 10.5355C5.86867 9.86464 5.4655 8.97188 5.40591 8.02483L1.82827 4.44718C1.00541 5.42708 0.384111 6.55979 0 7.78034C1.24093 11.732 4.93351 14.5986 9.29428 14.5986C10.1193 14.5986 10.9199 14.4963 11.6846 14.3035Z" fill="#F8F8F8"/>
</svg>
