<svg width="32" height="32" viewBox="0 0 32 32" fill="none" xmlns="http://www.w3.org/2000/svg">
<g id="Group 10">
<path id="Vector" opacity="0.5" d="M31.5584 14.7063L31.2037 18.4796C30.6182 24.6941 30.3254 27.8029 28.493 29.6756C26.6636 31.5498 23.9189 31.5498 18.4262 31.5498H14.213C8.72193 31.5498 5.97715 31.5498 4.14472 29.6756C2.31229 27.8013 2.02108 24.6941 1.43557 18.4796L1.07931 14.7063C0.800492 11.7447 0.661085 10.2623 1.16915 9.6505C1.29687 9.49098 1.45512 9.35854 1.63465 9.26093C1.81418 9.16332 2.01138 9.1025 2.2147 9.08203C2.95201 9.01697 3.87675 10.0703 5.72777 12.1769C6.68503 13.2673 7.16366 13.811 7.69651 13.8962C7.99412 13.9426 8.29878 13.8938 8.56703 13.7568C9.06115 13.509 9.38798 12.8352 10.0463 11.4891L13.5113 4.38865C14.7536 1.84369 15.3748 0.570435 16.3196 0.570435C17.2645 0.570435 17.8856 1.84369 19.1279 4.38865L22.593 11.4891C23.2497 12.8367 23.5781 13.509 24.0722 13.7568C24.3448 13.8947 24.6453 13.9427 24.9427 13.8962C25.4756 13.811 25.9542 13.2673 26.9115 12.1769C28.7625 10.0703 29.6872 9.01697 30.4245 9.08203C30.6279 9.1025 30.8251 9.16332 31.0046 9.26093C31.1841 9.35854 31.3424 9.49098 31.4701 9.6505C31.9766 10.2623 31.8372 11.7447 31.5584 14.7063Z" fill="white"/>
<path id="Vector_2" d="M17.7943 17.1432L17.6425 16.8706C17.0539 15.8142 16.7596 15.286 16.3197 15.286C15.8798 15.286 15.5855 15.8127 14.9969 16.8706L14.8451 17.1432C14.6778 17.4437 14.5942 17.5924 14.464 17.6916C14.3324 17.7907 14.1697 17.8279 13.8445 17.9007L13.5501 17.9688C12.407 18.2275 11.8354 18.3561 11.6991 18.7929C11.5628 19.2312 11.9532 19.6866 12.7323 20.5974L12.9337 20.8329C13.1552 21.0916 13.2667 21.2201 13.3163 21.3812C13.3658 21.5423 13.3488 21.7142 13.3163 22.0597L13.2853 22.3741C13.1676 23.59 13.1087 24.1988 13.4634 24.4683C13.8197 24.7378 14.3556 24.4915 15.426 23.999L15.7017 23.872C16.0068 23.7325 16.1586 23.6613 16.3197 23.6613C16.4808 23.6613 16.6326 23.7325 16.9377 23.872L17.2135 23.999C18.2838 24.4931 18.8197 24.7378 19.176 24.4683C19.5323 24.1988 19.4719 23.59 19.3541 22.3741L19.3232 22.0597C19.2906 21.7142 19.2736 21.5423 19.3232 21.3812C19.3727 21.2217 19.4843 21.0916 19.7058 20.8329L19.9071 20.5974C20.6863 19.6866 21.0766 19.2312 20.9403 18.7929C20.804 18.3561 20.2324 18.2275 19.0893 17.9688L18.795 17.9007C18.4697 17.8279 18.307 17.7922 18.1754 17.6916C18.0453 17.5924 17.9616 17.4437 17.7943 17.1432Z" fill="white"/>
</g>
</svg>
