<svg width="17" height="11" viewBox="0 0 17 11" fill="none" xmlns="http://www.w3.org/2000/svg">
<path d="M9.63833 2.29354C9.63833 2.08185 9.72243 1.87884 9.87211 1.72915C10.0218 1.57947 10.2248 1.49538 10.4365 1.49538H15.7576C15.9693 1.49538 16.1723 1.57947 16.322 1.72915C16.4717 1.87884 16.5558 2.08185 16.5558 2.29354C16.5558 2.50523 16.4717 2.70824 16.322 2.85793C16.1723 3.00761 15.9693 3.0917 15.7576 3.0917H10.4365C10.2248 3.0917 10.0218 3.00761 9.87211 2.85793C9.72243 2.70824 9.63833 2.50523 9.63833 2.29354ZM10.7026 5.4862C10.7026 5.27451 10.7866 5.0715 10.9363 4.92181C11.086 4.77213 11.289 4.68803 11.5007 4.68803H15.7576C15.9693 4.68803 16.1723 4.77213 16.322 4.92181C16.4717 5.0715 16.5558 5.27451 16.5558 5.4862C16.5558 5.69789 16.4717 5.9009 16.322 6.05059C16.1723 6.20027 15.9693 6.28436 15.7576 6.28436H11.5007C11.289 6.28436 11.086 6.20027 10.9363 6.05059C10.7866 5.9009 10.7026 5.69789 10.7026 5.4862ZM11.7668 8.67886C11.7668 8.46717 11.8509 8.26416 12.0006 8.11447C12.1502 7.96479 12.3533 7.88069 12.5649 7.88069H15.7576C15.9693 7.88069 16.1723 7.96479 16.322 8.11447C16.4717 8.26416 16.5558 8.46717 16.5558 8.67886C16.5558 8.89055 16.4717 9.09356 16.322 9.24325C16.1723 9.39293 15.9693 9.47702 15.7576 9.47702H12.5649C12.3533 9.47702 12.1502 9.39293 12.0006 9.24325C11.8509 9.09356 11.7668 8.89055 11.7668 8.67886ZM5.1154 4.42198C5.6799 4.42198 6.22127 4.19773 6.62043 3.79857C7.01959 3.39941 7.24384 2.85804 7.24384 2.29354C7.24384 1.72904 7.01959 1.18767 6.62043 0.788506C6.22127 0.389346 5.6799 0.1651 5.1154 0.1651C4.5509 0.1651 4.00953 0.389346 3.61037 0.788506C3.21121 1.18767 2.98696 1.72904 2.98696 2.29354C2.98696 2.85804 3.21121 3.39941 3.61037 3.79857C4.00953 4.19773 4.5509 4.42198 5.1154 4.42198ZM5.1154 10.8073C9.37228 10.8073 9.37228 9.85482 9.37228 8.67886C9.37228 7.5029 7.46733 6.55042 5.1154 6.55042C2.76347 6.55042 0.858521 7.5029 0.858521 8.67886C0.858521 9.85482 0.858521 10.8073 5.1154 10.8073Z" fill="#541A79"/>
</svg>
