<svg width="90" height="81" viewBox="0 0 90 81" fill="none" xmlns="http://www.w3.org/2000/svg">
<path d="M45.3776 7.31295C41.1482 7.31338 37.014 8.56798 33.4976 10.9181C29.9812 13.2682 27.2407 16.6083 25.6227 20.5159C25.4531 20.9257 25.2044 21.2981 24.8909 21.6119C24.5774 21.9256 24.2051 22.1745 23.7954 22.3444C23.3857 22.5142 22.9465 22.6017 22.503 22.6019C22.0595 22.602 21.6203 22.5148 21.2104 22.3452C20.8006 22.1756 20.4282 21.9269 20.1145 21.6134C19.8008 21.2999 19.5519 20.9276 19.382 20.5179C19.2122 20.1082 19.1247 19.669 19.1245 19.2255C19.1244 18.782 19.2116 18.3428 19.3812 17.9329C21.51 12.791 25.116 8.39596 29.743 5.30372C34.37 2.21148 39.8102 0.560974 45.3754 0.560974C50.9406 0.560974 56.3807 2.21148 61.0078 5.30372C65.6348 8.39596 69.2408 12.791 71.3696 17.9329C71.7121 18.76 71.7121 19.6893 71.3694 20.5163C71.0268 21.3433 70.3697 22.0004 69.5426 22.3429C68.7155 22.6854 67.7863 22.6854 66.9592 22.3428C66.1322 22.0001 65.4751 21.343 65.1326 20.5159C63.5145 16.6083 60.7741 13.2682 57.2577 10.9181C53.7413 8.56798 49.607 7.31338 45.3776 7.31295Z" fill="white"/>
<path d="M45.3823 18.5639C43.1929 18.5641 41.0625 19.2736 39.3102 20.5862C37.5579 21.8988 36.278 23.7438 35.6624 25.8449C35.4117 26.7042 34.83 27.4287 34.0452 27.8591C33.2603 28.2895 32.3367 28.3905 31.4774 28.1399C30.6181 27.8893 29.8935 27.3075 29.4631 26.5227C29.0327 25.7379 28.9317 24.8142 29.1824 23.9549C30.2074 20.4522 32.3402 17.3762 35.2608 15.1877C38.1815 12.9993 41.7328 11.8165 45.3823 11.8165C49.0319 11.8165 52.5832 12.9993 55.5039 15.1877C58.4245 17.3762 60.5572 20.4522 61.5823 23.9549C61.8329 24.8142 61.7319 25.7379 61.3015 26.5227C60.8712 27.3075 60.1466 27.8893 59.2873 28.1399C58.428 28.3905 57.5043 28.2895 56.7195 27.8591C55.9347 27.4287 55.3529 26.7042 55.1023 25.8449C54.4866 23.7438 53.2068 21.8988 51.4545 20.5862C49.7022 19.2736 47.5717 18.5641 45.3823 18.5639Z" fill="white"/>
<path d="M49.8774 26.4381C49.8774 27.6316 49.4033 28.7762 48.5594 29.6201C47.7155 30.464 46.5709 30.9381 45.3774 30.9381C44.184 30.9381 43.0394 30.464 42.1955 29.6201C41.3515 28.7762 40.8774 27.6316 40.8774 26.4381C40.8774 25.2446 41.3515 24.1 42.1955 23.2561C43.0394 22.4122 44.184 21.9381 45.3774 21.9381C46.5709 21.9381 47.7155 22.4122 48.5594 23.2561C49.4033 24.1 49.8774 25.2446 49.8774 26.4381Z" fill="white"/>
<path fill-rule="evenodd" clip-rule="evenodd" d="M7.42949 11.2646C6.97427 10.51 6.24195 9.96339 5.38904 9.74159C4.53614 9.51978 3.63031 9.64039 2.86515 10.0776C2.09999 10.5149 1.5362 11.234 1.29428 12.0814C1.05236 12.9289 1.15149 13.8373 1.5705 14.6126L18.612 44.4385H18C9.51298 44.4385 5.27399 44.4385 2.63699 47.0755C-2.6822e-07 49.7125 0 53.9515 0 62.4385C0 70.9255 -2.6822e-07 75.1645 2.63699 77.8015C5.27399 80.4385 9.51298 80.4385 18 80.4385H71.9999C80.4868 80.4385 84.7258 80.4385 87.3628 77.8015C89.9998 75.1645 89.9998 70.9255 89.9998 62.4385C89.9998 53.9515 89.9998 49.7125 87.3628 47.0755C84.7258 44.4385 80.4868 44.4385 71.9999 44.4385H71.3879L88.4293 14.6126C88.8483 13.8373 88.9475 12.9289 88.7055 12.0814C88.4636 11.234 87.8998 10.5149 87.1347 10.0776C86.3695 9.64039 85.4637 9.51978 84.6108 9.74159C83.7579 9.96339 83.0256 10.51 82.5703 11.2646L64.5704 42.7645L63.5804 44.4385H26.4599L25.425 42.7645L7.42949 11.2646ZM18 66.9385C19.1934 66.9385 20.338 66.4644 21.1819 65.6205C22.0259 64.7766 22.5 63.632 22.5 62.4385C22.5 61.245 22.0259 60.1004 21.1819 59.2565C20.338 58.4126 19.1934 57.9385 18 57.9385C16.8065 57.9385 15.6619 58.4126 14.818 59.2565C13.9741 60.1004 13.5 61.245 13.5 62.4385C13.5 63.632 13.9741 64.7766 14.818 65.6205C15.6619 66.4644 16.8065 66.9385 18 66.9385ZM35.9999 62.4385C35.9999 63.632 35.5258 64.7766 34.6819 65.6205C33.838 66.4644 32.6934 66.9385 31.4999 66.9385C30.3065 66.9385 29.1619 66.4644 28.318 65.6205C27.4741 64.7766 26.9999 63.632 26.9999 62.4385C26.9999 61.245 27.4741 60.1004 28.318 59.2565C29.1619 58.4126 30.3065 57.9385 31.4999 57.9385C32.6934 57.9385 33.838 58.4126 34.6819 59.2565C35.5258 60.1004 35.9999 61.245 35.9999 62.4385ZM53.9999 59.0635C53.1048 59.0635 52.2464 59.4191 51.6134 60.052C50.9805 60.685 50.6249 61.5434 50.6249 62.4385C50.6249 63.3336 50.9805 64.1921 51.6134 64.825C52.2464 65.4579 53.1048 65.8135 53.9999 65.8135H71.9999C72.895 65.8135 73.7534 65.4579 74.3863 64.825C75.0193 64.1921 75.3749 63.3336 75.3749 62.4385C75.3749 61.5434 75.0193 60.685 74.3863 60.052C73.7534 59.4191 72.895 59.0635 71.9999 59.0635H53.9999Z" fill="white"/>
</svg>
