<svg width="22" height="19" viewBox="0 0 22 19" fill="none" xmlns="http://www.w3.org/2000/svg">
<path opacity="0.5" d="M4.62531 10.5168H17.0635C19.0184 10.5168 19.9948 10.5168 20.6022 11.1242C21.2096 11.7316 21.2096 12.708 21.2096 14.6628C21.2096 16.6177 21.2096 17.5941 20.6022 18.2015C19.9948 18.8089 19.0184 18.8089 17.0635 18.8089H4.62531C2.67044 18.8089 1.69405 18.8089 1.08665 18.2015C0.479248 17.5941 0.479248 16.6177 0.479248 14.6628C0.479248 12.708 0.479248 11.7316 1.08665 11.1242C1.69405 10.5168 2.67044 10.5168 4.62531 10.5168ZM4.62531 0.151611H17.0635C19.0184 0.151611 19.9948 0.151611 20.6022 0.75901C21.2096 1.36641 21.2096 2.34281 21.2096 4.29768C21.2096 6.25254 21.2096 7.22894 20.6022 7.83634C19.9948 8.44374 19.0184 8.44374 17.0635 8.44374H4.62531C2.67044 8.44374 1.69405 8.44374 1.08665 7.83634C0.479248 7.22894 0.479248 6.25254 0.479248 4.29768C0.479248 2.34281 0.479248 1.36641 1.08665 0.75901C1.69405 0.151611 2.67044 0.151611 4.62531 0.151611Z" fill="#fff"/>
<path d="M11.6218 4.29779C11.6218 4.09161 11.7037 3.89388 11.8495 3.74809C11.9953 3.60231 12.193 3.5204 12.3992 3.5204H17.0635C17.2697 3.5204 17.4674 3.60231 17.6132 3.74809C17.759 3.89388 17.8409 4.09161 17.8409 4.29779C17.8409 4.50397 17.759 4.7017 17.6132 4.84749C17.4674 4.99327 17.2697 5.07518 17.0635 5.07518H12.3992C12.193 5.07518 11.9953 4.99327 11.8495 4.84749C11.7037 4.7017 11.6218 4.50397 11.6218 4.29779ZM4.62529 6.11169C4.41911 6.11169 4.22138 6.02979 4.07559 5.884C3.9298 5.73821 3.8479 5.54048 3.8479 5.33431V3.26127C3.8479 3.0551 3.9298 2.85737 4.07559 2.71158C4.22138 2.56579 4.41911 2.48389 4.62529 2.48389C4.83146 2.48389 5.02919 2.56579 5.17498 2.71158C5.32077 2.85737 5.40267 3.0551 5.40267 3.26127V5.33431C5.40267 5.54048 5.32077 5.73821 5.17498 5.884C5.02919 6.02979 4.83146 6.11169 4.62529 6.11169ZM7.73484 6.11169C7.52866 6.11169 7.33093 6.02979 7.18514 5.884C7.03935 5.73821 6.95745 5.54048 6.95745 5.33431V3.26127C6.95745 3.0551 7.03935 2.85737 7.18514 2.71158C7.33093 2.56579 7.52866 2.48389 7.73484 2.48389C7.94101 2.48389 8.13874 2.56579 8.28453 2.71158C8.43032 2.85737 8.51222 3.0551 8.51222 3.26127V5.33431C8.51222 5.54048 8.43032 5.73821 8.28453 5.884C8.13874 6.02979 7.94101 6.11169 7.73484 6.11169ZM11.6218 14.663C11.6218 14.4568 11.7037 14.259 11.8495 14.1133C11.9953 13.9675 12.193 13.8856 12.3992 13.8856H17.0635C17.2697 13.8856 17.4674 13.9675 17.6132 14.1133C17.759 14.259 17.8409 14.4568 17.8409 14.663C17.8409 14.8691 17.759 15.0669 17.6132 15.2126C17.4674 15.3584 17.2697 15.4403 17.0635 15.4403H12.3992C12.193 15.4403 11.9953 15.3584 11.8495 15.2126C11.7037 15.0669 11.6218 14.8691 11.6218 14.663ZM4.62529 16.4769C4.41911 16.4769 4.22138 16.395 4.07559 16.2492C3.9298 16.1034 3.8479 15.9056 3.8479 15.6995V13.6264C3.8479 13.4203 3.9298 13.2225 4.07559 13.0767C4.22138 12.931 4.41911 12.849 4.62529 12.849C4.83146 12.849 5.02919 12.931 5.17498 13.0767C5.32077 13.2225 5.40267 13.4203 5.40267 13.6264V15.6995C5.40267 15.9056 5.32077 16.1034 5.17498 16.2492C5.02919 16.395 4.83146 16.4769 4.62529 16.4769ZM7.73484 16.4769C7.52866 16.4769 7.33093 16.395 7.18514 16.2492C7.03935 16.1034 6.95745 15.9056 6.95745 15.6995V13.6264C6.95745 13.4203 7.03935 13.2225 7.18514 13.0767C7.33093 12.931 7.52866 12.849 7.73484 12.849C7.94101 12.849 8.13874 12.931 8.28453 13.0767C8.43032 13.2225 8.51222 13.4203 8.51222 13.6264V15.6995C8.51222 15.9056 8.43032 16.1034 8.28453 16.2492C8.13874 16.395 7.94101 16.4769 7.73484 16.4769Z" fill="#fff"/>
</svg>
