<svg width="20" height="20" viewBox="0 0 20 20" fill="none" xmlns="http://www.w3.org/2000/svg">
<path opacity="0.5" d="M0.755789 1.13446C0.8226 0.944352 0.962181 0.788556 1.14384 0.701338C1.3255 0.614119 1.53436 0.602619 1.72449 0.669365L2.02949 0.776774C2.65469 0.996657 3.18464 1.1831 3.60313 1.38779C4.04898 1.60767 4.432 1.8772 4.71977 2.29873C5.00552 2.71621 5.12407 3.17523 5.17778 3.67883C5.2021 3.90378 5.21527 4.15305 5.22236 4.42664H16.0017C17.7091 4.42664 19.2463 4.42664 19.6962 5.01131C20.1461 5.59597 19.9698 6.47753 19.6182 8.23964L19.1115 10.6969C18.7923 12.2452 18.6332 13.0203 18.0739 13.4753C17.5146 13.9313 16.7242 13.9313 15.1425 13.9313H9.76899C6.94191 13.9313 5.52939 13.9313 4.65188 13.0051C3.77437 12.079 3.70952 11.0961 3.70952 8.11501V5.47843C3.70952 4.7286 3.70952 4.22702 3.66697 3.84197C3.62643 3.47415 3.55652 3.28973 3.46431 3.15597C3.37615 3.02526 3.24138 2.90265 2.93335 2.75269C2.60605 2.59259 2.16122 2.43451 1.48434 2.19639L1.22089 2.10418C1.12655 2.07121 1.03963 2.01995 0.965127 1.95334C0.89062 1.88673 0.829984 1.80608 0.786688 1.71601C0.743392 1.62593 0.718288 1.5282 0.712812 1.42841C0.707336 1.32862 0.721596 1.22874 0.754776 1.13446H0.755789Z" fill="#511A79"/>
<path d="M6.24381 16.5861C6.64692 16.5861 7.03352 16.7463 7.31856 17.0313C7.60361 17.3164 7.76374 17.703 7.76374 18.1061C7.76374 18.5092 7.60361 18.8958 7.31856 19.1808C7.03352 19.4659 6.64692 19.626 6.24381 19.626C5.8407 19.626 5.4541 19.4659 5.16905 19.1808C4.88401 18.8958 4.72388 18.5092 4.72388 18.1061C4.72388 17.703 4.88401 17.3164 5.16905 17.0313C5.4541 16.7463 5.8407 16.5861 6.24381 16.5861ZM15.3634 16.5861C15.7665 16.5861 16.1531 16.7463 16.4382 17.0313C16.7232 17.3164 16.8833 17.703 16.8833 18.1061C16.8833 18.5092 16.7232 18.8958 16.4382 19.1808C16.1531 19.4659 15.7665 19.626 15.3634 19.626C14.9603 19.626 14.5737 19.4659 14.2886 19.1808C14.0036 18.8958 13.8435 18.5092 13.8435 18.1061C13.8435 17.703 14.0036 17.3164 14.2886 17.0313C14.5737 16.7463 14.9603 16.5861 15.3634 16.5861ZM14.3927 7.99043C14.4645 7.91877 14.5212 7.83347 14.5595 7.73956C14.5978 7.64564 14.6169 7.54501 14.6157 7.4436C14.6145 7.34218 14.593 7.24203 14.5525 7.14905C14.512 7.05607 14.4532 6.97214 14.3798 6.9022C14.3063 6.83226 14.2196 6.77774 14.1248 6.74183C14.0299 6.70593 13.9288 6.68938 13.8275 6.69315C13.7261 6.69693 13.6266 6.72095 13.5346 6.7638C13.4427 6.80666 13.3603 6.86748 13.2922 6.94269L10.9475 9.40498L10.3395 8.7666C10.2715 8.6914 10.1891 8.63058 10.0971 8.58772C10.0052 8.54487 9.90563 8.52084 9.80428 8.51707C9.70293 8.5133 9.60185 8.52985 9.50699 8.56575C9.41214 8.60166 9.32543 8.65618 9.25197 8.72612C9.17852 8.79606 9.11981 8.87999 9.0793 8.97297C9.03879 9.06595 9.0173 9.1661 9.0161 9.26752C9.0149 9.36893 9.03401 9.46956 9.07231 9.56348C9.1106 9.65739 9.16731 9.74269 9.23909 9.81434L10.3973 11.0303C10.4683 11.1048 10.5536 11.1641 10.6482 11.2046C10.7428 11.2451 10.8446 11.266 10.9475 11.266C11.0504 11.266 11.1522 11.2451 11.2468 11.2046C11.3414 11.1641 11.4267 11.1048 11.4977 11.0303L14.3927 7.99043Z" fill="#511A79"/>
</svg>
