<svg width="18" height="19" viewBox="0 0 18 19" fill="none" xmlns="http://www.w3.org/2000/svg">
<path opacity="0.5" d="M17.8545 8.49685L17.6486 10.6867C17.3088 14.2933 17.1389 16.0975 16.0755 17.1844C15.0138 18.2721 13.4209 18.2721 10.2332 18.2721H7.78799C4.60119 18.2721 3.00824 18.2721 1.94477 17.1844C0.881305 16.0966 0.712302 14.2933 0.372496 10.6867L0.165736 8.49685C0.00392374 6.77804 -0.0769823 5.91774 0.217876 5.56265C0.291999 5.47008 0.383845 5.39321 0.488036 5.33656C0.592227 5.27991 0.706672 5.24462 0.824671 5.23274C1.25257 5.19498 1.78925 5.80627 2.86351 7.02885C3.41906 7.66172 3.69684 7.97725 4.00608 8.02669C4.1788 8.05362 4.35562 8.0253 4.51129 7.94579C4.79806 7.80196 4.98774 7.41091 5.3698 6.62972L7.38076 2.5089C8.10173 1.03191 8.46221 0.292969 9.01057 0.292969C9.55894 0.292969 9.91942 1.03191 10.6404 2.5089L12.6513 6.62972C13.0325 7.41181 13.2231 7.80196 13.5098 7.94579C13.6681 8.0258 13.8425 8.05366 14.0151 8.02669C14.3243 7.97725 14.6021 7.66172 15.1576 7.02885C16.2319 5.80627 16.7686 5.19498 17.1965 5.23274C17.3145 5.24462 17.4289 5.27991 17.5331 5.33656C17.6373 5.39321 17.7291 5.47008 17.8033 5.56265C18.0972 5.91774 18.0163 6.77804 17.8545 8.49685Z" fill="#541A79"/>
<path d="M9.86641 9.9111L9.77831 9.75288C9.4367 9.1398 9.2659 8.83325 9.0106 8.83325C8.7553 8.83325 8.58449 9.1389 8.24289 9.75288L8.15479 9.9111C8.0577 10.0855 8.00916 10.1718 7.93365 10.2293C7.85724 10.2869 7.76285 10.3084 7.57407 10.3507L7.40326 10.3902C6.73983 10.5404 6.40812 10.615 6.32901 10.8685C6.2499 11.1229 6.47644 11.3872 6.92861 11.9158L7.04548 12.0524C7.17403 12.2025 7.23875 12.2772 7.26752 12.3706C7.29629 12.4641 7.2864 12.5639 7.26752 12.7644L7.24954 12.9469C7.18122 13.6526 7.14706 14.0058 7.35292 14.1623C7.55968 14.3187 7.87072 14.1758 8.4919 13.8899L8.65191 13.8162C8.82901 13.7353 8.91711 13.6939 9.0106 13.6939C9.10409 13.6939 9.19219 13.7353 9.36928 13.8162L9.5293 13.8899C10.1505 14.1767 10.4615 14.3187 10.6683 14.1623C10.875 14.0058 10.84 13.6526 10.7717 12.9469L10.7537 12.7644C10.7348 12.5639 10.7249 12.4641 10.7537 12.3706C10.7824 12.2781 10.8472 12.2025 10.9757 12.0524L11.0926 11.9158C11.5448 11.3872 11.7713 11.1229 11.6922 10.8685C11.6131 10.615 11.2814 10.5404 10.6179 10.3902L10.4471 10.3507C10.2584 10.3084 10.164 10.2878 10.0875 10.2293C10.012 10.1718 9.96349 10.0855 9.86641 9.9111Z" fill="#541A79"/>
</svg>
