<svg width="106" height="82" viewBox="0 0 106 82" fill="none" xmlns="http://www.w3.org/2000/svg">
<path d="M105.058 62.7589C102.986 65.3781 97.917 67.2448 97.917 67.2448L60.1754 80.8327V70.8094L87.948 60.8874C91.1039 59.7587 91.5858 58.1573 89.0224 57.318C86.4688 56.4739 81.8384 56.7151 78.6824 57.8534L60.1803 64.3845V53.9898L61.2403 53.628C61.2403 53.628 66.5886 51.7275 74.1099 50.8931C81.6264 50.0634 90.8389 51.0088 98.0663 53.7534C106.209 56.334 107.125 60.1349 105.058 62.7541V62.7589ZM63.7651 45.6981V20.0755C63.7651 17.0656 63.2158 14.2969 60.3971 13.5155C58.2433 12.8209 56.9038 14.8275 56.9038 17.8326V82L39.6352 76.506V0C46.9782 1.36506 57.6748 4.59682 63.423 6.53588C78.0464 11.5668 83.0044 17.8326 83.0044 31.9414C83.0044 45.6933 74.5339 50.9075 63.7699 45.6981H63.7651ZM7.95505 69.7675C-0.404648 67.404 -1.79713 62.484 2.01412 59.6526C5.53628 57.0382 11.5254 55.0702 11.5254 55.0702L36.2817 46.2432V56.3051L18.4685 62.6962C15.3222 63.8249 14.8355 65.4264 17.394 66.2656C19.9525 67.1098 24.5877 66.8686 27.7389 65.7351L36.2817 62.6287V71.6246L34.5808 71.914C26.0332 73.3128 16.9267 72.7292 7.95505 69.7675Z" fill="white"/>
</svg>
