<svg width="47" height="46" viewBox="0 0 47 46" fill="none" xmlns="http://www.w3.org/2000/svg">
<path opacity="0.5" d="M46.1738 23.1456C46.1738 35.7034 35.9943 45.8829 23.4365 45.8829C10.8787 45.8829 0.699219 35.7034 0.699219 23.1456C0.699219 10.5878 10.8787 0.408325 23.4365 0.408325C35.9943 0.408325 46.1738 10.5878 46.1738 23.1456Z" fill="#F8F8F8"/>
<path d="M19.8282 15.1832L20.2011 14.5147C21.6403 11.9317 22.3611 10.6403 23.4366 10.6403C24.512 10.6403 25.2328 11.9317 26.6721 14.5147L27.045 15.1832C27.4542 15.9176 27.6589 16.2837 27.9772 16.5247C28.2955 16.768 28.6957 16.8589 29.4892 17.0385L30.2123 17.2022C33.009 17.8343 34.4073 18.1504 34.7393 19.2213C35.0735 20.29 34.1185 21.4041 32.2132 23.6346L31.7198 24.2121C31.1786 24.8442 30.908 25.1626 30.7875 25.5536C30.6625 25.9447 30.7034 26.3676 30.7875 27.2135L30.8603 27.982C31.1491 30.956 31.2923 32.443 30.4215 33.1047C29.5506 33.7641 28.2432 33.1638 25.6239 31.9587L24.9463 31.645C24.2028 31.3039 23.8322 31.1311 23.4366 31.1311C23.0432 31.1311 22.6703 31.3039 21.9268 31.645L21.2492 31.9587C18.6299 33.1638 17.3225 33.7663 16.4517 33.1047C15.5808 32.4453 15.7241 30.956 16.0128 27.982L16.0856 27.2135C16.1697 26.3676 16.2107 25.9447 16.0856 25.5536C15.9651 25.1626 15.6945 24.8442 15.1534 24.2121L14.66 23.6346C12.7546 21.4064 11.7996 20.2922 12.1339 19.2213C12.4658 18.1527 13.8619 17.8343 16.6586 17.2022L17.3839 17.0385C18.1797 16.8566 18.5753 16.768 18.8959 16.5269C19.2143 16.2837 19.4189 15.9153 19.8282 15.1832Z" fill="#F8F8F8"/>
</svg>
