<svg width="20" height="24" viewBox="0 0 20 24" fill="none" xmlns="http://www.w3.org/2000/svg">
<path opacity="0.5" d="M10.9238 0H8.52944C6.27159 0 5.14266 -7.13565e-08 4.44232 0.701537C3.74078 1.40307 3.74078 2.5308 3.74078 4.78865V8.97872H15.7124V4.78865C15.7124 2.5308 15.7124 1.40307 15.0109 0.701537C14.3093 -7.13565e-08 13.1816 0 10.9238 0Z" fill="#F8F8F8"/>
<path fill-rule="evenodd" clip-rule="evenodd" d="M11.4445 4.52887C10.9171 4.24135 10.3261 4.0907 9.7254 4.0907C9.12473 4.0907 8.53366 4.24135 8.00628 4.52887L2.26708 7.65826C1.70047 7.96716 1.22756 8.42303 0.898077 8.97792C0.568594 9.53282 0.394712 10.1662 0.394714 10.8116V16.7232C0.394712 17.3685 0.568594 18.0019 0.898077 18.5568C1.22756 19.1117 1.70047 19.5676 2.26708 19.8765L8.00628 23.0059C8.53366 23.2934 9.12473 23.4441 9.7254 23.4441C10.3261 23.4441 10.9171 23.2934 11.4445 23.0059L17.1849 19.8765C17.7515 19.5676 18.2244 19.1117 18.5539 18.5568C18.8834 18.0019 19.0573 17.3685 19.0573 16.7232V10.8104C19.0573 10.165 18.8834 9.53162 18.5539 8.97672C18.2244 8.42183 17.7515 7.96596 17.1849 7.65706L11.4445 4.52887ZM9.7254 10.1759C9.38541 10.1759 9.15795 10.5829 8.70302 11.4006L8.5857 11.6113C8.45641 11.8435 8.39176 11.9585 8.2912 12.0351C8.19064 12.1117 8.06374 12.1404 7.81353 12.1967L7.58607 12.2494C6.70137 12.4493 6.25962 12.5487 6.15546 12.8863C6.05011 13.2251 6.3506 13.577 6.95277 14.281L7.1084 14.4629C7.28079 14.6629 7.36579 14.7622 7.4041 14.8867C7.44241 15.0112 7.43044 15.1441 7.4041 15.4111L7.38016 15.6541C7.28918 16.5939 7.24368 17.0644 7.51903 17.2727C7.79438 17.481 8.2074 17.2906 9.03464 16.9099L9.24893 16.8118C9.48357 16.704 9.6009 16.6501 9.7254 16.6501C9.84991 16.6501 9.96843 16.704 10.2031 16.8118L10.4174 16.9099C11.2434 17.2918 11.6576 17.481 11.933 17.2727C12.2083 17.0644 12.1628 16.5939 12.0718 15.6541L12.0479 15.4111C12.0216 15.1441 12.0084 15.0112 12.0479 14.8867C12.0862 14.7634 12.1712 14.6629 12.3424 14.4629L12.498 14.281C13.1014 13.577 13.4019 13.2251 13.2965 12.8863C13.1912 12.5487 12.7494 12.4493 11.8671 12.2494L11.6385 12.1967C11.3871 12.1404 11.2614 12.1129 11.1608 12.0351C11.0602 11.9585 10.9956 11.8435 10.8663 11.6113L10.749 11.4006C10.2941 10.5841 10.0666 10.1759 9.7254 10.1759Z" fill="#F8F8F8"/>
</svg>
