<svg width="24" height="27" viewBox="0 0 24 27" fill="none" xmlns="http://www.w3.org/2000/svg">
<path d="M24 14.5781V24.4901C24 24.7587 23.9459 25.0245 23.8409 25.2717C23.7359 25.519 23.5822 25.7425 23.389 25.929C23.1957 26.1156 22.9669 26.2612 22.7161 26.3574C22.4653 26.4536 22.1978 26.4983 21.9293 26.4888L21.752 26.4741L12 25.2554V14.5781H24ZM9.33333 14.5781V24.9221L2.336 24.0474C1.69094 23.9668 1.09754 23.6534 0.667364 23.166C0.237186 22.6786 -0.00014151 22.0508 6.33031e-08 21.4008V14.5781H9.33333ZM21.752 0.0154267C22.0185 -0.0178664 22.289 0.00285642 22.5473 0.0763592C22.8056 0.149862 23.0465 0.274639 23.2555 0.443247C23.4646 0.611855 23.6375 0.82084 23.7641 1.05774C23.8906 1.29463 23.9681 1.55459 23.992 1.82209L24 1.99943V11.9114H12V1.23409L21.752 0.0154267ZM9.33333 1.56743V11.9114H6.33031e-08V5.08876C-0.00014151 4.43868 0.237186 3.81094 0.667364 3.32356C1.09754 2.83617 1.69094 2.5227 2.336 2.44209L9.33333 1.56743Z" fill="#F8F8F8"/>
</svg>
