<svg width="90" height="92" viewBox="0 0 90 92" fill="none" xmlns="http://www.w3.org/2000/svg">
<path d="M86 50.6298V85.0543C86 85.9871 85.8151 86.9103 85.4564 87.7689C85.0977 88.6275 84.5726 89.4039 83.9123 90.0517C83.2521 90.6995 82.4702 91.2055 81.6134 91.5395C80.7565 91.8735 79.8423 92.0286 78.9252 91.9957L78.3193 91.9447L45 87.7123V50.6298H86ZM35.8889 50.6298V86.5546L11.9813 83.5169C9.77738 83.2369 7.74993 82.1483 6.28016 80.4556C4.81038 78.7629 3.99952 76.5827 4 74.325V50.6298H35.8889ZM78.3193 0.0535772C79.2299 -0.0620502 80.154 0.00992036 81.0366 0.265196C81.9192 0.520472 82.7421 0.953822 83.4564 1.5394C84.1706 2.12498 84.7615 2.85078 85.1938 3.67353C85.6262 4.49627 85.891 5.39909 85.9727 6.32814L86 6.94402V41.3685H45V4.28602L78.3193 0.0535772ZM35.8889 5.44368V41.3685H4V17.6733C3.99952 15.4156 4.81038 13.2354 6.28016 11.5427C7.74993 9.85003 9.77738 8.76136 11.9813 8.48141L35.8889 5.44368Z" fill="white"/>
</svg>
