<svg width="84" height="84" viewBox="0 0 84 84" fill="none" xmlns="http://www.w3.org/2000/svg">
<path d="M18.606 7.224C18.9 6.972 19.194 6.72 19.404 6.552C25.956 2.31 33.6 0 42 0C49.896 0 57.288 2.1 63.588 5.964C64.05 6.3 65.268 7.098 65.94 7.896C59.85 1.176 42 15.54 42 15.54C35.7 10.794 30.114 7.56 25.872 6.3C22.302 5.418 19.866 6.3 18.732 7.14M72.828 13.482C72.618 13.272 72.408 13.062 72.24 12.852C70.728 11.172 68.796 10.752 67.2 10.878C65.562 11.382 58.38 13.944 49.56 22.302C49.56 22.302 59.514 31.962 65.604 41.832C71.694 51.702 75.306 59.472 73.08 70.266C79.8 62.79 84 52.878 84 42C84 30.996 79.8 21 72.828 13.482ZM57.666 46.032C54.936 43.008 50.946 38.682 45.612 33.39C44.478 32.256 43.26 31.08 42 29.82C42 29.82 40.026 31.752 37.506 34.314C34.272 37.548 30.114 41.79 27.762 44.268C23.646 48.678 11.802 62.538 11.13 70.308C11.13 70.308 8.40003 64.176 14.28 49.938C18.06 40.656 29.4 26.712 34.23 22.176C34.23 22.176 29.904 17.388 24.444 14.07L24.234 13.944C21.588 12.39 18.732 11.172 15.96 11.004C13.146 11.214 11.382 13.272 11.382 13.272C4.05844 21.043 -0.0140058 31.3218 3.61924e-05 42C3.61924e-05 53.1391 4.42502 63.822 12.3015 71.6985C16.2016 75.5985 20.8316 78.6922 25.9273 80.8029C31.023 82.9136 36.4845 84 42 84C54.306 84 65.394 78.708 73.08 70.266C73.08 70.266 72.198 64.68 66.528 56.7C65.226 54.894 60.354 49.098 57.666 46.032Z" fill="white"/>
</svg>
